<svg width="14" height="23" viewBox="0 0 14 23" fill="none" xmlns="http://www.w3.org/2000/svg">
<path d="M6.29219 17.4308C5.84172 17.4308 5.47742 17.0583 5.47742 16.5977C5.47742 15.508 5.62858 14.5667 5.9294 13.7753C6.15009 13.1786 6.50835 12.5774 7.00114 11.9699C7.36393 11.5278 8.01394 10.8817 8.95417 10.0347C9.89441 9.18609 10.5051 8.51062 10.7878 8.00672C11.0705 7.50282 11.2095 6.95255 11.2095 6.35591C11.2095 5.27547 10.7969 4.32796 9.97301 3.51028C9.14917 2.69261 8.13789 2.28454 6.94068 2.28454C5.78428 2.28454 4.81835 2.65551 4.04439 3.3959C3.47904 3.9369 3.05427 4.70047 2.77311 5.68663C2.57962 6.36364 1.93415 6.79644 1.24938 6.71297C0.381705 6.60786 -0.189691 5.72991 0.0582162 4.87204C0.439148 3.55356 1.07706 2.49167 1.97043 1.68481C3.21148 0.561089 4.85311 0 6.89533 0C9.05696 0 10.7817 0.601277 12.0696 1.80538C13.3576 3.00948 14 4.46398 14 6.17043C14 7.15813 13.7733 8.06855 13.3213 8.90013C12.8693 9.73327 11.9835 10.7457 10.6669 11.939C9.78255 12.7412 9.20359 13.3332 8.9315 13.7134C8.6594 14.0937 8.45836 14.5311 8.32836 15.0242C8.23161 15.3905 8.1651 15.9284 8.12882 16.6348C8.10615 17.08 7.74487 17.4293 7.30952 17.4293H6.29219V17.4308ZM5.32625 21.4187C5.32625 20.5454 6.01858 19.8375 6.87265 19.8375C7.72673 19.8375 8.41905 20.5454 8.41905 21.4187C8.41905 22.2921 7.72673 23 6.87265 23C6.01858 23 5.32625 22.2921 5.32625 21.4187Z" fill="#ABABAB"/>
</svg>
