<svg width="17" height="26" viewBox="0 0 17 26" fill="none" xmlns="http://www.w3.org/2000/svg">
<path d="M16.7106 18.4186C16.896 18.6034 17 18.8525 17 19.1121C17 19.3717 16.896 19.6208 16.7106 19.8056C15.5716 20.9196 14.1673 21.7358 12.6256 22.1799V25.0205C12.6256 25.2803 12.5206 25.5294 12.3338 25.7131C12.1469 25.8968 11.8935 26 11.6292 26C11.365 26 11.1116 25.8968 10.9247 25.7131C10.7379 25.5294 10.6329 25.2803 10.6329 25.0205V22.5678C10.338 22.5952 10.0431 22.6109 9.74417 22.6109C9.34447 22.6098 8.94521 22.585 8.54857 22.5365V25.0205C8.54857 25.2803 8.4436 25.5294 8.25675 25.7131C8.0699 25.8968 7.81648 26 7.55223 26C7.28799 26 7.03456 25.8968 6.84772 25.7131C6.66087 25.5294 6.55589 25.2803 6.55589 25.0205V22.0702C4.6438 21.4096 2.98684 20.1828 1.81288 18.5586C0.638909 16.9344 0.00558681 14.9925 0 13C0.00452204 11.0052 0.638245 9.06091 1.81383 7.43503C2.98942 5.80915 4.649 4.58173 6.56387 3.92194V0.979506C6.56387 0.719725 6.66884 0.470584 6.85569 0.286891C7.04254 0.103198 7.29596 0 7.5602 0C7.82445 0 8.07787 0.103198 8.26472 0.286891C8.45157 0.470584 8.55654 0.719725 8.55654 0.979506V3.46353C9.24528 3.37666 9.94177 3.36615 10.6329 3.43219V0.979506C10.6329 0.719725 10.7379 0.470584 10.9247 0.286891C11.1116 0.103198 11.365 0 11.6292 0C11.8935 0 12.1469 0.103198 12.3338 0.286891C12.5206 0.470584 12.6256 0.719725 12.6256 0.979506V3.81615C14.1688 4.26307 15.5734 5.08347 16.7106 6.20223C16.8918 6.38722 16.9919 6.63479 16.9893 6.89162C16.9866 7.14845 16.8815 7.39398 16.6965 7.57534C16.5115 7.7567 16.2614 7.85937 16.0002 7.86123C15.7389 7.86309 15.4874 7.764 15.2997 7.58529C14.2388 6.54626 12.8925 5.83412 11.426 5.53617C10.2356 5.26541 8.99587 5.28559 7.81526 5.59494C6.4816 5.94095 5.26476 6.62762 4.28823 7.58529C3.3211 8.53805 2.62641 9.72453 2.27415 11.0252C1.92189 12.3259 1.92449 13.6949 2.2817 14.9943C2.6389 16.2937 3.33809 17.4777 4.30884 18.4269C5.27959 19.3761 6.48763 20.057 7.81128 20.4011C8.98356 20.7109 10.2154 20.7324 11.3981 20.4638C12.8751 20.1746 14.2324 19.4632 15.2997 18.4186C15.3923 18.3274 15.5022 18.255 15.6233 18.2057C15.7443 18.1563 15.8741 18.1309 16.0052 18.1309C16.1362 18.1309 16.266 18.1563 16.387 18.2057C16.5081 18.255 16.618 18.3274 16.7106 18.4186Z" fill="#ABABAB"/>
</svg>
