<svg width="28" height="22" viewBox="0 0 28 22" fill="none" xmlns="http://www.w3.org/2000/svg">
<path d="M8.82013 15.7196C9.33776 15.7196 9.76003 15.3018 9.75549 14.7842V2.04327C9.75549 1.94792 9.83268 1.87073 9.92804 1.87073H16.3984C16.916 1.87073 17.3338 1.45299 17.3338 0.935364C17.3338 0.417735 16.916 0 16.3984 0H9.92804C8.80197 0 7.88477 0.917202 7.88477 2.04327V14.7842C7.88477 15.3018 8.3025 15.7196 8.82013 15.7196Z" fill="#ABABAB"/>
<path d="M10.1503 18.3992L8.49294 19.4708C8.44754 19.4935 8.40213 19.489 8.37489 19.4799C8.3431 19.4708 8.2977 19.4527 8.27045 19.4027L1.89999 8.36904C1.86821 8.3191 1.87275 8.26915 1.88183 8.23737C1.89091 8.20558 1.90907 8.16017 1.95902 8.13293L5.88664 5.78998C6.33162 5.52208 6.47692 4.94997 6.21356 4.50499C5.94567 4.06001 5.37355 3.91471 4.92857 4.17807L1.01457 6.51194C0.54689 6.78437 0.210886 7.22481 0.0701271 7.75152C-0.0706316 8.28277 0.00201803 8.83218 0.274454 9.30441L6.64038 20.3335C6.91281 20.8057 7.35779 21.1463 7.8845 21.2871C8.06159 21.337 8.24321 21.3597 8.42029 21.3597C8.77446 21.3597 9.12409 21.2689 9.44193 21.0873L9.46463 21.0736L11.1674 19.9703C11.6033 19.6888 11.7259 19.1121 11.4443 18.6762C11.1628 18.2403 10.5862 18.1177 10.1503 18.3992Z" fill="#ABABAB"/>
<path d="M27.3687 7.26035C27.2234 6.7291 26.8874 6.28866 26.4152 6.01623L20.7304 2.73337C20.4216 2.55629 20.072 2.46094 19.7133 2.46094C18.9822 2.46094 18.3011 2.85143 17.9379 3.48257L11.5674 14.5162C11.295 14.9885 11.2223 15.5424 11.3631 16.0691C11.5084 16.6004 11.8444 17.0408 12.3166 17.3132L18.006 20.5961C18.3148 20.7732 18.6644 20.8685 19.0231 20.8685C19.7541 20.8685 20.4307 20.4735 20.7939 19.8469L27.1644 8.81324C27.4368 8.34102 27.5095 7.78706 27.3687 7.26035ZM25.5389 7.87788L19.1684 18.9115C19.1366 18.9751 19.0685 18.9978 19.0186 18.9978C18.9913 18.9978 18.9641 18.9887 18.9368 18.9751L13.252 15.6923C13.202 15.665 13.1839 15.6196 13.1748 15.5878C13.1703 15.556 13.1657 15.5061 13.193 15.4561L19.5634 4.42248C19.5952 4.35891 19.6633 4.33621 19.7133 4.33621C19.7405 4.33621 19.7678 4.34075 19.7905 4.35891L25.4753 7.64176C25.5252 7.66901 25.5434 7.71441 25.5525 7.7462C25.5616 7.77798 25.5661 7.82793 25.5389 7.87788Z" fill="#ABABAB"/>
</svg>
