<svg width="21" height="21" viewBox="0 0 21 21" fill="none" xmlns="http://www.w3.org/2000/svg">
<path fill-rule="evenodd" clip-rule="evenodd" d="M16.5878 17.1818C15.5481 17.1818 14.7029 18.0371 14.7029 19.0909C14.7029 20.1447 15.5481 21 16.5878 21C17.6283 21 18.4728 20.1447 18.4728 19.0909C18.4728 18.0371 17.6283 17.1818 16.5878 17.1818ZM6.78595 17.1818C5.74619 17.1818 4.90097 18.0371 4.90097 19.0909C4.90097 20.1447 5.74619 21 6.78595 21C7.82645 21 8.67092 20.1447 8.67092 19.0909C8.67092 18.0371 7.82645 17.1818 6.78595 17.1818ZM5.16034 13.7455H18.3228C18.9961 13.7455 19.5699 13.2529 19.6807 12.5809C19.9363 11.0285 20.6865 6.46882 20.9813 4.6781C21.0477 4.27337 20.9353 3.86025 20.6737 3.54792C20.4121 3.23483 20.0283 3.05461 19.6234 3.05461H4.60465L4.57525 2.488C4.52699 1.55865 3.88459 0.769057 2.99262 0.543021C2.1097 0.32004 0.93724 0.0229869 0.93724 0.0229869C0.533855 -0.07934 0.123685 0.169604 0.0226497 0.578148C-0.078385 0.987456 0.16817 1.40211 0.571555 1.50444L2.62693 2.02523C2.8765 2.08785 3.05595 2.30854 3.06953 2.56894L3.70514 14.8077C3.7632 15.9241 4.67477 16.8 5.77937 16.8H17.7188C18.135 16.8 18.4728 16.4579 18.4728 16.0364C18.4728 15.6149 18.135 15.2727 17.7188 15.2727H5.77937C5.47702 15.2727 5.22745 15.033 5.21161 14.7275L5.16034 13.7455Z" fill="#ABABAB"/>
</svg>
