<svg width="20" height="20" viewBox="0 0 20 20" fill="none" xmlns="http://www.w3.org/2000/svg">
<path d="M0.719456 0.000244141H8.60925C8.80007 0.000244141 8.98306 0.0760437 9.11799 0.210968C9.25291 0.345892 9.32871 0.528888 9.32871 0.7197V8.60951C9.32871 8.80032 9.25291 8.98331 9.11799 9.11823C8.98307 9.25316 8.80008 9.32895 8.60927 9.32895H0.719456C0.528644 9.32895 0.345648 9.25315 0.210724 9.11823C0.0757996 8.98331 0 8.80031 0 8.6095V0.7197C0 0.528888 0.0757996 0.345892 0.210724 0.210968C0.345648 0.0760437 0.528644 0.000244141 0.719456 0.000244141Z" fill="#ABABAB"/>
<path d="M11.3907 0H19.2805C19.4713 0 19.6543 0.0757982 19.7892 0.21072C19.9242 0.345641 20 0.528634 20 0.719442V8.60925C20 8.80007 19.9242 8.98306 19.7892 9.11799C19.6543 9.25291 19.4713 9.32871 19.2805 9.32871H11.3907C11.1999 9.32871 11.0169 9.25291 10.882 9.11799C10.7471 8.98307 10.6713 8.80008 10.6713 8.60927V0.719442C10.6713 0.528634 10.7471 0.345641 10.882 0.21072C11.0169 0.0757982 11.1999 0 11.3907 0Z" fill="#ABABAB"/>
<path d="M0.719442 10.6714H8.60925C8.80007 10.6714 8.98306 10.7472 9.11799 10.8821C9.25291 11.017 9.32871 11.2 9.32871 11.3908V19.2806C9.32871 19.4715 9.25291 19.6544 9.11799 19.7894C8.98306 19.9243 8.80007 20.0001 8.60925 20.0001H0.719456C0.528644 20.0001 0.345648 19.9243 0.210724 19.7894C0.0757996 19.6544 0 19.4715 0 19.2806V11.3908C0 11.2 0.0757982 11.017 0.21072 10.8821C0.345641 10.7472 0.528634 10.6714 0.719442 10.6714Z" fill="#ABABAB"/>
<path d="M19.2805 10.6714H11.3907C10.9934 10.6714 10.6713 10.9935 10.6713 11.3908V19.2807C10.6713 19.678 10.9934 20.0001 11.3907 20.0001H19.2805C19.6779 20.0001 20 19.678 20 19.2807V11.3908C20 10.9935 19.6779 10.6714 19.2805 10.6714Z" fill="#ABABAB"/>
</svg>
