<svg width="28" height="26" viewBox="0 0 28 26" fill="none" xmlns="http://www.w3.org/2000/svg">
<path d="M14.9862 0C9.52665 0 4.83392 3.32734 2.90616 8.06123L2.13786 6.70194C2.03923 6.51597 1.89082 6.3611 1.70921 6.25465C1.52761 6.14819 1.31998 6.09433 1.10952 6.09912C0.912502 6.10351 0.720021 6.15913 0.551029 6.26051C0.382036 6.36189 0.242356 6.50554 0.14574 6.6773C0.0491246 6.84906 -0.00109753 7.04302 1.81924e-05 7.24009C0.00113392 7.43716 0.053549 7.63054 0.152104 7.80119L2.23242 11.5245C2.37703 11.7811 2.61572 11.9713 2.89804 12.0551C3.18036 12.139 3.48421 12.1098 3.74538 11.9737L7.44504 10.0825C7.58405 10.0187 7.70875 9.92756 7.81165 9.81443C7.91455 9.70129 7.99352 9.56853 8.04382 9.42411C8.09412 9.27969 8.11472 9.1266 8.10436 8.97403C8.09401 8.82145 8.05293 8.67255 7.98359 8.53625C7.91424 8.39995 7.81806 8.27906 7.70083 8.18087C7.58359 8.08267 7.44772 8.00919 7.30137 7.96483C7.15502 7.92046 7.00122 7.90613 6.84919 7.9227C6.69717 7.93926 6.55006 7.98639 6.4167 8.06123L5.0574 8.75861C6.68282 4.95584 10.5127 2.26944 14.9862 2.26944C20.9437 2.26944 25.7306 7.00584 25.7306 12.8602C25.7306 18.7144 20.9437 23.4509 14.9862 23.4509C9.8898 23.4509 5.64461 19.9535 4.5255 15.2951C4.45496 15.002 4.27088 14.7489 4.01374 14.5915C3.75661 14.4341 3.44748 14.3853 3.15437 14.4559C2.86126 14.5264 2.60818 14.7105 2.4508 14.9676C2.29342 15.2248 2.24463 15.5339 2.31516 15.827C3.67849 21.502 8.85173 25.7203 14.9862 25.7203C22.1539 25.7203 28 19.9574 28 12.8602C28 5.76291 22.1539 0 14.9862 0ZM15.128 5.64996C14.978 5.6515 14.8298 5.68278 14.6919 5.74198C14.5541 5.80118 14.4293 5.88714 14.3249 5.99486C14.2205 6.10258 14.1384 6.22994 14.0836 6.36957C14.0287 6.5092 14.002 6.65832 14.0051 6.80831V12.8602C14.005 13.0304 14.0432 13.1984 14.1169 13.3519C14.1905 13.5054 14.2978 13.6403 14.4307 13.7467L18.2131 16.7726C18.3295 16.8657 18.4631 16.935 18.6063 16.9766C18.7495 17.0181 18.8995 17.031 19.0477 17.0145C19.1958 16.9981 19.3393 16.9525 19.4699 16.8806C19.6005 16.8087 19.7157 16.7118 19.8088 16.5954C19.902 16.4789 19.9713 16.3453 20.0128 16.2021C20.0543 16.0589 20.0671 15.9089 20.0507 15.7607C20.0342 15.6126 19.9887 15.4691 19.9168 15.3385C19.8448 15.2079 19.7479 15.0927 19.6314 14.9996L16.2746 12.3164V6.80831C16.2777 6.65633 16.2503 6.50524 16.194 6.36405C16.1376 6.22286 16.0535 6.09443 15.9465 5.98639C15.8396 5.87834 15.712 5.79289 15.5714 5.7351C15.4308 5.6773 15.28 5.64835 15.128 5.64996Z" fill="#ABABAB"/>
</svg>
