<svg width="20" height="22" viewBox="0 0 20 22" fill="none" xmlns="http://www.w3.org/2000/svg">
<path d="M10.0001 7.33594C9.34895 7.33594 8.71241 7.52835 8.17099 7.88885C7.62956 8.24935 7.20757 8.76174 6.95838 9.36123C6.70919 9.96072 6.64399 10.6204 6.77103 11.2568C6.89806 11.8932 7.21163 12.4778 7.67207 12.9366C8.13252 13.3954 8.71916 13.7079 9.35781 13.8345C9.99647 13.9611 10.6585 13.8961 11.2601 13.6478C11.8616 13.3995 12.3758 12.979 12.7376 12.4395C13.0994 11.8999 13.2925 11.2656 13.2925 10.6167C13.2915 9.74692 12.9443 8.91301 12.3271 8.29795C11.7099 7.6829 10.873 7.33693 10.0001 7.33594Z" fill="#ABABAB"/>
<path d="M19.7801 6.31444L18.6285 4.32713C18.521 4.14134 18.3777 3.97849 18.2069 3.84789C18.0362 3.71728 17.8413 3.62148 17.6333 3.56595C17.4254 3.51041 17.2086 3.49624 16.9951 3.52424C16.7817 3.55223 16.5759 3.62185 16.3895 3.72911L15.387 4.30515C14.6187 3.65362 13.7383 3.14637 12.7884 2.80803V1.65886C12.7884 0.756853 12.0567 0 11.1516 0H8.84844C7.94327 0 7.21163 0.756024 7.21163 1.65886V2.80803C6.26141 3.14627 5.38066 3.65352 4.61221 4.30515L3.61006 3.72911C3.42361 3.62184 3.21779 3.55221 3.00434 3.52421C2.79089 3.49621 2.57399 3.51038 2.36604 3.56591C2.15809 3.62144 1.96315 3.71725 1.79235 3.84786C1.62156 3.97847 1.47825 4.14133 1.37062 4.32713L0.2199 6.31444C0.112243 6.50017 0.0423565 6.70522 0.0142313 6.91787C-0.0138938 7.13052 0.00029341 7.34661 0.0559827 7.5538C0.111672 7.76099 0.207773 7.95522 0.338796 8.12539C0.46982 8.29557 0.6332 8.43835 0.819607 8.5456L1.81843 9.12081C1.63788 10.1098 1.63788 11.1231 1.81843 12.1121L0.819607 12.6874C0.633145 12.7946 0.469716 12.9374 0.338656 13.1076C0.207596 13.2778 0.111475 13.4721 0.0557827 13.6793C9.06558e-05 13.8866 -0.0140802 14.1027 0.0140796 14.3154C0.0422394 14.5281 0.112178 14.7332 0.2199 14.9189L1.37145 16.9062C1.47905 17.092 1.62231 17.2549 1.79307 17.3855C1.96383 17.5161 2.15873 17.6119 2.36665 17.6674C2.57457 17.723 2.79143 17.7371 3.00485 17.7091C3.21827 17.6811 3.42406 17.6115 3.61047 17.5043L4.61304 16.9282C5.38125 17.5798 6.2617 18.087 7.21163 18.4253V19.5745C7.21163 20.4765 7.94327 21.2334 8.84844 21.2334H11.1516C12.0567 21.2334 12.7884 20.4773 12.7884 19.5745V18.4253C13.7386 18.0871 14.6193 17.5798 15.3878 16.9282L16.3895 17.5043C16.576 17.6115 16.7818 17.6812 16.9952 17.7092C17.2087 17.7372 17.4256 17.723 17.6335 17.6675C17.8415 17.6119 18.0364 17.5161 18.2072 17.3855C18.378 17.2549 18.5213 17.092 18.629 16.9062L19.7801 14.9189C19.8878 14.7332 19.9576 14.5281 19.9858 14.3155C20.0139 14.1028 19.9997 13.8868 19.944 13.6796C19.8883 13.4724 19.7922 13.2782 19.6612 13.108C19.5302 12.9378 19.3668 12.795 19.1804 12.6878L18.1816 12.1126C18.3621 11.1236 18.3621 10.1102 18.1816 9.12122L19.1804 8.54602C19.3669 8.43877 19.5303 8.29596 19.6613 8.12575C19.7924 7.95555 19.8885 7.76128 19.9442 7.55404C19.9999 7.3468 20.0141 7.13066 19.9859 6.91797C19.9578 6.70527 19.8878 6.50019 19.7801 6.31444ZM10 15.5563C9.01959 15.5563 8.06119 15.2666 7.24601 14.7239C6.43083 14.1811 5.79547 13.4096 5.42028 12.507C5.04509 11.6044 4.94692 10.6112 5.13819 9.653C5.32946 8.6948 5.80158 7.81464 6.49483 7.12382C7.18809 6.43299 8.07135 5.96253 9.03293 5.77194C9.9945 5.58134 10.9912 5.67916 11.897 6.05303C12.8028 6.4269 13.577 7.06003 14.1216 7.87236C14.6663 8.68468 14.9571 9.63971 14.9571 10.6167C14.9556 11.9263 14.4329 13.1819 13.5036 14.108C12.5743 15.034 11.3143 15.5549 10 15.5563Z" fill="#ABABAB"/>
</svg>
