<svg width="19" height="26" viewBox="0 0 19 26" fill="none" xmlns="http://www.w3.org/2000/svg">
<path d="M9.5 25.3333C9.30208 25.3333 9.10417 25.2542 8.94583 25.1354C8.58958 24.7792 0 16.625 0 9.5C0 4.15625 4.15625 0 9.5 0C14.8438 0 19 4.15625 19 9.5C19 16.625 10.4104 24.7792 10.0542 25.1354C9.89583 25.2542 9.69792 25.3333 9.5 25.3333ZM9.5 1.58333C5.06667 1.58333 1.58333 5.06667 1.58333 9.5C1.58333 14.9625 7.63958 21.5333 9.5 23.4333C11.3604 21.5333 17.4167 14.9625 17.4167 9.5C17.4167 5.06667 13.9333 1.58333 9.5 1.58333Z" fill="#ABABAB"/>
<path d="M9.50065 12.6668C7.75898 12.6668 6.33398 11.2418 6.33398 9.50016C6.33398 7.7585 7.75898 6.3335 9.50065 6.3335C11.2423 6.3335 12.6673 7.7585 12.6673 9.50016C12.6673 11.2418 11.2423 12.6668 9.50065 12.6668ZM9.50065 7.91683C8.62982 7.91683 7.91732 8.62933 7.91732 9.50016C7.91732 10.371 8.62982 11.0835 9.50065 11.0835C10.3715 11.0835 11.084 10.371 11.084 9.50016C11.084 8.62933 10.3715 7.91683 9.50065 7.91683Z" fill="#ABABAB"/>
</svg>
