<svg width="20" height="22" viewBox="0 0 20 22" fill="none" xmlns="http://www.w3.org/2000/svg">
<path d="M4 20.3333H9.66666V17.6667H4C3.64638 17.6667 3.30724 17.5262 3.05719 17.2761C2.80714 17.0261 2.66667 16.687 2.66667 16.3333V4C2.66667 3.64638 2.80714 3.30724 3.05719 3.05719C3.30724 2.80714 3.64638 2.66667 4 2.66667H14C14.3536 2.66667 14.6928 2.80714 14.9428 3.05719C15.1929 3.30724 15.3333 3.64638 15.3333 4V12.3333H18V4C18 2.93913 17.5786 1.92172 16.8284 1.17157C16.0783 0.421427 15.0609 0 14 0H4C2.93913 0 1.92172 0.421427 1.17157 1.17157C0.421427 1.92172 0 2.93913 0 4V16.3333C0 17.3942 0.421427 18.4116 1.17157 19.1618C1.92172 19.9119 2.93913 20.3333 4 20.3333Z" fill="#ABABAB"/>
<path d="M13 6H5V8.66667H13V6Z" fill="#ABABAB"/>
<path d="M16 21.3332C16 21.3332 20 18.6665 20 16.6665C20.0008 16.203 19.8406 15.7536 19.5467 15.3951C19.2529 15.0367 18.8436 14.7914 18.389 14.7013C17.9343 14.6111 17.4625 14.6817 17.0541 14.9009C16.6457 15.1202 16.3261 15.4744 16.15 15.9032C16.1374 15.9325 16.1164 15.9574 16.0898 15.975C16.0631 15.9925 16.0319 16.0019 16 16.0019C15.9681 16.0019 15.9369 15.9925 15.9102 15.975C15.8836 15.9574 15.8626 15.9325 15.85 15.9032C15.6739 15.4744 15.3543 15.1202 14.9459 14.9009C14.5375 14.6817 14.0657 14.6111 13.611 14.7013C13.1564 14.7914 12.7471 15.0367 12.4533 15.3951C12.1594 15.7536 11.9992 16.203 12 16.6665C12 18.6665 16 21.3332 16 21.3332Z" fill="#ABABAB"/>
<path d="M10.6667 11.3335H5V14.0002H10.6667V11.3335Z" fill="#ABABAB"/>
</svg>
