<svg width="20" height="21" viewBox="0 0 20 21" fill="none" xmlns="http://www.w3.org/2000/svg">
<path d="M19.9902 12.3439C19.9902 11.0362 20.0539 9.70948 19.8532 8.41124C19.5228 6.27995 18.4487 4.26496 16.8953 2.77923C16.1187 2.03636 15.2193 1.40742 14.2467 0.954101C13.1986 0.467559 12.1009 0.166141 10.9512 0.0498454C8.76764 -0.175625 6.50142 0.370251 4.65067 1.55694C2.79756 2.746 1.38353 4.51654 0.613958 6.58375C0.226811 7.62328 0.026156 8.73877 0.00491014 9.84713C-0.00453246 10.2459 0.00254952 10.6422 0.00254952 11.0409V15.3724C0.00254952 15.745 0.328319 16.101 0.710744 16.0844C0.866547 16.0772 2.07048 16.0986 2.375 16.0986H3.76542C3.77014 16.0986 3.77723 16.0986 3.78195 16.0986C4.44765 16.0796 5.06378 15.5954 5.17237 14.9167C5.20306 14.722 5.19598 14.5322 5.19598 14.3352V10.0536C5.19598 9.83527 5.20306 9.61692 5.14404 9.40331C4.97408 8.77674 4.39336 8.35428 3.75598 8.34716C3.11861 8.34004 2.48123 8.34716 1.84622 8.34716C1.75651 8.34716 1.66681 8.35428 1.57946 8.36852C1.69513 7.79654 1.8651 7.23642 2.08464 6.69529C2.07284 6.72377 2.06104 6.75225 2.04687 6.78074C2.07048 6.72377 2.09408 6.66681 2.11769 6.60985C2.10589 6.63833 2.09408 6.66681 2.08228 6.69292C2.25697 6.28945 2.45998 5.89784 2.68897 5.52285C2.807 5.32823 2.93448 5.13599 3.06667 4.95086C3.10208 4.90102 3.13985 4.84881 3.17762 4.80134C3.18234 4.79422 3.18943 4.7871 3.19415 4.77761C3.18943 4.78473 3.1847 4.78947 3.17998 4.79659C3.16582 4.81321 3.1611 4.82033 3.1611 4.82033C3.16582 4.81321 3.23192 4.72539 3.23428 4.72539C3.23428 4.72539 3.22956 4.73251 3.21539 4.74913C3.20831 4.75862 3.20359 4.76574 3.19651 4.77286C3.26497 4.68742 3.33343 4.5996 3.40424 4.51654C3.70169 4.16528 4.02273 3.83538 4.36739 3.52921C4.45237 3.45326 4.53972 3.37969 4.62706 3.30849C4.66247 3.28001 4.69552 3.25153 4.73093 3.22305C4.72149 3.23017 4.71204 3.23729 4.7026 3.24441C4.7144 3.23491 4.72857 3.22542 4.74037 3.21593C4.74273 3.21355 4.74509 3.21118 4.74981 3.20881C4.7687 3.19219 4.80411 3.16846 4.81119 3.16134H4.81355C4.99296 3.02843 5.17473 2.90027 5.36358 2.77923C5.77434 2.51578 6.20633 2.28556 6.65486 2.08857C6.62889 2.10044 6.60292 2.10993 6.5746 2.1218C6.63125 2.09807 6.68791 2.07433 6.74456 2.0506C6.71387 2.06247 6.68555 2.07671 6.65486 2.08857C7.35597 1.79902 8.09013 1.59729 8.84082 1.48811C8.81013 1.49048 8.77708 1.49523 8.74639 1.49998C8.81013 1.49048 8.87151 1.48336 8.93524 1.47387C8.90456 1.47862 8.87151 1.48336 8.84082 1.48811C9.60567 1.39318 10.38 1.39318 11.1448 1.48811C11.1141 1.48336 11.0811 1.47862 11.0504 1.47387C11.1141 1.48336 11.1755 1.49048 11.2392 1.49998C11.2085 1.49523 11.1755 1.49048 11.1448 1.48811C11.8955 1.59729 12.6273 1.79902 13.3308 2.08857C13.3024 2.07671 13.2718 2.06247 13.2434 2.0506C13.3001 2.07433 13.3567 2.09807 13.4134 2.1218C13.3874 2.10993 13.3591 2.10044 13.3331 2.08857C13.7344 2.2642 14.1216 2.46594 14.4922 2.69616C14.6858 2.8172 14.8746 2.94299 15.0611 3.0759C15.1107 3.1115 15.1603 3.14947 15.2098 3.18745C15.2193 3.19457 15.2287 3.20169 15.2382 3.20881C15.2311 3.20169 15.2217 3.19694 15.2146 3.18982C15.2004 3.17795 15.1933 3.17083 15.191 3.17083C15.198 3.17558 15.2783 3.23729 15.2854 3.24441C15.283 3.24441 15.2759 3.23729 15.2618 3.22542C15.2547 3.22067 15.2476 3.21355 15.2405 3.20881C15.3255 3.27763 15.4105 3.34409 15.4931 3.41529C15.8425 3.71434 16.1706 4.03711 16.4752 4.38363C16.5507 4.46907 16.6239 4.55688 16.6947 4.6447C16.723 4.6803 16.7514 4.71353 16.7773 4.74913C16.7702 4.73963 16.7632 4.73014 16.7561 4.72065C16.7655 4.73251 16.775 4.74438 16.7844 4.75862C16.7868 4.76099 16.7891 4.76337 16.7915 4.76811C16.8033 4.78235 16.8198 4.80371 16.8293 4.81795C16.834 4.8227 16.8363 4.82745 16.8387 4.82982C16.8387 4.82982 16.8387 4.82982 16.8411 4.83219C16.9733 5.01257 17.1007 5.19769 17.2211 5.38519C17.4855 5.80053 17.7145 6.23723 17.9104 6.69055C17.8986 6.66207 17.8868 6.63121 17.875 6.60273C17.8986 6.65969 17.9222 6.71665 17.9458 6.77361C17.934 6.74513 17.9222 6.71903 17.9104 6.69055C18.13 7.2293 18.2976 7.78705 18.4132 8.35666C18.3424 8.34479 18.2716 8.34004 18.1984 8.33767C17.5611 8.33055 16.9237 8.33767 16.2887 8.33767C15.7528 8.33767 15.2429 8.59399 14.9785 9.07816C14.8274 9.35347 14.7991 9.6454 14.7991 9.95156V14.2165C14.7991 14.3613 14.7967 14.5061 14.7991 14.6508C14.8062 15.2988 15.2476 15.8921 15.8803 16.0488C16.1801 16.1223 16.5129 16.0915 16.8174 16.0915H18.2079C18.2126 16.0915 18.2197 16.0915 18.2244 16.0915C18.3094 16.0891 18.392 16.0796 18.4746 16.063C18.4345 16.2196 18.3849 16.3763 18.3259 16.5258C18.2362 16.7275 18.1276 16.9245 18.0049 17.1097C17.9694 17.1619 17.934 17.2117 17.8986 17.2616C17.9081 17.2497 17.9152 17.2402 17.9246 17.2283C18.0025 17.1334 17.8207 17.3684 17.8892 17.2734C17.8915 17.2687 17.8963 17.2639 17.8986 17.2592C17.8868 17.2734 17.8774 17.2853 17.8656 17.2995C17.7877 17.3945 17.7027 17.487 17.6153 17.5748C17.528 17.6627 17.4359 17.7457 17.3415 17.8264C17.3297 17.8359 17.3179 17.8454 17.3061 17.8549C17.3085 17.8525 17.3132 17.8502 17.3155 17.8478C17.4194 17.7742 17.1739 17.9641 17.2707 17.8834C17.2825 17.8739 17.2943 17.8644 17.3061 17.8549C17.2589 17.8881 17.2117 17.9237 17.1645 17.9546C16.978 18.0804 16.7797 18.1895 16.5767 18.2845C16.6003 18.275 16.6239 18.2655 16.6475 18.256C16.5908 18.2797 16.5342 18.3035 16.4775 18.3272C16.5106 18.313 16.5436 18.2987 16.5743 18.2845C16.3028 18.3913 16.0219 18.4672 15.7363 18.5147C15.7646 18.5123 15.7929 18.5076 15.8236 18.5052C15.7599 18.5147 15.6985 18.5218 15.6348 18.5313C15.6702 18.5266 15.7032 18.5218 15.7363 18.5171C15.2972 18.5645 14.8439 18.5408 14.4049 18.5408H12.2307C12.1977 18.4649 12.1575 18.3913 12.1127 18.3225C11.7893 17.8193 11.2392 17.5179 10.6444 17.5131C10.3634 17.5108 10.0802 17.5131 9.79924 17.5131C9.49708 17.5131 9.19728 17.5131 8.89511 17.5131C8.32384 17.5155 7.80685 17.7861 7.46928 18.2465C7.0963 18.7544 7.06089 19.4427 7.32056 20.0076C7.58259 20.5795 8.16331 20.9474 8.7818 20.9901C9.04619 21.0091 9.31531 20.9949 9.5797 20.9949H10.6514C10.6562 20.9949 10.6632 20.9949 10.668 20.9949C11.2864 20.983 11.8719 20.6436 12.1693 20.093C12.1906 20.0526 12.2118 20.0099 12.2307 19.9672C13.2458 19.9672 14.2585 19.9672 15.2736 19.9672C15.7434 19.9672 16.2226 19.9031 16.6711 19.7631C17.2636 19.578 17.79 19.2813 18.2763 18.8944C19.1569 18.1943 19.7753 17.112 19.9359 15.9942C20.009 15.4863 19.9996 14.9855 19.9996 14.4752V12.3439H19.9902Z" fill="#ABABAB"/>
</svg>
