<svg width="90" height="37" viewBox="0 0 90 37" fill="none" xmlns="http://www.w3.org/2000/svg">
<path d="M32.2 12.88V24H37.784V22.528H34.024V12.88H32.2ZM39.3094 24H41.1334V15.184H39.3094V24ZM40.2374 14.016C40.8774 14.016 41.3894 13.504 41.3894 12.848C41.3894 12.192 40.8774 11.68 40.2374 11.68C39.5814 11.68 39.0694 12.192 39.0694 12.848C39.0694 13.504 39.5814 14.016 40.2374 14.016ZM56.0241 24H57.8321V18.8C57.8321 16.336 56.2641 15.04 54.2001 15.04C52.9201 15.04 51.6721 15.712 51.1281 16.784C50.5201 15.632 49.3521 15.04 47.9601 15.04C46.9041 15.04 45.9441 15.472 45.3521 16.192V15.184H43.5281V24H45.3521V19.072C45.3521 17.456 46.2321 16.624 47.5761 16.624C48.9041 16.624 49.7841 17.456 49.7841 19.072V24H51.5921V19.072C51.5921 17.456 52.4721 16.624 53.8161 16.624C55.1441 16.624 56.0241 17.456 56.0241 19.072V24ZM60.1531 24H61.9771V15.184H60.1531V24ZM61.0811 14.016C61.7211 14.016 62.2331 13.504 62.2331 12.848C62.2331 12.192 61.7211 11.68 61.0811 11.68C60.4251 11.68 59.9131 12.192 59.9131 12.848C59.9131 13.504 60.4251 14.016 61.0811 14.016ZM64.6599 21.552C64.6599 23.344 65.6359 24 67.2039 24H68.6439V22.48H67.5239C66.7559 22.48 66.4999 22.208 66.4999 21.552V16.672H68.6439V15.184H66.4999V12.992H64.6599V15.184H63.6199V16.672H64.6599V21.552ZM74.037 16.576C75.397 16.576 76.469 17.44 76.501 18.8H71.621C71.813 17.408 72.805 16.576 74.037 16.576ZM78.165 21.376H76.197C75.861 22.064 75.237 22.608 74.117 22.608C72.773 22.608 71.733 21.728 71.605 20.272H78.341C78.389 19.968 78.405 19.68 78.405 19.376C78.405 16.784 76.629 15.04 74.117 15.04C71.509 15.04 69.717 16.816 69.717 19.584C69.717 22.352 71.589 24.144 74.117 24.144C76.277 24.144 77.669 22.912 78.165 21.376ZM79.592 19.552C79.592 22.272 81.432 24.144 83.752 24.144C85.192 24.144 86.248 23.472 86.808 22.672V24H88.648V12.16H86.808V16.416C86.136 15.584 84.92 15.04 83.768 15.04C81.432 15.04 79.592 16.832 79.592 19.552ZM86.808 19.584C86.808 21.488 85.512 22.56 84.136 22.56C82.776 22.56 81.464 21.456 81.464 19.552C81.464 17.648 82.776 16.624 84.136 16.624C85.512 16.624 86.808 17.696 86.808 19.584Z" fill="#564ECE"/>
<path d="M9.51239 18L13.8487 10.6831C14.0538 10.3348 14.0538 9.90745 13.8441 9.56029C13.6345 9.21312 13.2517 9 12.8347 9H1.16793C0.753213 9 0.368101 9.21315 0.15963 9.56032C-0.04884 9.90749 -0.0511369 10.3348 0.156203 10.6831L4.49135 18L0.156203 25.3169C-0.0511734 25.6652 -0.0488764 26.0925 0.15963 26.4397C0.368137 26.7869 0.753213 27 1.16793 27H12.8347C13.2517 27 13.6345 26.7868 13.8442 26.4397C14.0538 26.0925 14.0538 25.6652 13.8487 25.3169L9.51239 18ZM1.16793 25.875L5.83463 18L1.16793 10.125H12.8347L8.16798 18L12.8347 25.875H1.16793ZM7.00131 18.2988L10.8249 24.75H3.17884L7.00131 18.2988ZM7.00131 17.7012L5.17838 14.625H8.82424L7.00131 17.7012Z" fill="white"/>
</svg>
