<svg width="65" height="37" viewBox="0 0 65 37" fill="none" xmlns="http://www.w3.org/2000/svg">
<path d="M39.706 20.848C39.706 16.784 33.818 18.352 33.818 15.84C33.818 14.768 34.634 14.256 35.69 14.288C36.842 14.32 37.498 15.008 37.562 15.76H39.578C39.418 13.856 37.914 12.736 35.786 12.736C33.514 12.736 31.962 13.952 31.962 15.904C31.962 20 37.866 18.256 37.866 20.944C37.866 21.888 37.146 22.576 35.866 22.576C34.602 22.576 33.962 21.84 33.882 20.928H31.93C31.93 22.896 33.642 24.112 35.866 24.112C38.346 24.112 39.706 22.512 39.706 20.848ZM42.1462 21.552C42.1462 23.344 43.1222 24 44.6902 24H46.1302V22.48H45.0102C44.2422 22.48 43.9862 22.208 43.9862 21.552V16.672H46.1302V15.184H43.9862V12.992H42.1462V15.184H41.1062V16.672H42.1462V21.552ZM47.2033 19.552C47.2033 22.272 49.0433 24.144 51.3313 24.144C52.8033 24.144 53.8593 23.44 54.4193 22.688V24H56.2593V15.184H54.4193V16.464C53.8753 15.744 52.8513 15.04 51.3633 15.04C49.0433 15.04 47.2033 16.832 47.2033 19.552ZM54.4193 19.584C54.4193 21.488 53.1233 22.56 51.7473 22.56C50.3873 22.56 49.0753 21.456 49.0753 19.552C49.0753 17.648 50.3873 16.624 51.7473 16.624C53.1233 16.624 54.4193 17.696 54.4193 19.584ZM60.4791 19.36C60.4791 17.488 61.3111 16.928 62.6551 16.928H63.1191V15.04C61.8711 15.04 60.9911 15.584 60.4791 16.464V15.184H58.6551V24H60.4791V19.36Z" fill="#564ECE"/>
<path d="M4.59883 26.3609C4.45021 26.3515 4.30505 26.3112 4.17232 26.2423C4.03958 26.1735 3.9221 26.0776 3.82711 25.9605C3.73213 25.8435 3.66168 25.7079 3.6201 25.5619C3.57852 25.416 3.5667 25.2629 3.58537 25.1122L4.33928 19.1588L0.297826 14.7947C0.163875 14.6494 0.0707146 14.47 0.0281205 14.2753C-0.0144737 14.0806 -0.00493123 13.8778 0.0557464 13.6882C0.116424 13.4985 0.226 13.329 0.372975 13.1975C0.51995 13.066 0.698907 12.9773 0.891065 12.9406L6.66281 11.8433L9.49307 6.57103C9.58745 6.39794 9.72543 6.25373 9.89275 6.15334C10.0601 6.05294 10.2506 6 10.4447 6C10.6388 6 10.8294 6.05294 10.9967 6.15334C11.164 6.25373 11.302 6.39794 11.3964 6.57103L14.2143 11.8433L19.9984 12.9406C20.1895 12.979 20.3671 13.0691 20.5125 13.2013C20.658 13.3336 20.766 13.5033 20.8253 13.6926C20.8846 13.882 20.8931 14.0841 20.8498 14.278C20.8066 14.4718 20.7131 14.6503 20.5793 14.7947L16.5502 19.1462L17.3041 25.1122C17.3292 25.31 17.3017 25.511 17.2244 25.6942C17.1472 25.8774 17.023 26.0361 16.865 26.1534C16.707 26.2708 16.521 26.3427 16.3264 26.3614C16.1319 26.3802 15.9359 26.3451 15.7592 26.26L10.4447 23.6869L5.13027 26.26C4.96425 26.3387 4.78147 26.3734 4.59883 26.3609ZM5.99542 23.3842L9.97508 21.4544C10.1217 21.3829 10.2822 21.3458 10.4447 21.3458C10.6073 21.3458 10.7677 21.3829 10.9144 21.4544L14.894 23.3842L14.3255 18.9192C14.3039 18.7558 14.3182 18.5895 14.3674 18.4324C14.4166 18.2754 14.4994 18.1314 14.6098 18.0111L17.6254 14.7443L13.3121 13.9244C13.1529 13.893 13.0027 13.8258 12.8723 13.7276C12.7418 13.6294 12.6345 13.5028 12.5582 13.3569L10.4447 9.40899L8.33131 13.3569C8.25495 13.5028 8.14764 13.6294 8.01721 13.7276C7.88679 13.8258 7.73653 13.893 7.5774 13.9244L3.25167 14.7443L6.27968 18.0111C6.3901 18.1314 6.4729 18.2754 6.52207 18.4324C6.57123 18.5895 6.58554 18.7558 6.56394 18.9192L5.99542 23.3842Z" fill="white"/>
</svg>
