<svg width="20" height="20" viewBox="0 0 20 20" fill="none" xmlns="http://www.w3.org/2000/svg">
<path d="M16.3184 2.82305C14.9809 1.47443 13.2773 0.556301 11.4229 0.184728C9.56845 -0.186845 7.64652 0.00481534 5.90002 0.735482C4.15351 1.46615 2.66084 2.70302 1.61067 4.28975C0.560508 5.87648 0 7.74183 0 9.65001C0 11.5582 0.560508 13.4235 1.61067 15.0103C2.66084 16.597 4.15351 17.8339 5.90002 18.5645C7.64652 19.2952 9.56845 19.4869 11.4229 19.1153C13.2773 18.7437 14.9809 17.8256 16.3184 16.477C18.109 14.6646 19.1146 12.2095 19.1146 9.65001C19.1146 7.09051 18.109 4.63544 16.3184 2.82305ZM15.2837 15.4326C14.1504 16.5757 12.7067 17.354 11.1351 17.6691C9.56362 17.9841 7.93482 17.8218 6.45467 17.2027C4.97451 16.5836 3.70945 15.5355 2.81942 14.1908C1.92939 12.8461 1.45435 11.2653 1.45435 9.64817C1.45435 8.03104 1.92939 6.45021 2.81942 5.10554C3.70945 3.76086 4.97451 2.71272 6.45467 2.0936C7.93482 1.47449 9.56362 1.31221 11.1351 1.62728C12.7067 1.94235 14.1504 2.72062 15.2837 3.8637C16.8017 5.3989 17.6543 7.47924 17.6543 9.64817C17.6543 11.8171 16.8017 13.8974 15.2837 15.4326Z" fill="#FF2121"/>
<path d="M9.65 5C9.47761 5 9.31228 5.05823 9.19038 5.16188C9.06848 5.26554 9 5.40612 9 5.5527V11.4473C9 11.5939 9.06848 11.7345 9.19038 11.8381C9.31228 11.9418 9.47761 12 9.65 12C9.82239 12 9.98772 11.9418 10.1096 11.8381C10.2315 11.7345 10.3 11.5939 10.3 11.4473V5.5527C10.3 5.40612 10.2315 5.26554 10.1096 5.16188C9.98772 5.05823 9.82239 5 9.65 5Z" fill="#FF2121"/>
<path d="M9.73125 14C9.58662 14 9.44524 14.0433 9.32499 14.1244C9.20474 14.2055 9.11101 14.3207 9.05566 14.4556C9.00032 14.5905 8.98584 14.7389 9.01405 14.882C9.04227 15.0252 9.11191 15.1567 9.21418 15.2599C9.31644 15.3631 9.44674 15.4334 9.58859 15.4619C9.73044 15.4904 9.87747 15.4758 10.0111 15.4199C10.1447 15.3641 10.2589 15.2695 10.3393 15.1481C10.4196 15.0267 10.4625 14.884 10.4625 14.7381C10.4625 14.5423 10.3855 14.3546 10.2483 14.2162C10.1112 14.0778 9.92519 14 9.73125 14Z" fill="#FF2121"/>
</svg>
