<svg width="20" height="12" viewBox="0 0 20 12" fill="none" xmlns="http://www.w3.org/2000/svg">
<path d="M9.89759 11.4175C10.0991 11.397 10.2898 11.3018 10.4423 11.1458L19.278 2.16878C19.3774 2.07382 19.4596 1.95632 19.5197 1.82327C19.5797 1.69022 19.6163 1.54432 19.6273 1.3943C19.6383 1.24428 19.6236 1.09318 19.5838 0.950016C19.5441 0.806848 19.4803 0.674542 19.3961 0.560964C19.312 0.447386 19.2092 0.354861 19.094 0.288909C18.9787 0.222957 18.8534 0.184919 18.7254 0.177066C18.5974 0.169213 18.4693 0.191716 18.3489 0.24321C18.2284 0.294702 18.118 0.374145 18.0243 0.476808L9.81549 8.81385L1.60673 0.476807C1.51296 0.374143 1.40256 0.294684 1.28211 0.243191C1.16165 0.191696 1.03361 0.169211 0.905602 0.177064C0.777596 0.184916 0.652243 0.222955 0.537013 0.288907C0.42178 0.354859 0.319024 0.447384 0.234866 0.560962C0.150708 0.67454 0.0868672 0.806846 0.0471466 0.950014C0.00742608 1.09318 -0.00736161 1.24428 0.00366286 1.3943C0.0146873 1.54432 0.0513027 1.69021 0.111323 1.82326C0.171344 1.95632 0.253541 2.07382 0.353026 2.16877L9.18864 11.1458C9.28526 11.2446 9.39782 11.3196 9.51961 11.3663C9.6414 11.4129 9.76995 11.4304 9.89759 11.4175Z" fill="#616161"/>
</svg>
