<svg width="20" height="12" viewBox="0 0 20 12" fill="none" xmlns="http://www.w3.org/2000/svg">
<path d="M9.73327 0.00386081C9.53177 0.0244226 9.34103 0.119587 9.18852 0.275649L0.352899 9.25342C0.253416 9.34838 0.171217 9.46589 0.111197 9.59896C0.0511776 9.73202 0.0145649 9.87792 0.00354002 10.028C-0.00748486 10.178 0.00730344 10.3291 0.0470241 10.4723C0.0867447 10.6155 0.150585 10.7478 0.234744 10.8614C0.318902 10.975 0.421657 11.0675 0.536889 11.1334C0.65212 11.1994 0.777472 11.2374 0.905478 11.2453C1.03348 11.2532 1.16153 11.2306 1.28198 11.1791C1.40243 11.1277 1.51283 11.0482 1.6066 10.9455L9.81537 2.60776L18.0241 10.9455C18.1179 11.0482 18.2283 11.1277 18.3488 11.1792C18.4692 11.2307 18.5972 11.2532 18.7253 11.2453C18.8533 11.2374 18.9786 11.1994 19.0938 11.1334C19.2091 11.0675 19.3118 10.975 19.396 10.8614C19.4802 10.7478 19.544 10.6155 19.5837 10.4723C19.6234 10.3291 19.6382 10.178 19.6272 10.028C19.6162 9.87792 19.5796 9.73202 19.5195 9.59896C19.4595 9.46589 19.3773 9.34838 19.2778 9.25342L10.4422 0.275649C10.3456 0.17681 10.233 0.101821 10.1112 0.0551293C9.98946 0.00843777 9.86091 -0.00900163 9.73327 0.00386081Z" fill="black"/>
</svg>
