<svg width="21" height="20" viewBox="0 0 21 20" fill="none" xmlns="http://www.w3.org/2000/svg">
    <path d="M7.97054 0H1.09358C0.504731 0 0 0.4837 0 1.09358V7.99157C0 8.58042 0.4837 9.08515 1.09358 9.08515H7.99157C8.58042 9.08515 9.08515 8.60145 9.08515 7.99157V1.07255C9.06412 0.4837 8.58042 0 7.97054 0ZM7.44478 7.42375H1.61934V1.61934H7.44478V7.42375Z" fill="#564ECE" />
    <path d="M18.8866 0H12.0096C11.4207 0 10.916 0.4837 10.916 1.09358V7.99157C10.916 8.58042 11.3997 9.08515 12.0096 9.08515H18.9076C19.4964 9.08515 20.0012 8.60145 20.0012 7.99157V1.07255C19.9801 0.4837 19.4964 0 18.8866 0Z" fill="#564ECE" />
    <path d="M7.97054 10.8945H1.09358C0.504731 10.8945 0 11.3782 0 11.9881V18.8861C0 19.475 0.4837 19.9797 1.09358 19.9797H7.99157C8.58042 19.9797 9.08515 19.496 9.08515 18.8861V11.9671C9.06412 11.3782 8.58042 10.8945 7.97054 10.8945ZM7.44478 18.3183H1.61934V12.5139H7.44478V18.3183Z" fill="#564ECE" />
    <path d="M18.8866 10.8955H12.0096C11.4207 10.8955 10.916 11.3792 10.916 11.9891V18.8871C10.916 19.4759 11.3997 19.9807 12.0096 19.9807H18.9076C19.4964 19.9807 20.0012 19.497 20.0012 18.8871V11.9681C19.9801 11.3792 19.4964 10.8955 18.8866 10.8955ZM18.3608 18.3193H12.5354V12.5149H18.3608V18.3193Z" fill="#564ECE" />
</svg>
    