<svg width="44" height="44" viewBox="0 0 44 44" fill="none" xmlns="http://www.w3.org/2000/svg">
<path d="M24.7877 2.83631L25.0077 3.00991L25.2706 2.9128L28.6016 1.68247L30.5732 4.63569L30.7288 4.86879L31.0088 4.85768L34.5569 4.71688L35.5194 8.13482L35.5954 8.4046L35.8652 8.48057L39.2831 9.44308L39.1423 12.9912L39.1312 13.2712L39.3643 13.4268L42.3175 15.3984L41.0872 18.7294L40.9901 18.9923L41.1637 19.2123L43.3631 22L41.1637 24.7877L40.9901 25.0077L41.0872 25.2706L42.3175 28.6016L39.3643 30.5732L39.1312 30.7288L39.1423 31.0088L39.2831 34.5569L35.8652 35.5194L35.5954 35.5954L35.5194 35.8652L34.5569 39.2831L31.0088 39.1423L30.7288 39.1312L30.5732 39.3643L28.6016 42.3175L25.2706 41.0872L25.0077 40.9901L24.7877 41.1637L22 43.3631L19.2123 41.1637L18.9923 40.9901L18.7294 41.0872L15.3984 42.3175L13.4268 39.3643L13.2712 39.1312L12.9912 39.1423L9.44308 39.2831L8.48057 35.8652L8.4046 35.5954L8.13482 35.5194L4.71688 34.5569L4.85768 31.0088L4.86879 30.7288L4.63569 30.5732L1.68247 28.6016L2.9128 25.2706L3.00991 25.0077L2.83631 24.7877L0.636884 22L2.83631 19.2123L3.00991 18.9923L2.9128 18.7294L1.68247 15.3984L4.63569 13.4268L4.86879 13.2712L4.85768 12.9912L4.71688 9.44308L8.13482 8.48057L8.4046 8.4046L8.48057 8.13482L9.44308 4.71688L12.9912 4.85768L13.2712 4.86879L13.4268 4.63569L15.3984 1.68247L18.7294 2.9128L18.9923 3.00991L19.2123 2.83631L22 0.636884L24.7877 2.83631Z" stroke="url(#paint0_linear)"/>
<path d="M21.3085 11.4063C21.722 11.1123 22.2764 11.1123 22.6899 11.4063C23.2489 11.8037 23.9616 11.9165 24.616 11.7113C25.1001 11.5595 25.6273 11.7308 25.9298 12.1382C26.3386 12.6889 26.9815 13.0165 27.6673 13.0235C28.1747 13.0288 28.6232 13.3546 28.7849 13.8355C29.0036 14.4856 29.5138 14.9958 30.1638 15.2144C30.6448 15.3762 30.9706 15.8247 30.9758 16.3321C30.9829 17.0178 31.3105 17.6608 31.8611 18.0696C32.2685 18.372 32.4398 18.8992 32.288 19.3834C32.0828 20.0378 32.1957 20.7505 32.5931 21.3094C32.8871 21.723 32.8871 22.2773 32.5931 22.6909C32.1957 23.2498 32.0828 23.9626 32.288 24.6169C32.4398 25.1011 32.2685 25.6283 31.8611 25.9308C31.3105 26.3396 30.9829 26.9825 30.9758 27.6683C30.9706 28.1757 30.6448 28.6241 30.1638 28.7859C29.5138 29.0045 29.0036 29.5148 28.7849 30.1648C28.6232 30.6457 28.1747 30.9716 27.6673 30.9768C26.9815 30.9839 26.3386 31.3115 25.9298 31.8621C25.6273 32.2695 25.1001 32.4408 24.616 32.289C23.9616 32.0838 23.2489 32.1967 22.6899 32.5941C22.2764 32.8881 21.722 32.8881 21.3085 32.5941C20.7495 32.1967 20.0368 32.0838 19.3824 32.289C18.8983 32.4408 18.371 32.2695 18.0686 31.8621C17.6598 31.3115 17.0168 30.9839 16.3311 30.9768C15.8237 30.9716 15.3752 30.6457 15.2135 30.1648C14.9948 29.5148 14.4846 29.0045 13.8346 28.7859C13.3536 28.6241 13.0278 28.1757 13.0226 27.6683C13.0155 26.9825 12.6879 26.3396 12.1373 25.9308C11.7298 25.6283 11.5585 25.1011 11.7104 24.6169C11.9156 23.9626 11.8027 23.2499 11.4053 22.6909C11.1113 22.2773 11.1113 21.723 11.4053 21.3094C11.8027 20.7505 11.9156 20.0378 11.7104 19.3834C11.5585 18.8992 11.7298 18.372 12.1373 18.0696C12.6879 17.6608 13.0155 17.0178 13.0226 16.3321C13.0278 15.8247 13.3536 15.3762 13.8346 15.2144C14.4846 14.9958 14.9948 14.4856 15.2135 13.8355C15.3752 13.3546 15.8237 13.0288 16.3311 13.0235C17.0168 13.0165 17.6598 12.6889 18.0686 12.1382C18.371 11.7308 18.8983 11.5595 19.3824 11.7113C20.0368 11.9165 20.7495 11.8037 21.3085 11.4063Z" stroke="url(#paint1_linear)"/>
<path d="M17.5644 6.00586L17.6342 6.21538L16.9009 6.45983L17.739 8.90427L17.4596 9.00903L16.6215 6.56459L15.8882 6.82649L15.8184 6.59951L17.5644 6.00586Z" fill="white"/>
<path d="M19.3977 8.36395C19.2231 8.2941 19.066 8.18934 18.9612 8.0322C18.839 7.87506 18.7692 7.68299 18.7343 7.45601C18.6993 7.22902 18.7168 7.0195 18.7866 6.8449C18.8565 6.67029 18.9612 6.51315 19.1184 6.39093C19.2755 6.26871 19.4501 6.19887 19.6422 6.16394C19.8343 6.12902 20.0438 6.14648 20.2184 6.21633C20.393 6.28617 20.5501 6.39093 20.6724 6.54807C20.7946 6.70521 20.8644 6.89728 20.8993 7.12426C20.9343 7.35125 20.9168 7.54331 20.847 7.73537C20.7771 7.92744 20.6724 8.06712 20.5152 8.18934C20.3581 8.31156 20.1835 8.38141 19.9739 8.41633C19.7644 8.43379 19.5724 8.41633 19.3977 8.36395ZM20.3057 8.01474C20.4104 7.92744 20.4977 7.82268 20.5501 7.68299C20.6025 7.54331 20.62 7.36871 20.5851 7.17664C20.5501 6.98458 20.4977 6.82744 20.393 6.70521C20.2882 6.58299 20.2184 6.49569 20.0787 6.46077C19.939 6.40839 19.8168 6.40839 19.6597 6.42585C19.52 6.44331 19.3977 6.49569 19.2755 6.58299C19.1708 6.67029 19.0835 6.77506 19.0311 6.91474C18.9787 7.05442 18.9612 7.22902 18.9962 7.42109C19.0311 7.61315 19.0835 7.77029 19.1708 7.89252C19.2581 8.01474 19.3803 8.10204 19.5025 8.13696C19.6247 8.18934 19.7644 8.18934 19.9041 8.17188C20.0787 8.13696 20.2009 8.08458 20.3057 8.01474Z" fill="white"/>
<path d="M22.8728 8.24146L21.9998 7.22876L21.9649 8.20654H21.6855L21.7379 5.23828H22.0173L21.9998 7.00177L22.9078 6.04146H23.3094L22.2443 7.10654L23.2744 8.224L22.8728 8.24146Z" fill="white"/>
<path d="M25.8754 7.68331L24.0944 7.33411C24.077 7.49125 24.077 7.64839 24.1294 7.77061C24.1817 7.89284 24.2516 7.9976 24.3563 8.0849C24.4611 8.1722 24.5833 8.22458 24.723 8.24204C24.8976 8.27696 25.0547 8.2595 25.1944 8.18966C25.3341 8.11982 25.4389 8.03252 25.5087 7.89284L25.8055 7.94522C25.7182 8.13728 25.5611 8.29442 25.369 8.39919C25.177 8.50395 24.95 8.52141 24.6881 8.46903C24.4786 8.43411 24.3214 8.3468 24.1643 8.22458C24.0246 8.10236 23.9198 7.94522 23.8674 7.77061C23.8151 7.57855 23.7976 7.38649 23.85 7.1595C23.8849 6.93252 23.9722 6.74046 24.0944 6.60077C24.2167 6.44363 24.3738 6.33887 24.5484 6.28649C24.723 6.23411 24.9151 6.21665 25.1246 6.25157C25.3341 6.28649 25.5087 6.37379 25.6309 6.49601C25.7706 6.61823 25.8579 6.75792 25.9103 6.93252C25.9627 7.10712 25.9801 7.28172 25.9452 7.45633C25.9103 7.57855 25.8928 7.64839 25.8754 7.68331ZM25.6309 6.9849C25.5786 6.86268 25.5087 6.75792 25.404 6.67061C25.2992 6.58331 25.177 6.53093 25.0373 6.51347C24.8278 6.47855 24.6532 6.51347 24.4786 6.61823C24.304 6.72299 24.1992 6.8976 24.1294 7.12458L25.6484 7.42141C25.6833 7.2468 25.6659 7.10712 25.6309 6.9849Z" fill="white"/>
<path d="M28.5822 7.61274C28.6695 7.82227 28.6695 8.06671 28.5473 8.36354L28.0759 9.55084L27.814 9.44608L28.2854 8.27624C28.3727 8.04925 28.3902 7.85719 28.3203 7.70005C28.2505 7.5429 28.1283 7.42068 27.9362 7.35084C27.7441 7.281 27.5521 7.26354 27.3949 7.35084C27.2203 7.42068 27.0981 7.59528 26.9933 7.82227L26.5568 8.93973L26.2949 8.83497L27.1156 6.80957L27.3775 6.91433L27.2378 7.26354C27.36 7.15878 27.4822 7.1064 27.6394 7.08894C27.779 7.07148 27.9362 7.08894 28.0933 7.15878C28.3203 7.24608 28.4949 7.40322 28.5822 7.61274Z" fill="white"/>
<path d="M30.205 10.7377C30.1352 10.5631 30.1177 10.3885 30.1352 10.179C30.1701 9.98691 30.2574 9.79485 30.3971 9.62024C30.5368 9.44564 30.6939 9.32342 30.886 9.23612C31.0781 9.14882 31.2527 9.13136 31.4447 9.16628C31.6368 9.2012 31.8114 9.27104 31.9685 9.41072C32.1257 9.53294 32.2479 9.69009 32.3177 9.86469C32.3876 10.0393 32.4225 10.2314 32.3876 10.4234C32.3527 10.6155 32.2654 10.8075 32.1257 10.9821C31.986 11.1568 31.8289 11.279 31.6368 11.3663C31.4622 11.4361 31.2701 11.471 31.0781 11.4361C30.886 11.4012 30.7114 11.3314 30.5543 11.1917C30.3971 11.052 30.2749 10.9123 30.205 10.7377ZM31.0781 11.1568C31.2177 11.1742 31.3574 11.1568 31.4971 11.1044C31.6368 11.052 31.7765 10.9472 31.8812 10.7901C32.0035 10.6329 32.0733 10.4933 32.0908 10.3361C32.1082 10.179 32.0908 10.0393 32.0384 9.91707C31.986 9.79485 31.8987 9.67263 31.7765 9.58532C31.6543 9.49802 31.532 9.44564 31.3923 9.41072C31.2527 9.39326 31.113 9.41072 30.9733 9.4631C30.8336 9.51548 30.7114 9.62024 30.5892 9.77739C30.4669 9.93453 30.3971 10.0742 30.3796 10.2314C30.3622 10.3885 30.3796 10.5107 30.432 10.6504C30.4844 10.7726 30.5717 10.8774 30.6939 10.9821C30.8162 11.0869 30.9384 11.1393 31.0781 11.1568Z" fill="white"/>
<path d="M33.9086 11.6112L33.5594 11.2446L32.1276 12.589L31.9355 12.3795L33.3673 11.035L33.1578 10.8081L33.3324 10.6509L33.5419 10.8779L33.6467 10.7731C33.8213 10.616 33.9959 10.5287 34.153 10.5461C34.3102 10.5636 34.5022 10.6684 34.6768 10.8604L34.5022 11.0176C34.38 10.8779 34.2578 10.8081 34.1705 10.8081C34.0657 10.8081 33.9609 10.8604 33.8387 10.9652L33.734 11.07L34.0832 11.4366L33.9086 11.6112Z" fill="white"/>
<path d="M35.4601 13.7415L34.3077 14.4574C34.1855 14.5272 34.1331 14.5971 34.1157 14.6669C34.0982 14.7367 34.1331 14.824 34.1855 14.9288L34.3252 15.1558L34.1157 15.278L33.9585 15.0161C33.8538 14.8415 33.8189 14.7018 33.8363 14.5621C33.8538 14.4225 33.976 14.3177 34.1506 14.1955L35.303 13.4796L35.1458 13.2177L35.3554 13.0955L35.5125 13.3574L35.9839 13.0605L36.1411 13.305L35.6697 13.6018L35.9839 14.1082L35.7744 14.2304L35.4601 13.7415Z" fill="white"/>
<path d="M36.9634 16.3431C36.9459 16.5002 36.8935 16.6224 36.7888 16.7621C36.684 16.8843 36.5443 16.9891 36.3523 17.0764L35.165 17.5827L35.0602 17.3208L36.2126 16.832C36.4396 16.7447 36.5793 16.6224 36.6491 16.4478C36.7189 16.2907 36.7189 16.1161 36.6316 15.924C36.5443 15.732 36.4221 15.5923 36.2475 15.5399C36.0729 15.47 35.8634 15.4875 35.6364 15.5923L34.5364 16.0637L34.4316 15.8018L37.1729 14.6494L37.2777 14.9113L36.2126 15.3653C36.3523 15.3827 36.492 15.4351 36.6142 15.5224C36.7364 15.6272 36.8237 15.7494 36.8935 15.9066C36.9459 16.0462 36.9634 16.2034 36.9634 16.3431Z" fill="white"/>
<path d="M36.7525 20.0088L36.3859 18.2279C36.2287 18.2628 36.089 18.3326 36.0017 18.4374C35.897 18.5247 35.8271 18.6469 35.7922 18.7691C35.7573 18.8914 35.7573 19.031 35.7748 19.1707C35.8097 19.3453 35.8795 19.485 36.0017 19.5898C36.1065 19.6945 36.2462 19.7469 36.4033 19.7644L36.4557 20.0612C36.2287 20.0612 36.0367 19.9739 35.8795 19.8342C35.7049 19.6945 35.6002 19.485 35.5478 19.2231C35.5129 19.0136 35.5129 18.839 35.5652 18.6469C35.6176 18.4723 35.7224 18.3152 35.8795 18.1929C36.0192 18.0707 36.2113 17.9834 36.4383 17.931C36.6652 17.8787 36.8573 17.8961 37.0494 17.9485C37.2414 18.0009 37.3986 18.1056 37.5208 18.2453C37.643 18.385 37.7303 18.5596 37.7652 18.7691C37.8002 18.9787 37.8002 19.1533 37.7478 19.3279C37.6954 19.5025 37.5906 19.6422 37.4684 19.7644C37.3287 19.8866 37.1716 19.9564 36.997 19.9914C36.8748 19.9914 36.8049 19.9914 36.7525 20.0088ZM37.3113 19.5025C37.416 19.4152 37.4684 19.3104 37.5033 19.1707C37.5383 19.0485 37.5383 18.9088 37.5033 18.7691C37.4684 18.5596 37.3636 18.4025 37.189 18.2802C37.0319 18.158 36.8224 18.1231 36.5779 18.158L36.8922 19.6596C37.0668 19.6596 37.2065 19.5898 37.3113 19.5025Z" fill="white"/>
<path d="M35.7227 24.2182L35.7401 23.9388L38.2195 22.5769L35.8623 22.3848L35.8798 22.1055L38.6734 22.3325L38.656 22.6118L36.1766 23.9737L38.5338 24.1658L38.5163 24.4452L35.7227 24.2182Z" fill="white"/>
<path d="M35.1654 26.3829L36.475 26.0337L36.6146 25.5274L35.4797 25.2131L35.5496 24.9512L38.2559 25.7194L38.0289 26.5226C37.9416 26.8194 37.8019 27.0289 37.6273 27.1512C37.4527 27.2734 37.2257 27.2909 36.9988 27.221C36.8067 27.1686 36.6496 27.0639 36.5448 26.9067C36.44 26.7496 36.3877 26.5575 36.4226 26.3305L35.0781 26.6972L35.1654 26.3829ZM36.8416 25.5972L36.6845 26.1385C36.6321 26.348 36.6321 26.5226 36.7019 26.6623C36.7718 26.802 36.894 26.8893 37.0686 26.9416C37.2432 26.994 37.4003 26.9766 37.5226 26.9067C37.6448 26.8369 37.7496 26.6797 37.8019 26.4528L37.9591 25.9115L36.8416 25.5972Z" fill="white"/>
<path d="M35.6012 30.1899C35.8107 30.2074 35.9853 30.155 36.1599 30.0677C36.3345 29.9629 36.4742 29.8232 36.5615 29.6312C36.6663 29.4391 36.7012 29.2645 36.7012 29.0724C36.7012 28.8804 36.6314 28.7058 36.5266 28.5312C36.4218 28.3566 36.2472 28.2169 36.0377 28.1121C35.8282 28.0074 35.6187 27.955 35.4266 27.955C35.2171 27.955 35.0425 28.0074 34.8853 28.1121C34.7282 28.2169 34.5885 28.3566 34.5012 28.5486C34.4139 28.7232 34.3615 28.8978 34.3615 29.0724C34.3615 29.2471 34.4139 29.4217 34.5012 29.5788C34.5885 29.7359 34.7282 29.8756 34.9028 29.9804L35.4441 28.9328L35.6536 29.0375L34.9726 30.3471L34.798 30.2598C34.5885 30.1375 34.4139 29.9629 34.2917 29.7709C34.1694 29.5788 34.0996 29.3518 34.0996 29.1248C34.0996 28.8978 34.152 28.6709 34.2568 28.4439C34.379 28.2169 34.5361 28.0248 34.7456 27.9026C34.9552 27.7629 35.1821 27.7105 35.4266 27.6931C35.671 27.6756 35.9155 27.7455 36.1599 27.8677C36.4044 27.9899 36.5964 28.1645 36.7361 28.374C36.8758 28.5836 36.9456 28.8105 36.9631 29.055C36.9806 29.2994 36.9107 29.5439 36.7885 29.7709C36.6488 30.0328 36.4568 30.2423 36.2298 30.3645C36.0028 30.4867 35.7234 30.5391 35.4441 30.5042L35.6012 30.1899Z" fill="white"/>
<path d="M34.2569 33.3315L33.5061 31.5505L32.668 30.8521L32.8426 30.6426L33.6807 31.341L35.5838 31.7251L35.3743 31.9696L33.7854 31.6204L34.4489 33.1045L34.2569 33.3315Z" fill="white"/>
<path d="M30.9206 35.8805C30.6761 35.9154 30.4491 35.8805 30.2221 35.7758C30.0126 35.671 29.8206 35.4964 29.646 35.2519C29.4888 35.0075 29.3841 34.7805 29.3666 34.5361C29.3491 34.2916 29.4015 34.0646 29.5063 33.8551C29.6285 33.6456 29.8206 33.4361 30.065 33.2615L30.746 32.79L32.3348 35.0948L31.6539 35.5662C31.4269 35.7408 31.165 35.8456 30.9206 35.8805ZM29.6634 34.2043C29.611 34.4837 29.6809 34.7805 29.8904 35.0773C30.0999 35.3742 30.3444 35.5662 30.6412 35.6186C30.9206 35.671 31.2348 35.5837 31.5491 35.3742L32.0031 35.0599L30.6761 33.1392L30.2221 33.4535C29.8904 33.6631 29.7158 33.925 29.6634 34.2043Z" fill="white"/>
<path d="M26.8699 36.056L28.5461 35.3401C28.4763 35.183 28.389 35.0782 28.2668 34.9909C28.162 34.9036 28.0398 34.8687 27.9001 34.8512C27.7604 34.8338 27.6382 34.8687 27.516 34.9211C27.3414 34.9909 27.2191 35.0957 27.1493 35.2179C27.062 35.3401 27.0445 35.4973 27.062 35.6369L26.7826 35.7592C26.7477 35.5496 26.7826 35.3401 26.8874 35.1481C26.9922 34.956 27.1668 34.7989 27.4112 34.7116C27.6033 34.6242 27.7953 34.6068 27.9699 34.6242C28.162 34.6417 28.3191 34.7115 28.4763 34.8338C28.6334 34.956 28.7556 35.1131 28.8429 35.3227C28.9302 35.5322 28.9652 35.7417 28.9477 35.9338C28.9302 36.1258 28.8604 36.3004 28.7556 36.4401C28.6334 36.5798 28.4937 36.702 28.3017 36.7893C28.1096 36.8766 27.9175 36.8941 27.7429 36.8766C27.5683 36.8592 27.4112 36.7893 27.2715 36.6846C27.1318 36.5798 27.0271 36.4401 26.9572 36.2655C26.9048 36.1782 26.8699 36.1084 26.8699 36.056ZM27.4636 36.51C27.5683 36.5973 27.6906 36.6322 27.8302 36.6496C27.9699 36.6496 28.0922 36.6322 28.2144 36.5798C28.4064 36.4925 28.5461 36.3703 28.6334 36.1782C28.7207 36.0036 28.7207 35.7941 28.6334 35.5671L27.2191 36.1782C27.2715 36.3179 27.3588 36.4227 27.4636 36.51Z" fill="white"/>
<path d="M25.0204 38.3953L24.968 38.1683L26.1728 37.8889L25.9284 36.8762L24.9157 37.1207L24.8633 36.8937L25.876 36.6492L25.5792 35.3921L25.8585 35.3223L26.5046 38.0635L25.0204 38.3953Z" fill="white"/>
<path d="M23.7288 37.9411L23.4844 35.7586L23.7637 35.7236L24.0082 37.9062L23.7288 37.9411ZM24.0606 38.3776C24.1129 38.4125 24.1304 38.4649 24.1304 38.5173C24.1304 38.5697 24.1304 38.622 24.0955 38.6744C24.0606 38.7093 24.0082 38.7443 23.9558 38.7443C23.9034 38.7443 23.851 38.7443 23.7987 38.7093C23.7463 38.6744 23.7288 38.622 23.7288 38.5697C23.7288 38.5173 23.7288 38.4649 23.7637 38.4125C23.7987 38.3601 23.851 38.3427 23.9034 38.3427C23.9733 38.3252 24.0082 38.3427 24.0606 38.3776Z" fill="white"/>
<path d="M19.625 38.4829L19.6425 38.256L20.8821 38.3782L20.9869 37.3306L19.9393 37.2258L19.9567 36.9988L21.0044 37.1036L21.1266 35.8115L21.406 35.8464L21.144 38.6401L19.625 38.4829Z" fill="white"/>
<path d="M18.7339 38.151C18.7688 38.2034 18.7688 38.2558 18.7688 38.3082C18.7688 38.3606 18.7339 38.4129 18.6815 38.4304C18.6291 38.4653 18.5767 38.4653 18.5243 38.4653C18.4719 38.4653 18.4196 38.4304 18.4021 38.378C18.3672 38.3256 18.3672 38.2733 18.3672 38.2209C18.3846 38.1685 18.4021 38.1161 18.4545 38.0812C18.5069 38.0463 18.5593 38.0463 18.6116 38.0463C18.6466 38.0812 18.6989 38.1161 18.7339 38.151ZM18.5418 37.6447L18.9958 35.4971L19.2751 35.5495L18.8212 37.6971L18.5418 37.6447Z" fill="white"/>
<path d="M15.9926 36.6323C15.8879 36.4228 15.8879 36.1783 15.9926 35.8815L16.4291 34.6768L16.691 34.7641L16.272 35.9339C16.1847 36.1609 16.1847 36.3529 16.2545 36.5101C16.3244 36.6672 16.4466 36.7895 16.6561 36.8593C16.8482 36.9291 17.0403 36.9291 17.1974 36.8418C17.3545 36.7545 17.4942 36.5974 17.5815 36.3529L17.9831 35.2355L18.245 35.3228L17.4942 37.3831L17.2323 37.2958L17.3545 36.9466C17.2498 37.0514 17.1101 37.1037 16.9704 37.1387C16.8307 37.1561 16.6736 37.1387 16.5164 37.0863C16.2545 36.9815 16.0799 36.8418 15.9926 36.6323Z" fill="white"/>
<path d="M14.8926 35.8113C14.7354 35.916 14.5608 35.951 14.3688 35.951C14.1767 35.951 14.0021 35.8986 13.8275 35.7938C13.6529 35.6891 13.5132 35.5494 13.4434 35.3922C13.3561 35.2351 13.3386 35.0779 13.3561 34.9033L13.1116 35.3224L12.8672 35.1827L14.0021 33.3145L14.2466 33.4541L14.0021 33.8732C14.1418 33.7859 14.2989 33.7335 14.4735 33.7335C14.6481 33.7335 14.8402 33.7859 15.0148 33.8906C15.1894 33.9954 15.3116 34.1351 15.3989 34.2922C15.4862 34.4494 15.5212 34.6414 15.5037 34.8335C15.4862 35.0256 15.4339 35.2176 15.3116 35.4097C15.1894 35.5668 15.0497 35.7065 14.8926 35.8113ZM13.5307 34.816C13.5307 34.9732 13.5481 35.1129 13.618 35.2351C13.6878 35.3573 13.7926 35.4621 13.9148 35.5494C14.0545 35.6367 14.1767 35.6716 14.3339 35.6716C14.4735 35.6716 14.6132 35.6367 14.7354 35.5668C14.8577 35.497 14.9799 35.3748 15.0672 35.2176C15.1545 35.0605 15.2069 34.9033 15.2243 34.7637C15.2418 34.6065 15.2069 34.4668 15.137 34.3446C15.0672 34.2224 14.9624 34.1176 14.8402 34.0303C14.718 33.9605 14.5783 33.9081 14.4386 33.9081C14.2989 33.9081 14.1593 33.943 14.0196 34.0129C13.8799 34.0827 13.7751 34.2049 13.6878 34.3621C13.5831 34.5192 13.5307 34.6764 13.5307 34.816Z" fill="white"/>
<path d="M10.8417 33.157C10.8243 32.93 10.929 32.703 11.1385 32.4761L12.0116 31.5332L12.2211 31.7253L11.3655 32.6507C11.2084 32.8253 11.1211 32.9999 11.1211 33.1745C11.1211 33.3491 11.2084 33.5062 11.3481 33.6459C11.5052 33.7856 11.6798 33.8554 11.8544 33.838C12.029 33.8205 12.2211 33.7157 12.3957 33.5237L13.1989 32.6507L13.4084 32.8427L11.9243 34.4491L11.7147 34.257L11.9592 33.9776C11.8195 34.03 11.6798 34.03 11.5227 33.9951C11.383 33.9602 11.2433 33.8903 11.1211 33.7681C10.9465 33.5935 10.8417 33.4015 10.8417 33.157Z" fill="white"/>
<path d="M10.1441 31.9874C9.95203 32.0223 9.77743 31.9874 9.60283 31.9176C9.42822 31.8477 9.28854 31.7255 9.16632 31.5509C9.00918 31.3414 8.92188 31.1144 8.92188 30.8874C8.92188 30.6604 9.00918 30.4683 9.16632 30.2937L9.34092 30.5382C9.23616 30.6604 9.18378 30.8001 9.18378 30.9572C9.18378 31.1144 9.23616 31.2541 9.35838 31.4112C9.44568 31.5334 9.55045 31.6207 9.67267 31.6731C9.79489 31.7255 9.93457 31.743 10.0743 31.7255C10.2139 31.708 10.3711 31.6382 10.5282 31.516C10.6854 31.3937 10.7901 31.2715 10.86 31.1493C10.9298 31.0096 10.9473 30.8874 10.9298 30.7477C10.9124 30.608 10.86 30.4858 10.7727 30.3636C10.6679 30.2239 10.5282 30.1191 10.3885 30.0668C10.2489 30.0144 10.0917 30.0318 9.93457 30.1017L9.75997 29.8572C9.96949 29.7699 10.179 29.7525 10.406 29.8049C10.6155 29.8572 10.8076 29.9969 10.9647 30.2239C11.087 30.381 11.1568 30.5557 11.1743 30.7477C11.1917 30.9398 11.1743 31.1144 11.087 31.289C10.9997 31.4636 10.8774 31.6207 10.6854 31.7604C10.5282 31.8652 10.3362 31.9525 10.1441 31.9874Z" fill="white"/>
<path d="M7.71774 30.1185C7.70028 30.1709 7.66536 30.2233 7.61298 30.2408C7.5606 30.2757 7.50822 30.2757 7.45584 30.2582C7.40346 30.2408 7.36854 30.2058 7.33362 30.1535C7.2987 30.1011 7.2987 30.0487 7.31616 29.9963C7.33362 29.9439 7.36854 29.909 7.42092 29.8741C7.4733 29.8392 7.52568 29.8392 7.57806 29.8566C7.63044 29.8741 7.66536 29.909 7.70028 29.9614C7.71774 30.0138 7.71774 30.0662 7.71774 30.1185ZM7.97965 29.6471L9.90028 28.582L10.04 28.8265L8.11933 29.8916L7.97965 29.6471Z" fill="white"/>
<path d="M7.92742 28.4956C7.73535 28.4782 7.57821 28.4083 7.42107 28.2861C7.28139 28.1639 7.17662 28.0242 7.10678 27.8321C7.03694 27.6401 7.01948 27.448 7.0544 27.2734C7.08932 27.0988 7.15916 26.9591 7.28139 26.8369L6.82742 27.0115L6.72266 26.7496L8.76551 25.9639L8.87028 26.2258L8.41631 26.4004C8.57345 26.4178 8.73059 26.4702 8.88774 26.575C9.02742 26.6797 9.14964 26.8369 9.21948 27.0289C9.28932 27.221 9.30678 27.3956 9.27186 27.5877C9.23694 27.7623 9.1671 27.9369 9.02742 28.0766C8.9052 28.2162 8.73059 28.3385 8.52107 28.4083C8.32901 28.4956 8.11948 28.5131 7.92742 28.4956ZM7.45599 26.8893C7.35123 27.0115 7.29885 27.1337 7.26393 27.2734C7.24647 27.4131 7.26393 27.5528 7.31631 27.6924C7.36869 27.8321 7.45599 27.9543 7.56075 28.0416C7.66551 28.1289 7.8052 28.1813 7.94488 28.1988C8.10202 28.2162 8.25916 28.1988 8.41631 28.1289C8.59091 28.0591 8.71313 27.9718 8.81789 27.867C8.92266 27.7448 8.97504 27.6226 9.00996 27.4829C9.02742 27.3432 9.00996 27.2036 8.95758 27.0464C8.9052 26.9067 8.81789 26.7845 8.71313 26.6972C8.60837 26.6099 8.46869 26.5575 8.31155 26.5401C8.1544 26.5226 7.99726 26.5401 7.84012 26.6099C7.70043 26.6797 7.56075 26.767 7.45599 26.8893Z" fill="white"/>
<path d="M5.65625 25.562L8.55466 24.916L8.6245 25.1954L5.70863 25.8414L5.65625 25.562Z" fill="white"/>
<path d="M8.1883 22.5238C8.11846 22.6635 8.03116 22.7857 7.92639 22.8555C7.82163 22.9254 7.68195 22.9777 7.54227 22.9952V22.6984C7.68195 22.6809 7.80417 22.6285 7.89147 22.5063C7.99624 22.4016 8.04862 22.2444 8.03116 22.0349C8.03116 21.8428 7.97878 21.7031 7.87401 21.5809C7.76925 21.4762 7.64703 21.4238 7.50735 21.4238C7.38513 21.4238 7.29782 21.4587 7.21052 21.5285C7.12322 21.5984 7.0883 21.6682 7.05338 21.7555C7.01846 21.8428 6.98354 21.965 6.94862 22.1397C6.89624 22.3317 6.86132 22.4714 6.80893 22.5936C6.75655 22.6984 6.68671 22.8031 6.58195 22.873C6.47719 22.9603 6.33751 22.9952 6.1629 22.9952C6.02322 22.9952 5.88354 22.9603 5.77878 22.8904C5.65655 22.8206 5.56925 22.7158 5.49941 22.5762C5.44703 22.4365 5.41211 22.2793 5.41211 22.1047C5.41211 21.8428 5.46449 21.6333 5.58671 21.4762C5.70893 21.319 5.86608 21.2143 6.0756 21.1968V21.4936C5.95338 21.5111 5.86608 21.5809 5.77878 21.6857C5.69147 21.7904 5.65655 21.9476 5.65655 22.1222C5.65655 22.2968 5.70893 22.4365 5.79624 22.5412C5.88354 22.646 6.00576 22.6984 6.1629 22.6984C6.28513 22.6984 6.37243 22.6635 6.44227 22.5936C6.51211 22.5238 6.56449 22.4539 6.59941 22.3666C6.63433 22.2793 6.66925 22.1397 6.72163 21.9825C6.77401 21.8079 6.80893 21.6508 6.86132 21.546C6.9137 21.4412 6.98354 21.3365 7.0883 21.2492C7.19306 21.1619 7.33274 21.127 7.48989 21.127C7.62957 21.127 7.75179 21.1619 7.85655 21.2317C7.96132 21.3016 8.06608 21.4063 8.15338 21.5285C8.22322 21.6682 8.25814 21.8254 8.2756 22.0174C8.2756 22.2095 8.25814 22.3841 8.1883 22.5238Z" fill="white"/>
<path d="M6.46053 18.2988L9.42879 20.1147L9.37641 20.4115L8.41609 19.8179L6.11133 20.3417L6.16371 20.0449L8.13673 19.6258L6.40815 18.5957L6.46053 18.2988Z" fill="white"/>
<path d="M8.67777 18.0018C8.52063 18.1066 8.32857 18.1415 8.1365 18.1066L8.2238 17.8272C8.34603 17.8621 8.45079 17.8272 8.55555 17.7574C8.66031 17.6875 8.74761 17.5653 8.79999 17.4082C8.85237 17.2685 8.85237 17.1462 8.81745 17.0415C8.78253 16.9367 8.71269 16.8669 8.60793 16.832C8.53809 16.8145 8.46825 16.8145 8.41587 16.832C8.34603 16.8669 8.29364 16.9018 8.24126 16.9716C8.18888 17.024 8.1365 17.1113 8.06666 17.2335C7.97936 17.3732 7.89206 17.478 7.82222 17.5653C7.75237 17.6526 7.66507 17.705 7.56031 17.7399C7.45555 17.7748 7.33333 17.7748 7.2111 17.7224C7.10634 17.6875 7.01904 17.6177 6.96666 17.5304C6.89682 17.4431 6.8619 17.3383 6.84444 17.1986C6.82698 17.0764 6.84444 16.9367 6.89682 16.797C6.96666 16.5701 7.08888 16.4129 7.24603 16.3082C7.40317 16.2034 7.57777 16.1859 7.7873 16.2558L7.69999 16.5177C7.57777 16.4828 7.45555 16.5002 7.35079 16.5526C7.24603 16.6224 7.15872 16.7272 7.10634 16.8669C7.05396 17.0066 7.05396 17.1288 7.08888 17.2335C7.1238 17.3383 7.19364 17.4082 7.28095 17.4431C7.36825 17.478 7.43809 17.4605 7.50793 17.4431C7.57777 17.4082 7.63015 17.3558 7.69999 17.3034C7.75237 17.2335 7.82222 17.1462 7.89206 17.0415C7.97936 16.9018 8.06666 16.797 8.1365 16.7272C8.20634 16.6574 8.29364 16.5875 8.38095 16.5526C8.46825 16.5177 8.59047 16.5177 8.71269 16.5526C8.81745 16.5875 8.90476 16.6574 8.9746 16.7447C9.04444 16.832 9.07936 16.9367 9.09682 17.0764C9.11428 17.1986 9.09682 17.3383 9.04444 17.478C8.9746 17.7224 8.85238 17.897 8.67777 18.0018Z" fill="white"/>
<path d="M7.97884 14.9281L9.20106 15.5393C9.32328 15.5916 9.41058 15.6266 9.48043 15.5916C9.55027 15.5567 9.62011 15.5043 9.67249 15.3821L9.79471 15.1551L10.0042 15.2599L9.86455 15.5393C9.77725 15.7139 9.67249 15.8186 9.53281 15.871C9.41058 15.9234 9.25344 15.8885 9.06138 15.8012L7.83916 15.19L7.69947 15.4694L7.50741 15.3472L7.64709 15.0678L7.1582 14.8234L7.28043 14.5615L7.76931 14.8059L8.04868 14.2646L8.2582 14.3694L7.97884 14.9281Z" fill="white"/>
<path d="M10.6327 12.5717L9.56766 14.0558C9.70734 14.1431 9.84702 14.1955 9.98671 14.2129C10.1264 14.2304 10.2486 14.1955 10.3708 14.1431C10.4931 14.0907 10.5804 14.0034 10.6677 13.8812C10.7724 13.7415 10.8248 13.5844 10.8248 13.4272C10.8248 13.2701 10.7724 13.1304 10.6851 13.0256L10.8597 12.7812C10.9994 12.9558 11.0867 13.1479 11.0867 13.3574C11.0867 13.5844 11.0169 13.7939 10.8597 14.0209C10.7375 14.1955 10.5978 14.3177 10.4232 14.3875C10.2486 14.4574 10.074 14.4923 9.88194 14.4748C9.68988 14.4574 9.49782 14.3701 9.32321 14.2479C9.14861 14.1256 9.00893 13.9685 8.92163 13.7939C8.83433 13.6193 8.7994 13.4447 8.81687 13.2526C8.83433 13.0606 8.90417 12.886 9.02639 12.7113C9.14861 12.5367 9.28829 12.4145 9.4629 12.3447C9.6375 12.2748 9.79464 12.2399 9.96925 12.2574C10.1438 12.2748 10.301 12.3447 10.4581 12.4494C10.528 12.4844 10.5978 12.5367 10.6327 12.5717ZM9.88194 12.5018C9.74226 12.4844 9.62004 12.5193 9.51528 12.5717C9.39306 12.6415 9.30575 12.7288 9.21845 12.8336C9.09623 13.0082 9.04385 13.1828 9.07877 13.3923C9.09623 13.5844 9.20099 13.759 9.39306 13.9161L10.2835 12.659C10.1613 12.5542 10.0216 12.5018 9.88194 12.5018Z" fill="white"/>
<path d="M12.955 9.02705C13.182 9.04451 13.3915 9.16673 13.601 9.41118L14.4391 10.389L14.2296 10.5636L13.409 9.60324C13.2518 9.42864 13.0947 9.32388 12.9201 9.30642C12.7455 9.28896 12.5883 9.34134 12.4486 9.46356C12.2915 9.60324 12.2042 9.76038 12.2042 9.93499C12.2042 10.1096 12.274 10.3017 12.4486 10.5112L13.2169 11.4191L13.0074 11.5937L12.1867 10.6509C12.0296 10.4763 11.8724 10.3715 11.6978 10.354C11.5232 10.3366 11.3661 10.389 11.209 10.5112C11.0518 10.6509 10.9645 10.808 10.9645 10.9826C10.9645 11.1572 11.0344 11.3493 11.209 11.5588L11.9772 12.4667L11.7677 12.6413L10.3359 10.9651L10.5455 10.7905L10.7899 11.0699C10.755 10.9128 10.755 10.7731 10.8074 10.6334C10.8597 10.4937 10.947 10.3715 11.0693 10.2667C11.209 10.1445 11.3661 10.0747 11.5407 10.0397C11.7153 10.0048 11.8724 10.0572 12.0296 10.1445C11.9597 9.96991 11.9597 9.81277 11.9947 9.63816C12.047 9.48102 12.1343 9.34134 12.274 9.21911C12.5185 9.07943 12.728 9.00959 12.955 9.02705Z" fill="white"/>
<defs>
<linearGradient id="paint0_linear" x1="-2.35349" y1="-28.1286" x2="75.0772" y2="34.4792" gradientUnits="userSpaceOnUse">
<stop offset="0.236043" stop-color="white"/>
<stop offset="0.489583" stop-color="white"/>
<stop offset="0.789876" stop-color="white"/>
</linearGradient>
<linearGradient id="paint1_linear" x1="9.04932" y1="-4.6555" x2="50.2228" y2="28.636" gradientUnits="userSpaceOnUse">
<stop offset="0.236043" stop-color="white"/>
<stop offset="0.489583" stop-color="white"/>
<stop offset="0.789876" stop-color="white"/>
</linearGradient>
</defs>
</svg>
