<svg width="24" height="24" viewBox="0 0 24 24" fill="none" xmlns="http://www.w3.org/2000/svg">
    <path fill-rule="evenodd" clip-rule="evenodd" d="M18.9575 19.6364C17.7692 19.6364 16.8033 20.6138 16.8033 21.8182C16.8033 23.0225 17.7692 24 18.9575 24C20.1467 24 21.1118 23.0225 21.1118 21.8182C21.1118 20.6138 20.1467 19.6364 18.9575 19.6364ZM7.75537 19.6364C6.56708 19.6364 5.60111 20.6138 5.60111 21.8182C5.60111 23.0225 6.56708 24 7.75537 24C8.94452 24 9.90963 23.0225 9.90963 21.8182C9.90963 20.6138 8.94452 19.6364 7.75537 19.6364ZM5.89753 15.7091H20.9403C21.7098 15.7091 22.3656 15.1462 22.4922 14.3782C22.7843 12.604 23.6417 7.39293 23.9787 5.3464C24.0545 4.88385 23.9261 4.41171 23.6271 4.05476C23.3281 3.69695 22.8895 3.49099 22.4267 3.49099H5.26246L5.22885 2.84342C5.1737 1.78132 4.43953 0.878922 3.42014 0.620596C2.41108 0.36576 1.07113 0.0262707 1.07113 0.0262707C0.61012 -0.0906743 0.141354 0.193834 0.0258854 0.660741C-0.0895829 1.12852 0.192194 1.60241 0.653206 1.71936L3.00221 2.31455C3.28743 2.38612 3.49252 2.63833 3.50803 2.93593L4.23445 16.9231C4.3008 18.199 5.3426 19.2 6.60499 19.2H20.2501C20.7257 19.2 21.1118 18.809 21.1118 18.3273C21.1118 17.8456 20.7257 17.4546 20.2501 17.4546H6.60499C6.25945 17.4546 5.97423 17.1805 5.95613 16.8314L5.89753 15.7091Z" fill="#ABABAB" />
</svg>
    