<svg width="53" height="53" viewBox="0 0 53 53" fill="none" xmlns="http://www.w3.org/2000/svg">
<path d="M44.6317 7.65001C40.9735 3.99546 36.314 1.50749 31.2421 0.500583C26.1702 -0.506321 20.9136 0.0130488 16.1368 1.99304C11.3601 3.97303 7.27752 7.32476 4.40527 11.6245C1.53302 15.9243 0 20.9791 0 26.15C0 31.3209 1.53302 36.3757 4.40527 40.6755C7.27752 44.9753 11.3601 48.327 16.1368 50.307C20.9136 52.287 26.1702 52.8063 31.2421 51.7994C36.314 50.7925 40.9735 48.3046 44.6317 44.65C49.5291 39.7387 52.2793 33.0859 52.2793 26.15C52.2793 19.2142 49.5291 12.5613 44.6317 7.65001ZM41.8017 41.82C38.7019 44.9176 34.7534 47.0266 30.4552 47.8804C26.157 48.7341 21.7021 48.2944 17.6538 46.6167C13.6055 44.939 10.1455 42.0987 7.71126 38.4548C5.27698 34.811 3.97771 30.5272 3.97771 26.145C3.97771 21.7628 5.27698 17.4791 7.71126 13.8352C10.1455 10.1913 13.6055 7.35103 17.6538 5.67333C21.7021 3.99564 26.157 3.55589 30.4552 4.40967C34.7534 5.26345 38.7019 7.37244 41.8017 10.47C45.9535 14.6302 48.2853 20.2675 48.2853 26.145C48.2853 32.0225 45.9535 37.6599 41.8017 41.82Z" fill="white"/>
<path d="M26.1318 17.1499C25.6014 17.1499 25.0927 17.3606 24.7176 17.7357C24.3426 18.1108 24.1318 18.6195 24.1318 19.1499V40.4799C24.1318 41.0103 24.3426 41.519 24.7176 41.8941C25.0927 42.2692 25.6014 42.4799 26.1318 42.4799C26.6623 42.4799 27.171 42.2692 27.5461 41.8941C27.9211 41.519 28.1318 41.0103 28.1318 40.4799V19.1499C28.1318 18.6195 27.9211 18.1108 27.5461 17.7357C27.171 17.3606 26.6623 17.1499 26.1318 17.1499Z" fill="white"/>
<path d="M26.1318 9.57007C25.7363 9.57007 25.3496 9.68737 25.0207 9.90713C24.6918 10.1269 24.4355 10.4392 24.2841 10.8047C24.1327 11.1702 24.0931 11.5723 24.1703 11.9602C24.2474 12.3482 24.4379 12.7046 24.7176 12.9843C24.9973 13.264 25.3537 13.4545 25.7417 13.5316C26.1296 13.6088 26.5318 13.5692 26.8972 13.4178C27.2627 13.2665 27.575 13.0101 27.7948 12.6812C28.0145 12.3523 28.1318 11.9656 28.1318 11.5701C28.1318 11.0396 27.9211 10.5309 27.5461 10.1559C27.171 9.78078 26.6623 9.57007 26.1318 9.57007Z" fill="white"/>
</svg>
