<svg width="18" height="18" viewBox="0 0 18 18" fill="none" xmlns="http://www.w3.org/2000/svg">
<path d="M9 8.02093L6.028 5.04893C5.75763 4.77856 5.31929 4.77856 5.04893 5.04893C4.77856 5.31929 4.77856 5.75763 5.04893 6.028L8.02093 9L5.04893 11.972C4.77856 12.2424 4.77856 12.6807 5.04893 12.9511C5.31929 13.2214 5.75763 13.2214 6.028 12.9511L9 9.97907L11.972 12.9511C12.2424 13.2214 12.6807 13.2214 12.9511 12.9511C13.2214 12.6807 13.2214 12.2424 12.9511 11.972L9.97907 9L12.9511 6.028C13.2214 5.75763 13.2214 5.31929 12.9511 5.04893C12.6807 4.77856 12.2424 4.77856 11.972 5.04893L9 8.02093ZM9 18C4.02944 18 0 13.9706 0 9C0 4.02944 4.02944 0 9 0C13.9706 0 18 4.02944 18 9C18 13.9706 13.9706 18 9 18Z" fill="white" fill-opacity="0.44"/>
</svg>
