<svg width="27" height="28" viewBox="0 0 27 28" fill="none" xmlns="http://www.w3.org/2000/svg">
<path d="M24.3 10.88C25.7912 10.88 27 12.0978 27 13.6V24.48C27 25.9822 25.7912 27.2 24.3 27.2H2.7C1.20883 27.2 0 25.9822 0 24.48V13.6C0 12.0978 1.20883 10.88 2.7 10.88H24.3ZM24.3 13.6H2.7V24.48H24.3V13.6ZM21.6 5.44C22.3456 5.44 22.95 6.04889 22.95 6.8C22.95 7.49746 22.4288 8.07229 21.7574 8.15085L21.6 8.16H5.4C4.65442 8.16 4.05 7.55111 4.05 6.8C4.05 6.10254 4.57117 5.52771 5.24258 5.44915L5.4 5.44H21.6ZM18.9 0C19.6456 0 20.25 0.608892 20.25 1.36C20.25 2.05746 19.7288 2.63229 19.0574 2.71085L18.9 2.72H8.1C7.35442 2.72 6.75 2.11111 6.75 1.36C6.75 0.662543 7.27117 0.087712 7.94258 0.00915161L8.1 0H18.9Z" fill="#827AFF"/>
</svg>
