<svg width="21" height="20" viewBox="0 0 21 20" fill="none" xmlns="http://www.w3.org/2000/svg">
    <path d="M7.97054 0H1.09358C0.504731 0 0 0.4837 0 1.09358V7.99157C0 8.58042 0.4837 9.08515 1.09358 9.08515H7.99157C8.58042 9.08515 9.08515 8.60145 9.08515 7.99157V1.07255C9.06412 0.4837 8.58042 0 7.97054 0ZM7.44478 7.42375H1.61934V1.61934H7.44478V7.42375Z" fill="#453F9E"/>
    <path d="M18.8866 0H12.0096C11.4207 0 10.916 0.4837 10.916 1.09358V7.99157C10.916 8.58042 11.3997 9.08515 12.0096 9.08515H18.9076C19.4964 9.08515 20.0012 8.60145 20.0012 7.99157V1.07255C19.9801 0.4837 19.4964 0 18.8866 0Z" fill="#453F9E"/>
    <path d="M7.97054 10.8943H1.09358C0.504731 10.8943 0 11.378 0 11.9879V18.8859C0 19.4747 0.4837 19.9794 1.09358 19.9794H7.99157C8.58042 19.9794 9.08515 19.4957 9.08515 18.8859V11.9668C9.06412 11.378 8.58042 10.8943 7.97054 10.8943ZM7.44478 18.318H1.61934V12.5136H7.44478V18.318Z" fill="#453F9E"/>
    <path d="M18.8866 10.8953H12.0096C11.4207 10.8953 10.916 11.379 10.916 11.9888V18.8868C10.916 19.4757 11.3997 19.9804 12.0096 19.9804H18.9076C19.4964 19.9804 20.0012 19.4967 20.0012 18.8868V11.9678C19.9801 11.379 19.4964 10.8953 18.8866 10.8953ZM18.3608 18.319H12.5354V12.5146H18.3608V18.319Z" fill="#453F9E"/>
    </svg>
    