<svg width="21" height="22" viewBox="0 0 21 22" fill="none" xmlns="http://www.w3.org/2000/svg">
<g opacity="0.27">
<path d="M2.06653 2.7959C0.935794 2.7959 -2.75e-08 3.74871 0 4.9V18.8986C0 20.0499 0.935794 21.0014 2.06653 21.0014H15.8138C16.9446 21.0014 17.8804 20.0499 17.8804 18.8986V4.9C17.8804 3.74871 16.9446 2.7959 15.8138 2.7959H2.06653Z" fill="white"/>
<path d="M3.37006 0.000935091C3.19684 0.0219056 3.03792 0.109121 2.9255 0.24493C2.81308 0.380738 2.75556 0.554979 2.7646 0.732354C2.77363 0.909728 2.84854 1.077 2.97415 1.20024C3.09977 1.32348 3.26669 1.3935 3.44111 1.39611H18.5648C18.9575 1.39611 19.255 1.69898 19.255 2.09887V17.4975C19.247 17.594 19.2587 17.6912 19.2895 17.7829C19.3203 17.8746 19.3695 17.9588 19.4339 18.0301C19.4983 18.1015 19.5765 18.1584 19.6637 18.1973C19.7508 18.2363 19.8449 18.2564 19.9401 18.2564C20.0353 18.2564 20.1294 18.2363 20.2165 18.1973C20.3037 18.1584 20.3819 18.1015 20.4463 18.0301C20.5107 17.9588 20.5599 17.8746 20.5907 17.7829C20.6215 17.6912 20.6332 17.594 20.6252 17.4975V2.09887C20.6252 0.947579 19.6955 0.000935091 18.5648 0.000935091H3.44111C3.41744 -0.000311697 3.39373 -0.000311697 3.37006 0.000935091H3.37006Z" fill="white"/>
</g>
</svg>
