<svg width="22" height="21" viewBox="0 0 22 21" fill="none" xmlns="http://www.w3.org/2000/svg">
    <path d="M14.8704 2.55371H6.24429L0.132812 8.66519L10.5574 20.6001L20.9819 8.66519L14.8704 2.55371ZM8.61882 8.19029L10.5574 4.42219L12.4959 8.19029H8.61882ZM12.6828 9.12453L10.5262 16.8554L8.43197 9.12453H12.6828ZM7.46659 9.12453L9.50634 16.6685L2.91996 9.12453H7.46659ZM13.6481 9.12453H18.1948L11.515 16.7775L13.6481 9.12453ZM17.9768 8.19029H13.9128L14.4812 4.69468L17.9768 8.19029ZM13.5936 4.34434L13.1109 7.3339L11.5695 4.34434H13.5936ZM8.01156 7.3339L7.52887 4.34434H9.55305L8.01156 7.3339ZM6.63356 4.69468L7.20189 8.19029H3.13795L6.63356 4.69468Z" fill="#564ECE" />
    <path d="M21.689 2.29667C20.6847 1.82177 19.8673 1.00431 19.3924 0C18.9175 1.00431 18.1078 1.81398 17.0957 2.29667C18.1 2.77158 18.9175 3.58903 19.3924 4.59334C19.8751 3.58125 20.6847 2.77158 21.689 2.29667Z" fill="#564ECE" />
    <path d="M3.86152 18.3341C3.01292 17.9292 2.32781 17.2519 1.93076 16.4033C1.52592 17.2519 0.8486 17.937 0 18.3341C0.8486 18.7389 1.53371 19.4162 1.93076 20.2648C2.3356 19.4162 3.01292 18.7389 3.86152 18.3341Z" fill="#564ECE" />
    <path d="M19.4793 15.6722C18.9109 15.3998 18.4516 14.9482 18.1869 14.3799C17.9144 14.9482 17.4629 15.4075 16.8945 15.6722C17.4629 15.9447 17.9222 16.3963 18.1869 16.9646C18.4594 16.3963 18.9109 15.9447 19.4793 15.6722Z" fill="#564ECE" />
</svg>
    