<svg width="10" height="6" viewBox="0 0 10 6" fill="none" xmlns="http://www.w3.org/2000/svg">
<path d="M5.04182 5.99757C5.14447 5.9866 5.24163 5.93583 5.31932 5.85257L9.82023 1.06319C9.87091 1.01253 9.91278 0.949836 9.94336 0.87885C9.97393 0.807864 9.99258 0.73003 9.9982 0.64999C10.0038 0.569951 9.99628 0.489337 9.97605 0.412954C9.95581 0.336572 9.92329 0.265984 9.88042 0.205388C9.83755 0.144792 9.78521 0.0954282 9.72651 0.0602415C9.66781 0.0250548 9.60395 0.00476114 9.53875 0.000571487C9.47354 -0.00361817 9.40831 0.00838739 9.34695 0.0358601C9.28559 0.0633328 9.22936 0.105717 9.18159 0.160489L5 4.60846L0.818413 0.160489C0.770646 0.105716 0.714408 0.0633233 0.653049 0.0358502C0.591689 0.00837715 0.526464 -0.00361877 0.461257 0.000570703C0.39605 0.00476018 0.332194 0.025054 0.273494 0.0602407C0.214795 0.0954274 0.16245 0.144791 0.11958 0.205387C0.0767088 0.265983 0.044188 0.336571 0.0239542 0.412953C0.0037203 0.489336 -0.00381281 0.56995 0.00180351 0.649989C0.00741982 0.730029 0.0260714 0.807863 0.056646 0.878849C0.0872206 0.949835 0.129093 1.01253 0.179771 1.06319L4.68068 5.85257C4.7299 5.9053 4.78723 5.94531 4.84928 5.97021C4.91132 5.99512 4.9768 6.00443 5.04182 5.99757Z" fill="#817C7C"/>
</svg>
