<svg width="133" height="135" viewBox="0 0 133 135" fill="none" xmlns="http://www.w3.org/2000/svg">
    <path d="M113.544 19.6429C104.238 10.2591 92.3837 3.87076 79.4807 1.28534C66.5777 -1.30008 53.2048 0.0335053 41.0526 5.11752C28.9003 10.2015 18.5142 18.8077 11.2071 29.8483C3.90004 40.8888 0 53.868 0 67.1452C0 80.4224 3.90004 93.4016 11.2071 104.442C18.5142 115.483 28.9003 124.089 41.0526 129.173C53.2048 134.257 66.5777 135.59 79.4807 133.005C92.3837 130.42 104.238 124.031 113.544 114.647C126.003 102.037 133 84.9543 133 67.1452C133 49.3361 126.003 32.2536 113.544 19.6429ZM106.345 107.381C98.4587 115.335 88.4135 120.75 77.4788 122.942C66.5441 125.134 55.2108 124.005 44.9118 119.697C34.6129 115.39 25.8105 108.096 19.6177 98.7402C13.4248 89.3839 10.1194 78.3844 10.1194 67.1323C10.1194 55.8803 13.4248 44.8808 19.6177 35.5245C25.8105 26.1682 34.6129 18.8752 44.9118 14.5674C55.2108 10.2596 66.5441 9.13042 77.4788 11.3227C88.4135 13.5149 98.4587 18.9302 106.345 26.8838C116.907 37.5658 122.839 52.0408 122.839 67.1323C122.839 82.2239 116.907 96.6989 106.345 107.381Z" fill="#FF2121" />
    <path d="M67.1458 34.79C65.9463 34.79 64.7959 35.1952 63.9477 35.9164C63.0995 36.6376 62.623 37.6158 62.623 38.6358V79.6506C62.623 80.6705 63.0995 81.6487 63.9477 82.3699C64.7959 83.0911 65.9463 83.4963 67.1458 83.4963C68.3453 83.4963 69.4957 83.0911 70.3438 82.3699C71.192 81.6487 71.6685 80.6705 71.6685 79.6506V38.6358C71.6685 37.6158 71.192 36.6376 70.3438 35.9164C69.4957 35.1952 68.3453 34.79 67.1458 34.79Z" fill="#FF2121" />
    <path d="M67.7111 97.4126C66.7048 97.4126 65.7211 97.7138 64.8843 98.2781C64.0476 98.8423 63.3955 99.6444 63.0104 100.583C62.6253 101.521 62.5245 102.554 62.7208 103.55C62.9171 104.546 63.4017 105.461 64.1133 106.179C64.8249 106.897 65.7315 107.387 66.7185 107.585C67.7055 107.783 68.7285 107.681 69.6582 107.292C70.5879 106.904 71.3826 106.246 71.9417 105.401C72.5008 104.557 72.7992 103.564 72.7992 102.548C72.7992 101.186 72.2631 99.8798 71.3089 98.9167C70.3547 97.9536 69.0605 97.4126 67.7111 97.4126Z" fill="#FF2121" />
</svg>
    