<svg width="273" height="40" viewBox="0 0 273 40" fill="none" xmlns="http://www.w3.org/2000/svg">
    <path d="M31.0032 0H42.9106C44.3917 0 45.5925 1.18194 45.5925 2.63994V13.9247C45.5925 14.2315 45.0305 14.3319 44.9053 14.0509C43.4889 10.8711 39.6163 4.22399 30.8992 0.547975C30.624 0.431919 30.7038 0 31.0032 0Z" fill="white" />
    <path d="M2.68191 40H14.5893C14.8887 40 14.9685 39.5681 14.6933 39.452C5.97617 35.776 2.1036 29.1289 0.687132 25.9491C0.561972 25.6681 2.86502e-07 25.7685 2.86502e-07 26.0753V37.3601C2.86502e-07 38.8181 1.20073 40 2.68191 40Z" fill="white" />
    <path d="M13.9108 9.64709C5.89967 6.97918 2.94768 2.42932 2.47309 0.487884C-3.94344 11.5353 3.62794 18.681 8.21569 20.873C15.8725 24.1766 32.2302 31.3192 36.4067 33.461C40.6499 35.8838 41.9819 38.619 42.3324 39.3389C42.3896 39.4564 42.4207 39.5202 42.434 39.5202C48.8505 28.36 39.3808 20.7477 33.8438 18.3366C30.4742 16.8179 21.7701 12.9538 13.9108 9.64709Z" fill="white" />
    <path d="M239.604 39.5957L228.546 27.7768V39.5957H225.105V3.89777H228.546V25.0271L239.359 13.2564H244.175L231.446 26.3778L244.274 39.5957H239.604Z" fill="white" />
    <path d="M69.2213 39.9334C66.9604 39.9334 64.9617 39.5475 63.2251 38.7756C61.5212 38.0038 60.1778 36.9264 59.1948 35.5435C58.2118 34.1606 57.6875 32.6169 57.622 30.9124H61.2591C61.4229 32.5526 62.1602 33.9998 63.4708 35.2541C64.7815 36.4762 66.6983 37.0872 69.2213 37.0872C71.5477 37.0872 73.3827 36.5083 74.7261 35.3506C76.1023 34.1606 76.7904 32.6652 76.7904 30.8642C76.7904 29.417 76.4135 28.2592 75.6599 27.3909C74.9063 26.4904 73.9725 25.8311 72.8584 25.413C71.7443 24.9628 70.2043 24.4804 68.2383 23.9658C65.9447 23.3548 64.1261 22.7598 62.7827 22.1809C61.4393 21.602 60.2925 20.7015 59.3422 19.4794C58.392 18.2573 57.9169 16.6011 57.9169 14.5107C57.9169 12.774 58.3756 11.2303 59.2931 9.87958C60.2106 8.49669 61.5048 7.41932 63.1759 6.64747C64.847 5.87563 66.7638 5.4897 68.9264 5.4897C72.1048 5.4897 74.6605 6.26155 76.5938 7.80524C78.5597 9.31678 79.6902 11.2786 79.9851 13.6906H76.2497C76.0203 12.3077 75.2503 11.0856 73.9397 10.0243C72.629 8.93085 70.8596 8.38413 68.6315 8.38413C66.5672 8.38413 64.847 8.93085 63.4708 10.0243C62.0946 11.0856 61.4065 12.5489 61.4065 14.4142C61.4065 15.8292 61.7833 16.9709 62.537 17.8393C63.2906 18.7076 64.2244 19.3669 65.3385 19.8171C66.4853 20.2674 68.0253 20.7498 69.9586 21.2643C72.1867 21.8754 73.9888 22.4864 75.365 23.0975C76.7412 23.6764 77.9044 24.5768 78.8546 25.7989C79.8049 27.021 80.28 28.6612 80.28 30.7195C80.28 32.2953 79.854 33.7908 79.0021 35.2058C78.1502 36.6209 76.8887 37.7626 75.2176 38.6309C73.5465 39.4992 71.5477 39.9334 69.2213 39.9334Z" fill="white" />
    <path d="M89.5753 32.4561V16.1026H94.1392V13.2564H89.5753V7.69607H86.0857V32.4561C86.0857 34.9968 86.6755 36.8299 87.855 37.9555C89.0346 39.049 91.0625 39.5957 93.4872 39.5957L93.8022 36.7013C92.2294 36.7013 91.1317 36.3958 90.5091 35.7847C89.8866 35.1737 89.5753 34.0641 89.5753 32.4561Z" fill="white" />
    <path fill-rule="evenodd" clip-rule="evenodd" d="M99.8624 19.2865C98.7811 21.3126 98.2405 23.6764 98.2405 26.3778C98.2405 29.0793 98.7811 31.4592 99.8624 33.5174C100.976 35.5757 102.5 37.1676 104.433 38.2932C106.399 39.4188 108.595 39.9816 111.019 39.9816C113.575 39.9816 115.771 39.4027 117.605 38.245C119.473 37.055 120.833 35.5596 121.685 33.7586V39.5957H125.125V13.2564H121.685V19.0453C120.866 17.2443 119.522 15.7649 117.655 14.6072C115.82 13.4494 113.624 12.8705 111.069 12.8705C108.611 12.8705 106.399 13.4333 104.433 14.5589C102.5 15.6524 100.976 17.2282 99.8624 19.2865ZM120.358 20.8302C121.242 22.4382 121.685 24.3035 121.685 26.4261C121.685 28.5486 121.242 30.4139 120.358 32.022C119.473 33.63 118.261 34.8681 116.721 35.7365C115.213 36.6048 113.542 37.039 111.707 37.039C109.807 37.039 108.103 36.6209 106.596 35.7847C105.089 34.9164 103.893 33.6782 103.008 32.0702C102.156 30.43 101.73 28.5326 101.73 26.3778C101.73 24.1909 102.156 22.3095 103.008 20.7337C103.893 19.1257 105.089 17.9036 106.596 17.0674C108.103 16.2312 109.807 15.8132 111.707 15.8132C113.542 15.8132 115.213 16.2473 116.721 17.1157C118.261 17.984 119.473 19.2222 120.358 20.8302Z" fill="white" />
    <path d="M139.861 14.1247C138.321 15.0252 137.174 16.2956 136.42 17.9357V13.2564H132.98V39.5957H136.42V24.8824C136.42 21.795 137.174 19.592 138.681 18.2734C140.188 16.9549 142.187 16.2956 144.677 16.2956H145.611V12.774C143.35 12.774 141.433 13.2243 139.861 14.1247Z" fill="white" />
    <path d="M155.21 38.7756C156.947 39.5475 158.946 39.9334 161.206 39.9334C163.533 39.9334 165.532 39.4992 167.203 38.6309C168.874 37.7626 170.135 36.6209 170.987 35.2058C171.839 33.7908 172.265 32.2953 172.265 30.7195C172.265 28.6612 171.79 27.021 170.84 25.7989C169.89 24.5768 168.726 23.6764 167.35 23.0975C165.974 22.4864 164.172 21.8754 161.944 21.2643C160.011 20.7498 158.471 20.2674 157.324 19.8171C156.21 19.3669 155.276 18.7076 154.522 17.8393C153.769 16.9709 153.392 15.8292 153.392 14.4142C153.392 12.5489 154.08 11.0856 155.456 10.0243C156.832 8.93085 158.552 8.38413 160.617 8.38413C162.845 8.38413 164.614 8.93085 165.925 10.0243C167.236 11.0856 168.006 12.3077 168.235 13.6906H171.97C171.675 11.2786 170.545 9.31678 168.579 7.80524C166.646 6.26155 164.09 5.4897 160.912 5.4897C158.749 5.4897 156.832 5.87563 155.161 6.64747C153.49 7.41932 152.196 8.49669 151.278 9.87958C150.361 11.2303 149.902 12.774 149.902 14.5107C149.902 16.6011 150.377 18.2573 151.327 19.4794C152.278 20.7015 153.424 21.602 154.768 22.1809C156.111 22.7598 157.93 23.3548 160.223 23.9658C162.189 24.4804 163.729 24.9628 164.844 25.413C165.958 25.8311 166.891 26.4904 167.645 27.3909C168.399 28.2592 168.776 29.417 168.776 30.8642C168.776 32.6652 168.087 34.1606 166.711 35.3506C165.368 36.5083 163.533 37.0872 161.206 37.0872C158.683 37.0872 156.767 36.4762 155.456 35.2541C154.145 33.9998 153.408 32.5526 153.244 30.9124H149.607C149.673 32.6169 150.197 34.1606 151.18 35.5435C152.163 36.9264 153.506 38.0038 155.21 38.7756Z" fill="white" />
    <path d="M181.701 32.4561V16.1026H186.265V13.2564H181.701V7.80524H178.211V32.4561C178.211 34.9968 178.801 36.8299 179.981 37.9555C181.16 39.049 182.962 39.5957 185.387 39.5957H185.928V36.7013C184.355 36.7013 183.257 36.3958 182.635 35.7847C182.012 35.1737 181.701 34.0641 181.701 32.4561Z" fill="white" />
    <path fill-rule="evenodd" clip-rule="evenodd" d="M191.988 19.2865C190.907 21.3126 190.366 23.6764 190.366 26.3778C190.366 29.0793 190.907 31.4592 191.988 33.5174C193.102 35.5757 194.626 37.1676 196.559 38.2932C198.525 39.4188 200.72 39.9816 203.145 39.9816C205.701 39.9816 207.896 39.4027 209.731 38.245C211.599 37.055 212.959 35.5596 213.81 33.7586V39.5957H217.251V13.2564H213.81V19.0453C212.991 17.2443 211.648 15.7649 209.78 14.6072C207.945 13.4494 205.75 12.8705 203.194 12.8705C200.737 12.8705 198.525 13.4333 196.559 14.5589C194.626 15.6524 193.102 17.2282 191.988 19.2865ZM212.483 20.8302C213.368 22.4382 213.81 24.3035 213.81 26.4261C213.81 28.5486 213.368 30.4139 212.483 32.022C211.599 33.63 210.386 34.8681 208.846 35.7365C207.339 36.6048 205.668 37.039 203.833 37.039C201.933 37.039 200.229 36.6209 198.721 35.7847C197.214 34.9164 196.018 33.6782 195.134 32.0702C194.282 30.43 193.856 28.5326 193.856 26.3778C193.856 24.1909 194.282 22.3095 195.134 20.7337C196.018 19.1257 197.214 17.9036 198.721 17.0674C200.229 16.2312 201.933 15.8132 203.833 15.8132C205.668 15.8132 207.339 16.2473 208.846 17.1157C210.386 17.984 211.599 19.2222 212.483 20.8302Z" fill="white" />
    <path fill-rule="evenodd" clip-rule="evenodd" d="M273 25.0753C273 26.2331 272.967 27.1175 272.902 27.7286H250.637C250.735 29.7225 251.227 31.427 252.111 32.842C252.996 34.2571 254.159 35.3345 255.601 36.0742C257.043 36.7817 258.616 37.1354 260.319 37.1354C262.547 37.1354 264.415 36.6048 265.922 35.5435C267.462 34.4822 268.478 33.0511 268.97 31.2501H272.607C271.951 33.8229 270.543 35.9294 268.38 37.5696C266.25 39.1776 263.563 39.9816 260.319 39.9816C257.796 39.9816 255.535 39.4349 253.537 38.3415C251.538 37.2158 249.965 35.64 248.818 33.6139C247.704 31.5556 247.147 29.1597 247.147 26.4261C247.147 23.6924 247.704 21.2965 248.818 19.2382C249.932 17.18 251.489 15.6041 253.488 14.5107C255.486 13.4172 257.764 12.8705 260.319 12.8705C262.875 12.8705 265.103 13.4172 267.004 14.5107C268.937 15.6041 270.411 17.0835 271.427 18.9488C272.476 20.7819 273 22.8241 273 25.0753ZM269.51 24.9788C269.543 23.0171 269.134 21.3447 268.282 19.9618C267.462 18.5789 266.332 17.5337 264.89 16.8262C263.449 16.1187 261.876 15.7649 260.172 15.7649C257.616 15.7649 255.437 16.5689 253.635 18.1769C251.833 19.785 250.834 22.0523 250.637 24.9788H269.51Z" fill="white" />
</svg>
    