<svg width="24" height="25" viewBox="0 0 24 25" fill="none" xmlns="http://www.w3.org/2000/svg">
    <path d="M6.99805 0C3.13905 0 0 3.24498 0 7.23155V17.5595C0 21.545 3.14195 24.787 7.00195 24.787H17.002C20.861 24.787 24 21.542 24 17.5554V7.22752C24 3.24198 20.858 0 16.998 0H6.99805ZM19 4.13116C19.552 4.13116 20 4.59385 20 5.16396C20 5.73406 19.552 6.19675 19 6.19675C18.448 6.19675 18 5.73406 18 5.16396C18 4.59385 18.448 4.13116 19 4.13116ZM12 6.19675C15.309 6.19675 18 8.97599 18 12.3935C18 15.811 15.309 18.5902 12 18.5902C8.691 18.5902 6 15.811 6 12.3935C6 8.97599 8.691 6.19675 12 6.19675ZM12 8.26233C10.9391 8.26233 9.92172 8.69758 9.17157 9.47232C8.42143 10.2471 8 11.2978 8 12.3935C8 13.4891 8.42143 14.5399 9.17157 15.3147C9.92172 16.0894 10.9391 16.5247 12 16.5247C13.0609 16.5247 14.0783 16.0894 14.8284 15.3147C15.5786 14.5399 16 13.4891 16 12.3935C16 11.2978 15.5786 10.2471 14.8284 9.47232C14.0783 8.69758 13.0609 8.26233 12 8.26233Z" fill="white" />
</svg>
    