<svg width="53" height="54" viewBox="0 0 53 54" fill="none" xmlns="http://www.w3.org/2000/svg">
<path d="M44.4656 8.64933C40.8412 4.96595 36.2247 2.45835 31.1996 1.4435C26.1746 0.428649 20.9666 0.952117 16.2339 2.94773C11.5012 4.94334 7.45641 8.32151 4.61068 12.6552C1.76495 16.9889 0.246094 22.0836 0.246094 27.2953C0.246094 32.507 1.76495 37.6016 4.61068 41.9354C7.45641 46.2691 11.5012 49.6472 16.2339 51.6428C20.9666 53.6385 26.1746 54.1619 31.1996 53.1471C36.2247 52.1322 40.8412 49.6246 44.4656 45.9412C49.3178 40.9912 52.0426 34.2859 52.0426 27.2953C52.0426 20.3047 49.3178 13.5994 44.4656 8.64933ZM41.6617 43.0889C38.5906 46.2109 34.6785 48.3366 30.42 49.1971C26.1615 50.0576 21.7478 49.6144 17.7369 47.9234C13.726 46.2325 10.2979 43.3698 7.88614 39.6972C5.47434 36.0246 4.18707 31.707 4.18707 27.2902C4.18707 22.8735 5.47434 18.5559 7.88614 14.8833C10.2979 11.2107 13.726 8.34799 17.7369 6.65706C21.7478 4.96613 26.1615 4.5229 30.42 5.38342C34.6785 6.24395 38.5906 8.36957 41.6617 11.4916C45.7752 15.6846 48.0855 21.3664 48.0855 27.2902C48.0855 33.2141 45.7752 38.8959 41.6617 43.0889Z" fill="white"/>
<path d="M26.1378 18.2246C25.6123 18.2246 25.1082 18.437 24.7366 18.815C24.365 19.193 24.1562 19.7058 24.1562 20.2404V41.7386C24.1562 42.2732 24.365 42.786 24.7366 43.164C25.1082 43.542 25.6123 43.7544 26.1378 43.7544C26.6633 43.7544 27.1673 43.542 27.5389 43.164C27.9106 42.786 28.1193 42.2732 28.1193 41.7386V20.2404C28.1193 19.7058 27.9106 19.193 27.5389 18.815C27.1673 18.437 26.6633 18.2246 26.1378 18.2246Z" fill="white"/>
<path d="M26.1378 10.585C25.7459 10.585 25.3628 10.7032 25.0369 10.9247C24.711 11.1462 24.4571 11.461 24.3071 11.8293C24.1571 12.1976 24.1179 12.6029 24.1943 12.994C24.2708 13.385 24.4595 13.7441 24.7366 14.0261C25.0138 14.308 25.3668 14.4999 25.7512 14.5777C26.1356 14.6555 26.534 14.6156 26.8961 14.463C27.2582 14.3104 27.5676 14.0521 27.7854 13.7206C28.0031 13.3891 28.1193 12.9994 28.1193 12.6007C28.1193 12.0661 27.9106 11.5534 27.5389 11.1754C27.1673 10.7973 26.6633 10.585 26.1378 10.585Z" fill="white"/>
</svg>
