<svg width="18" height="17" viewBox="0 0 18 17" fill="none" xmlns="http://www.w3.org/2000/svg">
<path d="M17.289 5.45864C17.289 2.91159 15.177 0.838867 12.58 0.838867C10.955 0.838867 9.495 1.6366 8.641 2.91355C7.776 1.63562 6.298 0.838867 4.71 0.838867C2.113 0.838867 0 2.91159 0 5.45864C0 5.90357 0.063 6.34065 0.187 6.75814C0.588 8.89848 3.267 11.3681 5.858 13.7564C6.759 14.5865 7.61 15.3705 8.334 16.1124C8.458 16.2388 8.627 16.3074 8.799 16.3074C8.88 16.3074 8.961 16.2927 9.039 16.2623C9.177 16.2084 9.288 16.1104 9.358 15.9899C10.406 14.7403 11.621 13.5839 12.798 12.4638C14.988 10.3793 16.883 8.57508 17.112 6.72188C17.23 6.31517 17.289 5.89181 17.289 5.45864ZM15.861 6.41611C15.849 6.45433 15.842 6.49354 15.837 6.53274C15.69 7.94983 13.849 9.70209 11.901 11.5563C10.841 12.5657 9.749 13.6045 8.757 14.7296C8.137 14.121 7.454 13.4928 6.741 12.8352C4.403 10.6801 1.752 8.23796 1.45 6.5053C1.446 6.48079 1.44 6.45531 1.432 6.43081C1.337 6.12113 1.288 5.79381 1.288 5.45864C1.288 3.6074 2.823 2.10112 4.71 2.10112C6.034 2.10112 7.252 2.86357 7.815 4.04351C7.829 4.07389 7.846 4.10329 7.865 4.13073C7.962 4.27087 8.034 4.39925 8.092 4.53547C8.197 4.78047 8.444 4.93238 8.718 4.9216C8.989 4.90788 9.222 4.73049 9.302 4.47667C9.746 3.05663 11.063 2.1021 12.579 2.1021C14.465 2.1021 16 3.60838 16 5.45962C16.001 5.78891 15.954 6.11133 15.861 6.41611Z" fill="white"/>
</svg>
