<svg width="28" height="34" viewBox="0 0 28 34" fill="none" xmlns="http://www.w3.org/2000/svg">
<path d="M18.3435 17L26.7063 3.1792C27.1019 2.52138 27.1019 1.71408 26.6976 1.05832C26.2933 0.402555 25.555 0 24.7508 0H2.25062C1.45081 0 0.708095 0.402621 0.306045 1.05838C-0.096005 1.71414 -0.100435 2.52138 0.299435 3.17927L8.66008 17L0.299435 30.8208C-0.100505 31.4786 -0.0960753 32.2859 0.306045 32.9417C0.708165 33.5974 1.45081 34 2.25062 34H24.7508C25.555 34 26.2933 33.5974 26.6976 32.9416C27.1019 32.2859 27.1019 31.4786 26.7064 30.8207L18.3435 17ZM2.25062 31.875L11.2507 17L2.25062 2.125H24.7508L15.7507 17L24.7508 31.875H2.25062ZM13.5007 17.5645L20.8748 29.75H6.12881L13.5007 17.5645ZM13.5007 16.4355L9.98506 10.625H17.0164L13.5007 16.4355Z" fill="white"/>
</svg>
