<svg width="21" height="19" viewBox="0 0 21 19" fill="none" xmlns="http://www.w3.org/2000/svg">
    <path d="M19.7647 0H14.2801C14.1422 0 14.1055 0.205162 14.2322 0.260288C18.2474 2.00639 20.0311 5.16375 20.6835 6.67418C20.7412 6.80764 21 6.75998 21 6.61425V1.25397C21 0.561423 20.4469 0 19.7647 0Z" fill="white" />
    <path d="M6.71987 19H1.23529C0.553061 19 1.07127e-07 18.4386 1.07127e-07 17.746V12.3858C1.07127e-07 12.24 0.258846 12.1924 0.316495 12.3258C0.968924 13.8362 2.75264 16.9936 6.76776 18.7397C6.89452 18.7948 6.85777 19 6.71987 19Z" fill="white" />
    <path d="M1.13911 0.231745C1.35771 1.15393 2.7174 3.31511 6.40737 4.58237C10.0274 6.15305 14.0365 7.9885 15.5886 8.70988C18.1389 9.85517 22.5007 13.471 19.5452 18.7721C19.5391 18.7721 19.5248 18.7418 19.4984 18.686C19.337 18.344 18.7234 17.0448 16.769 15.894C14.8453 14.8766 7.31091 11.4839 3.78417 9.91467C1.67104 8.87349 -1.81636 5.47926 1.13911 0.231745Z" fill="white" />
</svg>
    