<svg width="151" height="22" viewBox="0 0 151 22" fill="none" xmlns="http://www.w3.org/2000/svg">
    <path d="M17.1483 0H23.7344C24.5537 0 25.2178 0.650069 25.2178 1.45197V7.6586C25.2178 7.82734 24.907 7.88253 24.8377 7.728C24.0543 5.97908 21.9123 2.32319 17.0908 0.301386C16.9385 0.237556 16.9827 0 17.1483 0Z" fill="white" />
    <path d="M1.4834 22H8.06954C8.23514 22 8.27927 21.7624 8.12705 21.6986C3.3055 19.6768 1.16353 16.0209 0.380062 14.272C0.310834 14.1175 1.58468e-07 14.1727 1.58468e-07 14.3414V20.548C1.58468e-07 21.3499 0.664142 22 1.4834 22Z" fill="white" />
    <path d="M7.69427 5.3059C3.26318 3.83855 1.6304 1.33613 1.3679 0.268336C-2.18117 6.34441 2.00666 10.2746 4.54421 11.4801C8.77929 13.2971 17.827 17.2255 20.137 18.4036C22.484 19.7361 23.2207 21.2405 23.4146 21.6364C23.4463 21.701 23.4635 21.7361 23.4708 21.7361C27.0199 15.598 21.782 11.4113 18.7195 10.0851C16.8557 9.24984 12.0414 7.12459 7.69427 5.3059Z" fill="white" />
    <path d="M132.528 21.7776L126.412 15.2772V21.7776H124.509V2.14377H126.412V13.7649L132.393 7.29103H135.057L128.016 14.5078L135.111 21.7776H132.528Z" fill="white" />
    <path d="M38.2872 21.9634C37.0367 21.9634 35.9312 21.7511 34.9706 21.3266C34.0282 20.9021 33.2851 20.3095 32.7414 19.5489C32.1977 18.7883 31.9078 17.9393 31.8715 17.0018H33.8832C33.9738 17.9039 34.3816 18.6999 35.1066 19.3897C35.8315 20.0619 36.8917 20.398 38.2872 20.398C39.574 20.398 40.5889 20.0796 41.332 19.4428C42.0932 18.7883 42.4738 17.9658 42.4738 16.9753C42.4738 16.1793 42.2654 15.5426 41.8485 15.065C41.4317 14.5697 40.9152 14.2071 40.299 13.9772C39.6828 13.7295 38.831 13.4642 37.7435 13.1812C36.4749 12.8451 35.469 12.5179 34.726 12.1995C33.9829 11.8811 33.3486 11.3858 32.823 10.7137C32.2974 10.0415 32.0346 9.1306 32.0346 7.98087C32.0346 7.02571 32.2884 6.17667 32.7958 5.43377C33.3033 4.67318 34.0191 4.08063 34.9435 3.65611C35.8677 3.23159 36.928 3.01934 38.1241 3.01934C39.8821 3.01934 41.2958 3.44385 42.365 4.29288C43.4525 5.12423 44.0777 6.20321 44.2408 7.52982H42.1747C42.0479 6.76923 41.622 6.09708 40.897 5.51337C40.1721 4.91197 39.1934 4.61127 37.961 4.61127C36.8192 4.61127 35.8678 4.91197 35.1066 5.51337C34.3454 6.09708 33.9648 6.90189 33.9648 7.9278C33.9648 8.70608 34.1732 9.33401 34.59 9.81159C35.0069 10.2892 35.5234 10.6518 36.1396 10.8994C36.7739 11.1471 37.6257 11.4124 38.695 11.6954C39.9274 12.0315 40.9242 12.3675 41.6854 12.7036C42.4466 13.022 43.09 13.5173 43.6156 14.1894C44.1411 14.8616 44.4039 15.7637 44.4039 16.8957C44.4039 17.7624 44.1683 18.5849 43.6971 19.3632C43.2259 20.1415 42.5282 20.7694 41.6039 21.247C40.6796 21.7246 39.574 21.9634 38.2872 21.9634Z" fill="white" />
    <path d="M49.5453 17.8509V8.85643H52.0697V7.29103H49.5453V4.23284H47.6151V17.8509C47.6151 19.2482 47.9414 20.2565 48.5938 20.8755C49.2463 21.4769 50.3679 21.7776 51.7091 21.7776L51.8832 20.1857C51.0133 20.1857 50.4062 20.0177 50.0618 19.6816C49.7175 19.3455 49.5453 18.7353 49.5453 17.8509Z" fill="white" />
    <path fill-rule="evenodd" clip-rule="evenodd" d="M55.2353 10.6076C54.6372 11.7219 54.3381 13.022 54.3381 14.5078C54.3381 15.9936 54.6372 17.3025 55.2353 18.4346C55.8515 19.5666 56.6942 20.4422 57.7635 21.0613C58.8509 21.6804 60.0652 21.9899 61.4063 21.9899C62.82 21.9899 64.0342 21.6715 65.0491 21.0347C66.0822 20.3803 66.8343 19.5578 67.3055 18.5672V21.7776H69.2085V7.29103H67.3055V10.4749C66.8524 9.48436 66.1094 8.67071 65.0763 8.03393C64.0614 7.39716 62.8471 7.07877 61.4335 7.07877C60.0742 7.07877 58.8509 7.38831 57.7635 8.0074C56.6942 8.6088 55.8515 9.47552 55.2353 10.6076ZM66.5715 11.4566C67.0609 12.341 67.3055 13.3669 67.3055 14.5343C67.3055 15.7018 67.0609 16.7277 66.5715 17.6121C66.0822 18.4965 65.4116 19.1775 64.5598 19.6551C63.7261 20.1326 62.8018 20.3714 61.7869 20.3714C60.7357 20.3714 59.7933 20.1415 58.9596 19.6816C58.126 19.204 57.4644 18.523 56.9751 17.6386C56.5039 16.7365 56.2683 15.6929 56.2683 14.5078C56.2683 13.305 56.5039 12.2703 56.9751 11.4035C57.4644 10.5191 58.126 9.84697 58.9596 9.38708C59.7933 8.92719 60.7357 8.69724 61.7869 8.69724C62.8018 8.69724 63.7261 8.93603 64.5598 9.41361C65.4116 9.89119 66.0822 10.5722 66.5715 11.4566Z" fill="white" />
    <path d="M77.3588 7.76861C76.507 8.26388 75.8727 8.96256 75.4558 9.86466V7.29103H73.5528V21.7776H75.4558V13.6853C75.4558 11.9872 75.8727 10.7756 76.7063 10.0504C77.54 9.32517 78.6456 8.96256 80.0229 8.96256H80.5395V7.02571C79.2889 7.02571 78.2287 7.27334 77.3588 7.76861Z" fill="white" />
    <path d="M85.8489 21.3266C86.8094 21.7511 87.915 21.9634 89.1655 21.9634C90.4523 21.9634 91.5578 21.7246 92.4821 21.247C93.4064 20.7694 94.1042 20.1415 94.5754 19.3632C95.0466 18.5849 95.2822 17.7624 95.2822 16.8957C95.2822 15.7637 95.0194 14.8616 94.4938 14.1894C93.9682 13.5173 93.3248 13.022 92.5637 12.7036C91.8025 12.3675 90.8057 12.0315 89.5733 11.6954C88.504 11.4124 87.6522 11.1471 87.0179 10.8994C86.4016 10.6518 85.8851 10.2892 85.4683 9.81159C85.0515 9.33401 84.843 8.70608 84.843 7.9278C84.843 6.90189 85.2236 6.09708 85.9848 5.51337C86.746 4.91197 87.6975 4.61127 88.8393 4.61127C90.0717 4.61127 91.0503 4.91197 91.7753 5.51337C92.5002 6.09708 92.9261 6.76923 93.053 7.52982H95.1191C94.956 6.20321 94.3307 5.12423 93.2433 4.29288C92.174 3.44385 90.7604 3.01934 89.0024 3.01934C87.8062 3.01934 86.746 3.23159 85.8217 3.65611C84.8974 4.08063 84.1815 4.67318 83.6741 5.43377C83.1666 6.17667 82.9129 7.02571 82.9129 7.98087C82.9129 9.1306 83.1757 10.0415 83.7012 10.7137C84.2268 11.3858 84.8612 11.8811 85.6042 12.1995C86.3473 12.5179 87.3531 12.8451 88.6218 13.1812C89.7092 13.4642 90.561 13.7295 91.1772 13.9772C91.7934 14.2071 92.3099 14.5697 92.7268 15.065C93.1436 15.5426 93.352 16.1793 93.352 16.9753C93.352 17.9658 92.9714 18.7883 92.2102 19.4428C91.4672 20.0796 90.4523 20.398 89.1655 20.398C87.77 20.398 86.7098 20.0619 85.9848 19.3897C85.2599 18.6999 84.8521 17.9039 84.7615 17.0018H82.7498C82.786 17.9393 83.076 18.7883 83.6197 19.5489C84.1634 20.3095 84.9065 20.9021 85.8489 21.3266Z" fill="white" />
    <path d="M100.501 17.8509V8.85643H103.026V7.29103H100.501V4.29288H98.5711V17.8509C98.5711 19.2482 98.8973 20.2565 99.5497 20.8755C100.202 21.4769 101.199 21.7776 102.54 21.7776H102.839V20.1857C101.969 20.1857 101.362 20.0177 101.018 19.6816C100.673 19.3455 100.501 18.7353 100.501 17.8509Z" fill="white" />
    <path fill-rule="evenodd" clip-rule="evenodd" d="M106.191 10.6076C105.593 11.7219 105.294 13.022 105.294 14.5078C105.294 15.9936 105.593 17.3025 106.191 18.4346C106.807 19.5666 107.65 20.4422 108.719 21.0613C109.807 21.6804 111.021 21.9899 112.362 21.9899C113.776 21.9899 114.99 21.6715 116.005 21.0347C117.038 20.3803 117.79 19.5578 118.261 18.5672V21.7776H120.164V7.29103H118.261V10.4749C117.808 9.48436 117.065 8.67071 116.032 8.03393C115.017 7.39716 113.803 7.07877 112.389 7.07877C111.03 7.07877 109.807 7.38831 108.719 8.0074C107.65 8.6088 106.807 9.47552 106.191 10.6076ZM117.527 11.4566C118.017 12.341 118.261 13.3669 118.261 14.5343C118.261 15.7018 118.017 16.7277 117.527 17.6121C117.038 18.4965 116.368 19.1775 115.516 19.6551C114.682 20.1326 113.758 20.3714 112.743 20.3714C111.692 20.3714 110.749 20.1415 109.916 19.6816C109.082 19.204 108.42 18.523 107.931 17.6386C107.46 16.7365 107.224 15.6929 107.224 14.5078C107.224 13.305 107.46 12.2703 107.931 11.4035C108.42 10.5191 109.082 9.84697 109.916 9.38708C110.749 8.92719 111.692 8.69724 112.743 8.69724C113.758 8.69724 114.682 8.93603 115.516 9.41361C116.368 9.89119 117.038 10.5722 117.527 11.4566Z" fill="white" />
    <path fill-rule="evenodd" clip-rule="evenodd" d="M151 13.7914C151 14.4282 150.982 14.9146 150.946 15.2507H138.631C138.685 16.3474 138.957 17.2848 139.446 18.0631C139.936 18.8414 140.579 19.434 141.376 19.8408C142.174 20.2299 143.044 20.4245 143.986 20.4245C145.219 20.4245 146.252 20.1326 147.085 19.5489C147.937 18.9652 148.499 18.1781 148.771 17.1876H150.783C150.42 18.6026 149.641 19.7612 148.445 20.6633C147.267 21.5477 145.78 21.9899 143.986 21.9899C142.591 21.9899 141.34 21.6892 140.235 21.0878C139.129 20.4687 138.259 19.602 137.625 18.4876C137.009 17.3556 136.701 16.0378 136.701 14.5343C136.701 13.0308 137.009 11.7131 137.625 10.581C138.241 9.44899 139.102 8.58227 140.207 7.98087C141.313 7.37947 142.573 7.07877 143.986 7.07877C145.4 7.07877 146.632 7.37947 147.683 7.98087C148.753 8.58227 149.568 9.39592 150.13 10.4218C150.71 11.4301 151 12.5533 151 13.7914ZM149.07 13.7384C149.088 12.6594 148.861 11.7396 148.39 10.979C147.937 10.2184 147.312 9.64356 146.514 9.25442C145.717 8.86528 144.847 8.67071 143.905 8.67071C142.491 8.67071 141.286 9.11291 140.289 9.99732C139.292 10.8817 138.739 12.1287 138.631 13.7384H149.07Z" fill="white" />
</svg>
    