<svg width="182" height="59" viewBox="0 0 182 59" fill="none" xmlns="http://www.w3.org/2000/svg">
<path d="M15.522 35.306C15.522 29.638 6.968 30.028 6.968 27.714C6.968 27.09 7.332 26.778 7.8 26.778C8.424 26.778 9.022 27.116 9.074 28.234H15.288C15.132 24.412 12.272 22.28 7.826 22.28C3.9 22.28 0.78 24.204 0.78 27.896C0.676 34.188 9.36 33.278 9.386 35.774C9.386 36.424 8.84 36.684 8.268 36.684C7.696 36.684 6.968 36.45 6.864 35.098H0.728C0.988 39.232 4.29 41.182 8.502 41.182C12.948 41.182 15.522 38.686 15.522 35.306ZM16.51 27.168H21.346V41H27.118V27.168H32.006V22.592H16.51V27.168ZM46.2855 41H52.3695L45.6615 22.592H39.0055L32.2715 41H38.3295L39.2395 38.218H45.3755L46.2855 41ZM43.9715 33.876H40.6435L42.3075 28.754L43.9715 33.876ZM63.4049 28.988C63.4049 30.08 62.8329 30.548 61.7409 30.548H59.4529V27.428H61.7409C62.8329 27.428 63.4049 28.052 63.4049 28.988ZM53.6809 22.592V41H59.4529V34.396H59.4789L62.9369 41H69.2809L65.2769 33.954C67.9029 33.096 69.2549 31.042 69.2549 28.624C69.2549 25.244 66.8889 22.592 62.2609 22.592H53.6809ZM85.3208 35.306C85.3208 29.638 76.7668 30.028 76.7668 27.714C76.7668 27.09 77.1308 26.778 77.5988 26.778C78.2228 26.778 78.8208 27.116 78.8728 28.234H85.0868C84.9308 24.412 82.0708 22.28 77.6248 22.28C73.6988 22.28 70.5788 24.204 70.5788 27.896C70.4748 34.188 79.1588 33.278 79.1848 35.774C79.1848 36.424 78.6388 36.684 78.0668 36.684C77.4948 36.684 76.7668 36.45 76.6628 35.098H70.5268C70.7868 39.232 74.0888 41.182 78.3008 41.182C82.7468 41.182 85.3208 38.686 85.3208 35.306ZM87.6868 26.726H92.5228L90.0008 41H95.1228L97.6448 26.726H102.507L103.235 22.67H88.4148L87.6868 26.726ZM114.48 41H119.862L116.43 22.67H110.554L100.648 41H106.004L107.512 38.01H114.012L114.48 41ZM113.414 34.136H109.488L112.504 28.182L113.414 34.136ZM132.365 41H138.527L133.119 31.588L141.413 22.67H135.537L128.439 30.6L129.843 22.67H124.747L121.497 41H126.619L128.023 32.94L132.365 41ZM155.338 22.67H143.612L140.362 41H152.114L152.816 36.944H146.186L146.784 33.616H152.634L153.336 29.742H147.486L148.006 26.7H154.636L155.338 22.67Z" fill="white"/>
<path d="M160.336 15.09H162.94V23H165.334V15.09H167.938V13.172H160.336V15.09ZM169.139 23H171.533V17.092L173.745 23H175.677L177.875 17.106V23H180.269V13.172H177.455L174.725 19.976L171.967 13.172H169.139V23Z" fill="white"/>
</svg>
