<svg version="1.2" baseProfile="tiny-ps" xmlns="http://www.w3.org/2000/svg" viewBox="0 0 35 42" width="35" height="42">
	<title>Logo-A-svg</title>
	<style>
		tspan { white-space:pre }
		.shp0 { fill: #ffffff } 
	</style>
	<g id="logo">
		<path id="Layer" class="shp0" d="M5.66 16.96C4.98 16.74 4.55 16.02 4.37 14.81C4.19 13.6 4.32 12.24 4.76 10.73L7.29 2.15C7.44 1.63 9.14 1.21 12.36 0.89C15.6 0.55 17.44 0.45 17.87 0.6C18.2 0.7 18.5 1.41 18.78 2.71C18.83 3.03 18.91 3.46 19.02 4.01C19.15 4.57 19.26 5.02 19.33 5.38C19.49 6.16 19.84 6.64 20.39 6.82L20.14 7.64C19.65 7.69 18.98 7.79 18.13 7.93C16.14 8.32 15.07 8.49 14.93 8.45C14.53 8.31 14.25 7.33 14.1 5.5C13.98 3.68 13.73 2.71 13.35 2.58C12.86 2.42 12.49 2.75 12.25 3.57L9.54 12.77C9.22 13.87 9.3 14.5 9.79 14.66C9.9 14.7 10.85 14.62 12.63 14.43C14.42 14.24 15.48 14.2 15.81 14.31C16.46 14.53 16.87 15.25 17.05 16.49C17.26 17.7 17.12 19.14 16.63 20.79L14.04 29.57C13.89 30.1 12.06 30.48 8.55 30.74C5.08 30.97 3.11 31.01 2.64 30.86C2.45 30.79 2.31 30.49 2.2 29.94C2.09 29.39 1.96 28.62 1.8 27.63C1.68 26.63 1.54 25.78 1.39 25.1C1.26 24.42 0.92 23.99 0.38 23.81L0.62 22.98C1.11 22.94 1.77 22.84 2.59 22.69C4.61 22.3 5.69 22.13 5.83 22.18C6.24 22.31 6.53 23.45 6.7 25.59C6.91 27.75 7.2 28.88 7.58 29.01C7.85 29.1 8.14 29.08 8.45 28.94C8.76 28.8 8.97 28.54 9.09 28.15L11.82 18.87C12.18 17.63 12.03 16.9 11.35 16.68C11.13 16.6 10.17 16.65 8.48 16.81C6.79 16.98 5.85 17.02 5.66 16.96Z" />
		<path id="Layer" class="shp0" d="M19.66 27.96C18.98 27.74 18.55 27.02 18.37 25.81C18.19 24.6 18.32 23.24 18.76 21.73L21.29 13.15C21.44 12.63 23.14 12.21 26.37 11.89C29.6 11.55 31.44 11.45 31.87 11.6C32.2 11.7 32.5 12.41 32.78 13.71C32.83 14.03 32.91 14.46 33.02 15.01C33.15 15.57 33.26 16.02 33.33 16.38C33.49 17.16 33.84 17.64 34.39 17.82L34.14 18.64C33.65 18.69 32.98 18.79 32.13 18.93C30.14 19.32 29.07 19.49 28.93 19.45C28.53 19.31 28.25 18.33 28.1 16.5C27.98 14.68 27.73 13.71 27.35 13.58C26.86 13.42 26.49 13.75 26.25 14.57L23.54 23.77C23.22 24.87 23.3 25.5 23.79 25.66C23.9 25.7 24.85 25.62 26.63 25.43C28.42 25.24 29.48 25.2 29.81 25.31C30.46 25.53 30.87 26.25 31.05 27.49C31.26 28.7 31.12 30.14 30.63 31.79L28.04 40.57C27.89 41.1 26.06 41.48 22.55 41.74C19.08 41.97 17.11 42.01 16.64 41.86C16.45 41.79 16.31 41.49 16.2 40.94C16.09 40.39 15.96 39.62 15.8 38.63C15.68 37.63 15.54 36.78 15.39 36.1C15.26 35.42 14.92 34.99 14.38 34.81L14.62 33.98C15.11 33.94 15.77 33.84 16.59 33.69C18.61 33.3 19.69 33.13 19.83 33.18C20.24 33.31 20.53 34.45 20.7 36.59C20.91 38.75 21.2 39.88 21.58 40.01C21.85 40.1 22.14 40.08 22.45 39.94C22.76 39.8 22.97 39.54 23.09 39.15L25.82 29.87C26.18 28.63 26.03 27.9 25.35 27.68C25.13 27.6 24.17 27.65 22.48 27.81C20.79 27.98 19.85 28.02 19.66 27.96Z" />
	</g>
</svg>