<svg width="16" height="13" viewBox="0 0 16 13" fill="none" xmlns="http://www.w3.org/2000/svg">
    <path fill-rule="evenodd" clip-rule="evenodd" d="M10.2189 12.1521C13.366 12.1521 16 9.51815 16 6.37098C16 3.21626 13.366 0.589844 10.2113 0.589844C9.44151 0.589844 8.70189 0.755881 8.03019 1.05777C7.33585 0.755881 6.56604 0.589844 5.77358 0.589844C2.61887 0.589844 0 3.21626 0 6.37098C0 9.51815 2.62642 12.1521 5.78113 12.1521C6.58113 12.1521 7.3434 11.9785 8.03774 11.6766C8.70943 11.9785 9.44151 12.1521 10.2189 12.1521ZM10.2189 10.4238C10.1057 10.4238 9.99245 10.4163 9.88679 10.4087C10.9132 9.35966 11.5623 7.92569 11.5623 6.37098C11.5623 4.80871 10.9132 3.3823 9.87925 2.33324C9.99245 2.31815 10.0981 2.31815 10.2113 2.31815C12.4226 2.31815 14.2717 4.17475 14.2717 6.37098C14.2717 8.5672 12.4226 10.4238 10.2189 10.4238ZM1.72656 6.37119C1.72656 8.56742 3.58317 10.424 5.77939 10.424C7.97562 10.424 9.83222 8.56742 9.83222 6.37119C9.83222 4.17496 7.97562 2.31836 5.77185 2.31836C3.57562 2.31836 1.72656 4.17496 1.72656 6.37119Z" fill="#7220F8" />
</svg>
    