<svg width="18" height="18" viewBox="0 0 18 18" fill="none" xmlns="http://www.w3.org/2000/svg">
    <path d="M10.6054 9L17.8821 1.72366C18.0387 1.56684 18.0387 1.31275 17.8821 1.15593L16.8443 0.117565C16.769 0.0424752 16.6666 0 16.5603 0C16.4537 0 16.3515 0.0424752 16.2762 0.117565L8.99967 7.3941L1.72314 0.117565C1.57239 -0.0331837 1.30559 -0.0329941 1.15522 0.117565L0.117613 1.15593C-0.0392042 1.31275 -0.0392042 1.56684 0.117613 1.72366L7.39414 9L0.117613 16.2763C-0.0392042 16.4332 -0.0392042 16.6873 0.117613 16.8441L1.15541 17.8824C1.23069 17.9575 1.3329 18 1.43946 18C1.54603 18 1.64805 17.9575 1.72333 17.8824L8.99986 10.6059L16.2764 17.8824C16.3517 17.9575 16.4541 18 16.5604 18C16.6668 18 16.7692 17.9575 16.8445 17.8824L17.8823 16.8441C18.0389 16.6873 18.0389 16.4332 17.8823 16.2763L10.6054 9Z" fill="white" fill-opacity="0.6" />
</svg>
    