<svg width="22" height="33" viewBox="0 0 22 33" fill="none" xmlns="http://www.w3.org/2000/svg">
    <path d="M7.33531 20.016H9.04731C9.04731 18.896 9.76731 18.256 10.9033 18.256C12.0553 18.256 12.7433 18.944 12.7433 20.064C12.7433 21.744 11.3513 22.064 9.54331 22.064H9.01531L9.09531 24.576H10.6793L10.7433 23.312C12.8873 23.312 14.4873 22.32 14.4873 20.064C14.4873 17.984 13.0313 16.72 10.8873 16.72C8.71131 16.72 7.31931 18.08 7.33531 20.016ZM11.0153 26.944C11.0153 26.288 10.5033 25.776 9.86331 25.776C9.20731 25.776 8.69531 26.288 8.69531 26.944C8.69531 27.6 9.20731 28.112 9.86331 28.112C10.5033 28.112 11.0153 27.6 11.0153 26.944Z" fill="#505050" />
    <circle cx="11" cy="22" r="10" stroke="#505050" stroke-width="2" />
</svg>
    