<svg width="18" height="16" viewBox="0 0 18 16" fill="none" xmlns="http://www.w3.org/2000/svg">
<path d="M7.98859 0C3.58543 0 0 3.59102 0 7.99996C0 12.4068 3.58263 15.9964 7.9829 15.9999C8.07927 16.0013 8.17495 15.9835 8.26438 15.9475C8.35381 15.9116 8.43521 15.8583 8.50384 15.7906C8.57247 15.7229 8.62697 15.6423 8.66417 15.5534C8.70137 15.4644 8.72053 15.369 8.72053 15.2727C8.72053 15.1763 8.70137 15.0809 8.66417 14.9919C8.62697 14.903 8.57247 14.8224 8.50384 14.7547C8.43521 14.687 8.35381 14.6337 8.26438 14.5977C8.17495 14.5618 8.07927 14.544 7.9829 14.5454C4.36974 14.5425 1.45454 11.6224 1.45454 7.99996C1.45454 4.37571 4.37292 1.45454 7.98859 1.45454C10.5739 1.45454 12.7977 2.95654 13.8579 5.13065L13.1079 4.69315C13.0257 4.63465 12.9322 4.5939 12.8333 4.57348C12.7345 4.55306 12.6325 4.55343 12.5339 4.57457C12.4352 4.5957 12.342 4.63714 12.2602 4.69624C12.1784 4.75534 12.1098 4.83082 12.0588 4.91787C12.0077 5.00492 11.9753 5.10164 11.9637 5.20187C11.9521 5.30211 11.9614 5.40368 11.9911 5.50011C12.0209 5.59654 12.0704 5.68573 12.1364 5.76201C12.2025 5.83828 12.2837 5.89996 12.3749 5.94315L14.659 7.28406C14.7435 7.33394 14.8373 7.36619 14.9346 7.37887C15.0319 7.39156 15.1308 7.38442 15.2253 7.35788C15.3198 7.33134 15.408 7.28594 15.4844 7.22443C15.5609 7.16292 15.6242 7.08657 15.6704 6.99997L17.0056 4.51134C17.0676 4.39934 17.099 4.27296 17.0965 4.14495C17.094 4.01695 17.0578 3.89186 16.9915 3.78233C16.9253 3.6728 16.8312 3.58271 16.719 3.52116C16.6067 3.45962 16.4802 3.42878 16.3522 3.4318C16.2215 3.43447 16.094 3.47229 15.983 3.54127C15.8721 3.61026 15.7817 3.70787 15.7215 3.82384L15.2556 4.69315C13.9978 1.92497 11.216 0 7.98859 0Z" fill="#ABABAB"/>
</svg>
