<svg width="21" height="21" viewBox="0 0 21 21" fill="none" xmlns="http://www.w3.org/2000/svg">
<path d="M15.9129 14.7512C17.3738 12.9481 18.0879 10.6464 17.9062 8.32582C17.7246 6.00523 16.6614 3.84479 14.938 2.29474C13.2147 0.744695 10.9642 -0.0753705 8.65565 0.00545397C6.34709 0.0862784 4.15854 1.06176 2.5461 2.72859C0.933666 4.39543 0.0217416 6.62502 0.000383759 8.95272C-0.0209741 11.2804 0.849882 13.5266 2.43146 15.2232C4.01303 16.9198 6.18331 17.9359 8.48999 18.0597C10.7967 18.1836 13.0618 17.4056 14.8133 15.8879L19.6805 20.7927C19.8303 20.9303 20.027 21.0045 20.2296 20.9998C20.4323 20.9951 20.6254 20.9119 20.7688 20.7676C20.9122 20.6232 20.9949 20.4287 20.9998 20.2244C21.0046 20.0202 20.9312 19.822 20.7948 19.6708L15.9129 14.7512ZM8.98 16.4907C7.52305 16.4919 6.09845 16.0577 4.88645 15.2429C3.67444 14.4281 2.72948 13.2693 2.17111 11.9132C1.61274 10.5571 1.46605 9.06459 1.7496 7.62445C2.03315 6.18431 2.73419 4.86128 3.76405 3.82273C4.79391 2.78417 6.1063 2.07677 7.53519 1.79C8.96409 1.50323 10.4453 1.64999 11.7914 2.2117C13.1375 2.77342 14.2881 3.72485 15.0975 4.94564C15.9069 6.16642 16.3388 7.60171 16.3386 9.06992C16.3364 11.0364 15.5606 12.9218 14.1812 14.3128C12.8018 15.7039 10.9314 16.487 8.98 16.4907Z" fill="#858585"/>
</svg>
