<svg width="34" height="34" viewBox="0 0 34 34" fill="none" xmlns="http://www.w3.org/2000/svg">
<path d="M15.4889 28.3343V26.4942C14.3701 26.1912 13.372 25.5502 12.6311 24.659C11.8901 23.7677 11.4423 22.6695 11.3489 21.5143C11.3441 21.4618 11.3503 21.4088 11.367 21.3587C11.3837 21.3086 11.4106 21.2626 11.446 21.2234C11.4814 21.1843 11.5245 21.1529 11.5727 21.1313C11.6208 21.1096 11.6729 21.0982 11.7257 21.0977H14.0049C14.0959 21.0976 14.1839 21.1307 14.2523 21.1907C14.3207 21.2508 14.3649 21.3338 14.3766 21.4241C14.4664 22.0541 14.7818 22.6302 15.2643 23.0453C15.7467 23.4604 16.3635 23.6863 17 23.6811C18.22 23.6811 19.6444 23.1306 19.6444 21.5794C19.6444 20.3812 17.9784 19.3672 16.2142 18.2938C13.9265 16.9014 11.3334 15.3233 11.3334 12.4271C11.3334 9.93789 13.0121 8.02656 15.4889 7.47226V5.67213C15.4889 5.57196 15.5287 5.47589 15.5996 5.40505C15.6704 5.33422 15.7665 5.29443 15.8667 5.29443H18.1333C18.2335 5.29443 18.3296 5.33422 18.4005 5.40505C18.4713 5.47589 18.5111 5.57196 18.5111 5.67213V7.51224C19.63 7.81528 20.628 8.45619 21.369 9.34747C22.1099 10.2387 22.5577 11.337 22.6511 12.4921C22.6559 12.5447 22.6498 12.5977 22.6331 12.6477C22.6163 12.6978 22.5894 12.7439 22.554 12.783C22.5186 12.8222 22.4755 12.8535 22.4274 12.8752C22.3792 12.8968 22.3271 12.9083 22.2743 12.9088H19.9951C19.9041 12.9089 19.8161 12.8758 19.7477 12.8157C19.6793 12.7556 19.6351 12.6727 19.6234 12.5824C19.5337 11.9524 19.2182 11.3763 18.7358 10.9612C18.2533 10.5461 17.6365 10.3202 17 10.3254C15.78 10.3254 14.3556 10.8759 14.3556 12.4271C14.3556 13.6253 16.0216 14.6393 17.7858 15.7126C20.0735 17.105 22.6666 18.6832 22.6666 21.5794C22.6666 24.0686 20.9879 25.9799 18.5111 26.5342V28.3343C18.5111 28.4345 18.4713 28.5306 18.4005 28.6014C18.3296 28.6722 18.2335 28.712 18.1333 28.712H15.8667C15.8171 28.712 15.7679 28.7023 15.7221 28.6833C15.6763 28.6643 15.6346 28.6365 15.5996 28.6014C15.5645 28.5663 15.5366 28.5247 15.5177 28.4789C15.4987 28.433 15.4889 28.3839 15.4889 28.3343ZM32.0584 9.98173L31.0323 10.4637C30.9432 10.5059 30.8742 10.5814 30.8402 10.674C30.8062 10.7665 30.8099 10.8687 30.8505 10.9586C31.6815 12.8482 32.1108 14.8899 32.111 16.9542C32.1215 19.7643 31.3476 22.5217 29.8763 24.9162C28.4051 27.3106 26.2949 29.2472 23.783 30.5082C21.2711 31.7691 18.4571 32.3044 15.6576 32.0538C12.8581 31.8032 10.184 30.7767 7.93606 29.0897H10.5778C10.678 29.0897 10.7741 29.0499 10.8449 28.9791C10.9158 28.9083 10.9556 28.8122 10.9556 28.712V27.5789C10.9556 27.4787 10.9158 27.3827 10.8449 27.3118C10.7741 27.241 10.678 27.2012 10.5778 27.2012H4.5334C4.43321 27.2012 4.33712 27.241 4.26627 27.3118C4.19543 27.3827 4.15563 27.4787 4.15563 27.5789V33.6222C4.15563 33.7223 4.19543 33.8184 4.26627 33.8892C4.33712 33.9601 4.43321 33.9999 4.5334 33.9999H5.66673C5.76692 33.9999 5.86301 33.9601 5.93386 33.8892C6.0047 33.8184 6.0445 33.7223 6.0445 33.6222V29.9964C9.10136 32.5954 12.9873 34.0155 17 33.9999C21.5071 33.9948 25.8282 32.2025 29.0152 29.0161C32.2022 25.8297 33.9949 21.5095 33.9999 17.0032C34.007 14.6496 33.5185 12.3209 32.5663 10.1684C32.5456 10.1226 32.5159 10.0813 32.479 10.047C32.4421 10.0127 32.3987 9.98612 32.3515 9.96874C32.3042 9.95137 32.2539 9.94357 32.2036 9.9458C32.1533 9.94803 32.1039 9.96023 32.0584 9.98173ZM23.0444 5.29443V6.42754C23.0444 6.52771 23.0842 6.62378 23.1551 6.69462C23.2259 6.76545 23.322 6.80524 23.4222 6.80524H29.4666C29.5668 6.80524 29.6629 6.76545 29.7337 6.69462C29.8046 6.62378 29.8444 6.52771 29.8444 6.42754V0.384289C29.8444 0.284116 29.8046 0.188046 29.7337 0.117213C29.6629 0.0463797 29.5668 0.00658624 29.4666 0.00658624H28.3333C28.2331 0.00658624 28.137 0.0463797 28.0662 0.117213C27.9953 0.188046 27.9555 0.284116 27.9555 0.384289V4.00714C25.4721 1.91131 22.4398 0.571353 19.2179 0.146135C15.996 -0.279084 12.7197 0.228264 9.77747 1.60803C6.83521 2.9878 4.35035 5.18213 2.61748 7.93088C0.884597 10.6796 -0.0236289 13.8675 0.000467315 17.1166C0.00884246 19.4318 0.496752 21.7202 1.43345 23.8375C1.45427 23.8834 1.48402 23.9247 1.52097 23.9591C1.55791 23.9934 1.60132 24.02 1.64865 24.0374C1.69599 24.0548 1.74631 24.0627 1.7967 24.0604C1.84709 24.0582 1.89653 24.046 1.94215 24.0245L2.96777 23.5427C3.05687 23.5005 3.12583 23.425 3.15983 23.3324C3.19382 23.2399 3.19013 23.1377 3.14956 23.0478C2.31738 21.1556 1.88811 19.1109 1.88904 17.0437C1.88055 14.2341 2.65599 11.4777 4.12822 9.08441C5.60045 6.69113 7.71111 4.75581 10.223 3.49595C12.7349 2.23608 15.5484 1.70161 18.3474 1.95259C21.1464 2.20358 23.8199 3.23008 26.0675 4.91673H23.4222C23.322 4.91673 23.2259 4.95652 23.1551 5.02735C23.0842 5.09819 23.0444 5.19426 23.0444 5.29443Z" fill="#827AFF"/>
</svg>
