<svg width="22" height="21" viewBox="0 0 22 21" fill="none" xmlns="http://www.w3.org/2000/svg">
<path d="M14.8724 2.55347H6.24625L0.134766 8.66495L10.5593 20.5998L20.9839 8.66495L14.8724 2.55347ZM8.62077 8.19004L10.5593 4.42194L12.4979 8.19004H8.62077ZM12.6847 9.12428L10.5282 16.8551L8.43392 9.12428H12.6847ZM7.46854 9.12428L9.5083 16.6683L2.92191 9.12428H7.46854ZM13.6501 9.12428H18.1967L11.5169 16.7773L13.6501 9.12428ZM17.9787 8.19004H13.9148L14.4831 4.69443L17.9787 8.19004ZM13.5956 4.34409L13.1129 7.33366L11.5714 4.34409H13.5956ZM8.01351 7.33366L7.53082 4.34409H9.55501L8.01351 7.33366ZM6.63551 4.69443L7.20384 8.19004H3.1399L6.63551 4.69443Z" fill="#564ECE" fill-opacity="0.7"/>
<path d="M21.691 2.29667C20.6867 1.82177 19.8692 1.00431 19.3943 0C18.9194 1.00431 18.1097 1.81398 17.0977 2.29667C18.102 2.77158 18.9194 3.58903 19.3943 4.59334C19.877 3.58125 20.6867 2.77158 21.691 2.29667Z" fill="#564ECE" fill-opacity="0.7"/>
<path d="M3.86347 18.3343C3.01487 17.9295 2.32977 17.2522 1.93271 16.4036C1.52788 17.2522 0.850554 17.9373 0.00195312 18.3343C0.850554 18.7392 1.53566 19.4165 1.93271 20.2651C2.33755 19.4165 3.01487 18.7392 3.86347 18.3343Z" fill="#564ECE" fill-opacity="0.7"/>
<path d="M19.4812 15.672C18.9129 15.3995 18.4535 14.948 18.1888 14.3796C17.9164 14.948 17.4648 15.4073 16.8965 15.672C17.4648 15.9445 17.9241 16.396 18.1888 16.9644C18.4613 16.396 18.9129 15.9445 19.4812 15.672Z" fill="#564ECE" fill-opacity="0.7"/>
</svg>
