<svg width="20" height="22" viewBox="0 0 20 22" fill="none" xmlns="http://www.w3.org/2000/svg">
<path d="M19.1763 17.1801L15.6999 10.8329C16.1036 10.5862 16.5746 10.2722 16.754 9.7339C16.9559 9.12833 16.6867 8.5452 16.4849 8.0742C16.3952 7.84992 16.2606 7.58078 16.2606 7.44621C16.2606 7.31164 16.3727 7.0425 16.4849 6.81821C16.6867 6.34722 16.9559 5.76408 16.754 5.15852C16.5522 4.53052 15.9915 4.1941 15.5205 3.94739C15.3186 3.83525 15.0719 3.70068 15.0046 3.58853C14.9373 3.47639 14.87 3.20725 14.8252 2.96054C14.713 2.44469 14.5785 1.8167 14.0626 1.43541C13.5468 1.05413 12.8963 1.12142 12.3805 1.16627C12.1562 1.1887 11.8646 1.23356 11.7301 1.1887C11.6179 1.14385 11.3936 0.964418 11.2366 0.80742C10.8329 0.448567 10.3395 0 9.66666 0C8.99381 0 8.50039 0.448567 8.11911 0.80742C7.96211 0.94199 7.73783 1.14385 7.62569 1.1887C7.49112 1.23356 7.19955 1.1887 6.97526 1.16627C6.45941 1.12142 5.80899 1.0317 5.29314 1.43541C4.75486 1.8167 4.62029 2.46712 4.53057 2.96054C4.48572 3.18482 4.41843 3.47639 4.35115 3.58853C4.28386 3.67825 4.03715 3.83525 3.8353 3.94739C3.38673 4.21653 2.80359 4.53052 2.60174 5.15852C2.39988 5.76408 2.66902 6.34722 2.87088 6.81821C2.96059 7.0425 3.09516 7.31164 3.09516 7.44621C3.09516 7.58078 2.98302 7.84992 2.87088 8.0742C2.66902 8.5452 2.39988 9.12833 2.60174 9.7339C2.78116 10.2946 3.22973 10.5862 3.65587 10.8329L0.157048 17.1801C-0.0672353 17.5838 -0.0448069 18.0548 0.201905 18.4361C0.448617 18.8174 0.874755 19.0192 1.32332 18.9744L3.40916 18.7949L4.37358 20.6565C4.57543 21.0602 4.97914 21.3069 5.42771 21.3069C5.42771 21.3069 5.42771 21.3069 5.45014 21.3069C5.8987 21.3069 6.30241 21.0602 6.50427 20.6789L9.64424 14.9597L12.7842 20.6789C13.0085 21.0602 13.4122 21.3069 13.8383 21.3069C13.8383 21.3069 13.8383 21.3069 13.8608 21.3069C14.3093 21.3069 14.713 21.0602 14.9149 20.6565L15.8793 18.7949L17.9651 18.9744C18.4361 19.0192 18.8399 18.7949 19.0866 18.4361C19.3781 18.0548 19.4006 17.5614 19.1763 17.1801ZM4.553 5.2258C4.88943 5.02395 5.29314 4.79966 5.53985 4.44081C5.80899 4.08196 5.8987 3.63339 5.98842 3.25211C6.03327 3.05025 6.10056 2.6914 6.16784 2.62412C6.25756 2.57926 6.61641 2.62412 6.81826 2.64654C7.22197 2.6914 7.67054 2.73626 8.09668 2.60169C8.52282 2.46712 8.83681 2.17555 9.12838 1.90641C9.28538 1.77184 9.55452 1.5027 9.66666 1.5027C9.77881 1.5027 10.0479 1.77184 10.2049 1.90641C10.4965 2.17555 10.8105 2.46712 11.2366 2.60169C11.6628 2.73626 12.1114 2.6914 12.5151 2.64654C12.7169 2.62412 13.0758 2.57926 13.1431 2.62412C13.2103 2.6914 13.2776 3.05025 13.3225 3.25211C13.4122 3.63339 13.5019 4.08196 13.7486 4.44081C14.0178 4.79966 14.399 5.02395 14.7355 5.2258C14.9149 5.33794 15.2289 5.51737 15.2737 5.58466C15.2737 5.6968 15.1392 5.98837 15.0719 6.19022C14.9149 6.54907 14.713 6.97521 14.713 7.44621C14.713 7.9172 14.8925 8.32091 15.0719 8.70219C15.1616 8.88162 15.2962 9.19562 15.2962 9.28533C15.2513 9.37504 14.9373 9.55447 14.7579 9.66661C14.4215 9.86847 14.0178 10.0928 13.7711 10.4516C13.5019 10.8105 13.4122 11.259 13.3225 11.6403C13.2776 11.8422 13.2103 12.201 13.1431 12.2683C13.0533 12.3132 12.6945 12.2683 12.4926 12.2459C12.0889 12.201 11.6404 12.1562 11.2142 12.2907C10.7881 12.4253 10.4741 12.7169 10.1825 12.986C10.0255 13.1206 9.75638 13.3897 9.64424 13.3897C9.53209 13.3897 9.26295 13.1206 9.10596 12.986C8.81439 12.7169 8.50039 12.4253 8.07425 12.2907C7.84997 12.2234 7.64811 12.201 7.42383 12.201C7.19955 12.201 6.99769 12.2234 6.79584 12.2459C6.59398 12.2683 6.23513 12.3132 6.16784 12.2683C6.10056 12.201 6.03327 11.8422 5.98842 11.6403C5.8987 11.259 5.80899 10.8105 5.56228 10.4516C5.29314 10.0928 4.91186 9.86847 4.57543 9.66661C4.396 9.55447 4.08201 9.37504 4.03715 9.30776C4.03715 9.19562 4.17172 8.90405 4.23901 8.70219C4.396 8.34334 4.59786 7.9172 4.59786 7.44621C4.59786 6.97521 4.41843 6.5715 4.23901 6.19022C4.14929 6.01079 4.01472 5.6968 4.01472 5.60708C4.05958 5.51737 4.37358 5.33794 4.553 5.2258ZM5.47256 19.4902L4.50815 17.6511C4.37358 17.4044 4.12686 17.2474 3.8353 17.2474H3.76801L1.7046 17.4268L4.59786 12.2234C4.71 12.672 4.867 13.143 5.29314 13.457C5.83142 13.8383 6.45941 13.771 6.97526 13.7261C7.19955 13.7037 7.51354 13.6589 7.62569 13.7037C7.73783 13.7486 7.96211 13.928 8.11911 14.085C8.18639 14.1523 8.25368 14.2196 8.34339 14.2868L5.47256 19.4902ZM15.5429 17.2698C15.2289 17.2474 14.9598 17.4044 14.8252 17.6735L13.8832 19.5127L10.9899 14.2644C11.0572 14.1971 11.1469 14.1299 11.2142 14.0626C11.3712 13.928 11.5955 13.7261 11.7076 13.6813C11.8422 13.6364 12.1338 13.6813 12.3581 13.7037C12.8739 13.7486 13.5243 13.8383 14.0402 13.4346C14.4663 13.1206 14.6458 12.6272 14.7355 12.201L17.6063 17.4268L15.5429 17.2698Z" fill="#564ECE" fill-opacity="0.7"/>
<path d="M7.73723 8.05177C7.80452 8.11905 7.84937 8.23119 7.82695 8.32091L7.51295 9.80118C7.42324 10.2049 7.84937 10.4965 8.20823 10.2946L9.5315 9.55446C9.62121 9.50961 9.73336 9.50961 9.82307 9.55446L11.1463 10.2946C11.5052 10.4965 11.9089 10.1825 11.8416 9.80118L11.5276 8.32091C11.5052 8.23119 11.5501 8.11905 11.6173 8.05177L12.7388 7.02006C13.0303 6.75092 12.8733 6.2575 12.4696 6.21264L10.9669 6.03322C10.8548 6.01079 10.7651 5.96593 10.7426 5.85379L10.1146 4.46323C9.95764 4.10438 9.41936 4.10438 9.26236 4.46323L8.63437 5.85379C8.58951 5.9435 8.4998 6.01079 8.41008 6.03322L6.90738 6.21264C6.50367 6.2575 6.34668 6.75092 6.63824 7.02006L7.73723 8.05177Z" fill="#564ECE" fill-opacity="0.7"/>
</svg>
