<svg width="21" height="20" viewBox="0 0 21 20" fill="none" xmlns="http://www.w3.org/2000/svg">
<path d="M7.97249 0H1.09554C0.506684 0 0.00195312 0.4837 0.00195312 1.09358V7.99157C0.00195312 8.58042 0.485653 9.08515 1.09554 9.08515H7.99352C8.58237 9.08515 9.08711 8.60145 9.08711 7.99157V1.07255C9.06608 0.4837 8.58238 0 7.97249 0ZM7.44673 7.42375H1.6213V1.61934H7.44673V7.42375Z" fill="#564ECE" fill-opacity="0.7"/>
<path d="M18.8885 0H12.0116C11.4227 0 10.918 0.4837 10.918 1.09358V7.99157C10.918 8.58042 11.4017 9.08515 12.0116 9.08515H18.9095C19.4984 9.08515 20.0031 8.60145 20.0031 7.99157V1.07255C19.9821 0.4837 19.4984 0 18.8885 0Z" fill="#564ECE" fill-opacity="0.7"/>
<path d="M7.97249 10.8943H1.09554C0.506684 10.8943 0.00195312 11.378 0.00195312 11.9879V18.8859C0.00195312 19.4747 0.485653 19.9794 1.09554 19.9794H7.99352C8.58237 19.9794 9.08711 19.4957 9.08711 18.8859V11.9668C9.06608 11.378 8.58238 10.8943 7.97249 10.8943ZM7.44673 18.318H1.6213V12.5136H7.44673V18.318Z" fill="#564ECE" fill-opacity="0.7"/>
<path d="M18.8885 10.8953H12.0116C11.4227 10.8953 10.918 11.379 10.918 11.9888V18.8868C10.918 19.4757 11.4017 19.9804 12.0116 19.9804H18.9095C19.4984 19.9804 20.0031 19.4967 20.0031 18.8868V11.9678C19.9821 11.379 19.4984 10.8953 18.8885 10.8953ZM18.3627 18.319H12.5373V12.5146H18.3627V18.319Z" fill="#564ECE" fill-opacity="0.7"/>
</svg>
