<svg width="28" height="24" viewBox="0 0 28 24" fill="none" xmlns="http://www.w3.org/2000/svg">
    <path d="M27.087 0L10.2464 14.4239L0.386832 10.8696C0.273214 10.8283 0.176103 10.7596 0.107402 10.6717C0.0387005 10.5839 0.0013948 10.4808 5.73375e-05 10.375C-0.00162112 10.268 0.0335845 10.163 0.101261 10.0731C0.168937 9.98314 0.266073 9.91235 0.380491 9.86956L27.087 0ZM11.1721 15.2174L15.3189 23.6685C15.367 23.7659 15.4472 23.8491 15.5497 23.908C15.6522 23.9669 15.7725 23.9988 15.8959 24C16.0196 24.0004 16.1408 23.9697 16.2444 23.9117C16.3481 23.8538 16.4297 23.7711 16.4792 23.6739L28 0.782609L11.1721 15.2174Z" fill="#564ECE" />
</svg>
    