<svg width="104" height="16" viewBox="0 0 104 16" fill="none" xmlns="http://www.w3.org/2000/svg">
    <path d="M11.8107 0H16.3469C16.9111 0 17.3686 0.472777 17.3686 1.05598V5.56989C17.3686 5.69261 17.1545 5.73275 17.1068 5.62036C16.5672 4.34842 15.0919 1.68959 11.7711 0.21919C11.6663 0.172768 11.6967 0 11.8107 0Z" fill="#574ECE" />
    <path d="M1.02168 16H5.55783C5.67189 16 5.70228 15.8272 5.59744 15.7808C2.27664 14.3104 0.801372 11.6516 0.261765 10.3796C0.214085 10.2673 1.09144e-07 10.3074 1.09144e-07 10.4301V14.944C1.09144e-07 15.5272 0.457422 16 1.02168 16Z" fill="#574ECE" />
    <path d="M5.29937 3.85884C2.24749 2.79167 1.12293 0.971729 0.942129 0.195154C-1.50226 4.61412 1.38207 7.47242 3.12979 8.34919C6.04667 9.67063 12.2782 12.5277 13.8692 13.3844C15.4857 14.3535 15.9931 15.4476 16.1266 15.7356C16.1484 15.7826 16.1603 15.8081 16.1653 15.8081C18.6097 11.344 15.0022 8.29909 12.8929 7.33464C11.6092 6.72715 8.29338 5.18152 5.29937 3.85884Z" fill="#574ECE" />
    <path d="M91.2779 15.8383L87.065 11.1107V15.8383H85.7544V1.55911H87.065V10.0108L91.1842 5.30257H93.0191L88.1697 10.5511L93.0566 15.8383H91.2779Z" fill="#574ECE" />
    <path d="M26.37 15.9734C25.5087 15.9734 24.7473 15.819 24.0857 15.5103C23.4366 15.2015 22.9249 14.7706 22.5504 14.2174C22.1759 13.6642 21.9762 13.0468 21.9512 12.365H23.3368C23.3992 13.021 23.6801 13.5999 24.1794 14.1016C24.6787 14.5905 25.4089 14.8349 26.37 14.8349C27.2563 14.8349 27.9553 14.6033 28.4671 14.1402C28.9913 13.6642 29.2535 13.0661 29.2535 12.3457C29.2535 11.7668 29.1099 11.3037 28.8228 10.9563C28.5357 10.5962 28.18 10.3324 27.7556 10.1652C27.3312 9.98511 26.7445 9.79215 25.9956 9.58632C25.1218 9.3419 24.429 9.10392 23.9172 8.87236C23.4054 8.64081 22.9686 8.28061 22.6066 7.79177C22.2446 7.30294 22.0636 6.64044 22.0636 5.80427C22.0636 5.10961 22.2383 4.49213 22.5878 3.95183C22.9374 3.39868 23.4304 2.96773 24.067 2.65899C24.7036 2.35025 25.4338 2.19588 26.2577 2.19588C27.4685 2.19588 28.4421 2.50462 29.1786 3.1221C29.9275 3.72671 30.3582 4.51142 30.4705 5.47623H29.0475C28.9601 4.92308 28.6668 4.43424 28.1675 4.00972C27.6682 3.57234 26.9941 3.35365 26.1453 3.35365C25.3589 3.35365 24.7036 3.57234 24.1794 4.00972C23.6551 4.43424 23.393 5.01956 23.393 5.76568C23.393 6.3317 23.5365 6.78837 23.8236 7.1357C24.1107 7.48304 24.4665 7.74675 24.8909 7.92685C25.3277 8.10695 25.9144 8.29991 26.6509 8.50573C27.4997 8.75015 28.1862 8.99457 28.7105 9.23899C29.2347 9.47054 29.6779 9.83074 30.0399 10.3196C30.4019 10.8084 30.5828 11.4645 30.5828 12.2878C30.5828 12.9181 30.4206 13.5163 30.096 14.0823C29.7715 14.6484 29.2909 15.105 28.6543 15.4524C28.0177 15.7997 27.2563 15.9734 26.37 15.9734Z" fill="#574ECE" />
    <path d="M34.1239 12.9824V6.44104H35.8625V5.30257H34.1239V3.07843H32.7945V12.9824C32.7945 13.9987 33.0192 14.732 33.4686 15.1822C33.918 15.6196 34.6905 15.8383 35.6142 15.8383L35.7342 14.6805C35.135 14.6805 34.7168 14.5583 34.4797 14.3139C34.2425 14.0695 34.1239 13.6257 34.1239 12.9824Z" fill="#574ECE" />
    <path fill-rule="evenodd" clip-rule="evenodd" d="M38.0428 7.71459C37.6309 8.52503 37.4249 9.47054 37.4249 10.5511C37.4249 11.6317 37.6309 12.5837 38.0428 13.407C38.4672 14.2303 39.0477 14.867 39.7841 15.3173C40.5331 15.7675 41.3694 15.9927 42.2931 15.9927C43.2667 15.9927 44.103 15.7611 44.8021 15.298C45.5136 14.822 46.0316 14.2238 46.3561 13.5034V15.8383H47.6668V5.30257H46.3561V7.61811C46.0441 6.89772 45.5323 6.30597 44.8208 5.84286C44.1218 5.37975 43.2854 5.1482 42.3118 5.1482C41.3756 5.1482 40.5331 5.37332 39.7841 5.82356C39.0477 6.26094 38.4672 6.89129 38.0428 7.71459ZM45.8506 8.33207C46.1876 8.97527 46.3561 9.72139 46.3561 10.5704C46.3561 11.4195 46.1876 12.1656 45.8506 12.8088C45.5136 13.452 45.0517 13.9473 44.465 14.2946C43.8908 14.6419 43.2542 14.8156 42.5552 14.8156C41.8312 14.8156 41.1822 14.6484 40.608 14.3139C40.0338 13.9666 39.5782 13.4713 39.2411 12.8281C38.9166 12.172 38.7543 11.413 38.7543 10.5511C38.7543 9.67637 38.9166 8.92382 39.2411 8.29348C39.5782 7.65027 40.0338 7.16143 40.608 6.82697C41.1822 6.4925 41.8312 6.32526 42.5552 6.32526C43.2542 6.32526 43.8908 6.49893 44.465 6.84626C45.0517 7.19359 45.5136 7.68886 45.8506 8.33207Z" fill="#574ECE" />
    <path d="M53.2802 5.6499C52.6936 6.01009 52.2567 6.51823 51.9696 7.1743V5.30257H50.6589V15.8383H51.9696V9.95295C51.9696 8.71799 52.2567 7.8368 52.8309 7.30937C53.405 6.78194 54.1665 6.51823 55.1151 6.51823H55.4709V5.1096C54.6096 5.1096 53.8794 5.2897 53.2802 5.6499Z" fill="#574ECE" />
    <path d="M59.1277 15.5103C59.7893 15.819 60.5507 15.9734 61.412 15.9734C62.2983 15.9734 63.0597 15.7997 63.6963 15.4524C64.3329 15.105 64.8135 14.6484 65.138 14.0823C65.4625 13.5163 65.6248 12.9181 65.6248 12.2878C65.6248 11.4645 65.4438 10.8084 65.0818 10.3196C64.7198 9.83074 64.2767 9.47054 63.7525 9.23899C63.2282 8.99457 62.5417 8.75015 61.6929 8.50573C60.9564 8.29991 60.3697 8.10695 59.9328 7.92685C59.5084 7.74675 59.1527 7.48304 58.8656 7.1357C58.5785 6.78837 58.4349 6.3317 58.4349 5.76568C58.4349 5.01956 58.6971 4.43424 59.2213 4.00972C59.7456 3.57234 60.4009 3.35365 61.1873 3.35365C62.0361 3.35365 62.7102 3.57234 63.2095 4.00972C63.7088 4.43424 64.0021 4.92308 64.0895 5.47623H65.5125C65.4001 4.51142 64.9695 3.72671 64.2205 3.1221C63.4841 2.50462 62.5104 2.19588 61.2996 2.19588C60.4758 2.19588 59.7456 2.35025 59.109 2.65899C58.4724 2.96773 57.9793 3.39868 57.6298 3.95183C57.2803 4.49213 57.1056 5.10961 57.1056 5.80427C57.1056 6.64044 57.2866 7.30294 57.6485 7.79177C58.0105 8.28061 58.4474 8.64081 58.9592 8.87236C59.471 9.10392 60.1637 9.3419 61.0375 9.58632C61.7865 9.79215 62.3731 9.98511 62.7975 10.1652C63.2219 10.3324 63.5777 10.5962 63.8648 10.9563C64.1519 11.3037 64.2954 11.7668 64.2954 12.3457C64.2954 13.0661 64.0333 13.6642 63.509 14.1402C62.9973 14.6033 62.2983 14.8349 61.412 14.8349C60.4508 14.8349 59.7206 14.5905 59.2213 14.1016C58.722 13.5999 58.4412 13.021 58.3788 12.365H56.9932C57.0182 13.0468 57.2179 13.6642 57.5924 14.2174C57.9668 14.7706 58.4786 15.2015 59.1277 15.5103Z" fill="#574ECE" />
    <path d="M69.2194 12.9824V6.44104H70.958V5.30257H69.2194V3.1221H67.89V12.9824C67.89 13.9987 68.1147 14.732 68.5641 15.1822C69.0134 15.6196 69.7 15.8383 70.6237 15.8383H70.8296V14.6805C70.2305 14.6805 69.8123 14.5583 69.5751 14.3139C69.338 14.0695 69.2194 13.6257 69.2194 12.9824Z" fill="#574ECE" />
    <path fill-rule="evenodd" clip-rule="evenodd" d="M73.1383 7.71459C72.7264 8.52503 72.5204 9.47054 72.5204 10.5511C72.5204 11.6317 72.7264 12.5837 73.1383 13.407C73.5627 14.2303 74.1431 14.867 74.8796 15.3173C75.6285 15.7675 76.4649 15.9927 77.3886 15.9927C78.3622 15.9927 79.1985 15.7611 79.8975 15.298C80.609 14.822 81.127 14.2238 81.4516 13.5034V15.8383H82.7623V5.30257H81.4516V7.61811C81.1395 6.89772 80.6278 6.30597 79.9163 5.84286C79.2172 5.37975 78.3809 5.1482 77.4073 5.1482C76.4711 5.1482 75.6285 5.37332 74.8796 5.82356C74.1431 6.26094 73.5627 6.89129 73.1383 7.71459ZM80.9461 8.33207C81.2831 8.97527 81.4516 9.72139 81.4516 10.5704C81.4516 11.4195 81.2831 12.1656 80.9461 12.8088C80.609 13.452 80.1472 13.9473 79.5605 14.2946C78.9863 14.6419 78.3497 14.8156 77.6507 14.8156C76.9267 14.8156 76.2776 14.6484 75.7034 14.3139C75.1292 13.9666 74.6736 13.4713 74.3366 12.8281C74.0121 12.172 73.8498 11.413 73.8498 10.5511C73.8498 9.67637 74.0121 8.92382 74.3366 8.29348C74.6736 7.65027 75.1292 7.16143 75.7034 6.82697C76.2776 6.4925 76.9267 6.32526 77.6507 6.32526C78.3497 6.32526 78.9863 6.49893 79.5605 6.84626C80.1472 7.19359 80.609 7.68886 80.9461 8.33207Z" fill="#574ECE" />
    <path fill-rule="evenodd" clip-rule="evenodd" d="M104 10.0301C104 10.4932 103.988 10.847 103.963 11.0914H95.4807C95.5182 11.889 95.7054 12.5708 96.0424 13.1368C96.3795 13.7028 96.8226 14.1338 97.3718 14.4297C97.921 14.7127 98.5202 14.8542 99.1693 14.8542C100.018 14.8542 100.73 14.6419 101.304 14.2174C101.89 13.7929 102.277 13.2204 102.465 12.5H103.85C103.601 13.5292 103.064 14.3718 102.24 15.0278C101.429 15.6711 100.405 15.9927 99.1693 15.9927C98.2081 15.9927 97.3468 15.774 96.5854 15.3366C95.824 14.8863 95.2248 14.256 94.7879 13.4456C94.3635 12.6223 94.1514 11.6639 94.1514 10.5704C94.1514 9.47697 94.3635 8.5186 94.7879 7.69529C95.2124 6.87199 95.8053 6.24165 96.5667 5.80427C97.3281 5.36689 98.1957 5.1482 99.1693 5.1482C100.143 5.1482 100.992 5.36689 101.716 5.80427C102.452 6.24165 103.014 6.8334 103.401 7.57952C103.8 8.31277 104 9.12964 104 10.0301ZM102.671 9.99154C102.683 9.20683 102.527 8.53789 102.203 7.98474C101.89 7.43158 101.46 7.0135 100.911 6.73048C100.361 6.44747 99.7622 6.30597 99.1131 6.30597C98.1395 6.30597 97.3094 6.62757 96.6229 7.27078C95.9363 7.91398 95.5556 8.8209 95.4807 9.99154H102.671Z" fill="#574ECE" />
</svg>
    