<svg width="34" height="34" viewBox="0 0 34 34" fill="none" xmlns="http://www.w3.org/2000/svg">
<path fill-rule="evenodd" clip-rule="evenodd" d="M27.7988 29.6554H26.158C25.8561 29.6554 25.6111 29.8975 25.6111 30.1959C25.6111 30.4942 25.8561 30.7363 26.158 30.7363H27.7988C28.1007 30.7363 28.3457 30.4942 28.3457 30.1959C28.3457 29.8975 28.1007 29.6554 27.7988 29.6554Z" fill="#827AFF"/>
<path fill-rule="evenodd" clip-rule="evenodd" d="M23.9704 29.6554H21.7827C21.4808 29.6554 21.2358 29.8975 21.2358 30.1959C21.2358 30.4942 21.4808 30.7363 21.7827 30.7363H23.9704C24.2723 30.7363 24.5173 30.4942 24.5173 30.1959C24.5173 29.8975 24.2723 29.6554 23.9704 29.6554Z" fill="#827AFF"/>
<path fill-rule="evenodd" clip-rule="evenodd" d="M19.5951 29.6554H17.4074C17.1055 29.6554 16.8605 29.8975 16.8605 30.1959C16.8605 30.4942 17.1055 30.7363 17.4074 30.7363H19.5951C19.897 30.7363 20.142 30.4942 20.142 30.1959C20.142 29.8975 19.897 29.6554 19.5951 29.6554Z" fill="#827AFF"/>
<path fill-rule="evenodd" clip-rule="evenodd" d="M15.2198 29.6554H13.0321C12.7302 29.6554 12.4852 29.8975 12.4852 30.1959C12.4852 30.4942 12.7302 30.7363 13.0321 30.7363H15.2198C15.5216 30.7363 15.7667 30.4942 15.7667 30.1959C15.7667 29.8975 15.5216 29.6554 15.2198 29.6554Z" fill="#827AFF"/>
<path fill-rule="evenodd" clip-rule="evenodd" d="M10.8444 29.6554H8.65679C8.35489 29.6554 8.10988 29.8975 8.10988 30.1959C8.10988 30.4942 8.35489 30.7363 8.65679 30.7363H10.8444C11.1463 30.7363 11.3914 30.4942 11.3914 30.1959C11.3914 29.8975 11.1463 29.6554 10.8444 29.6554Z" fill="#827AFF"/>
<path fill-rule="evenodd" clip-rule="evenodd" d="M6.46914 29.6554H4.28148C3.97958 29.6554 3.73457 29.8975 3.73457 30.1959C3.73457 30.4942 3.97958 30.7363 4.28148 30.7363H6.46914C6.77103 30.7363 7.01605 30.4942 7.01605 30.1959C7.01605 29.8975 6.77103 29.6554 6.46914 29.6554Z" fill="#827AFF"/>
<path fill-rule="evenodd" clip-rule="evenodd" d="M26.158 14.5112H27.7988C28.1007 14.5112 28.3457 14.2691 28.3457 13.9707C28.3457 13.6724 28.1007 13.4303 27.7988 13.4303H26.158C25.8561 13.4303 25.6111 13.6724 25.6111 13.9707C25.6111 14.2691 25.8561 14.5112 26.158 14.5112Z" fill="#827AFF"/>
<path fill-rule="evenodd" clip-rule="evenodd" d="M21.7827 14.5112H23.9704C24.2723 14.5112 24.5173 14.2691 24.5173 13.9707C24.5173 13.6724 24.2723 13.4303 23.9704 13.4303H21.7827C21.4808 13.4303 21.2358 13.6724 21.2358 13.9707C21.2358 14.2691 21.4808 14.5112 21.7827 14.5112Z" fill="#827AFF"/>
<path fill-rule="evenodd" clip-rule="evenodd" d="M19.5951 13.4303H17.4074C17.1055 13.4303 16.8605 13.6724 16.8605 13.9707C16.8605 14.2691 17.1055 14.5112 17.4074 14.5112H19.5951C19.897 14.5112 20.142 14.2691 20.142 13.9707C20.142 13.6724 19.897 13.4303 19.5951 13.4303Z" fill="#827AFF"/>
<path fill-rule="evenodd" clip-rule="evenodd" d="M15.2198 13.4303H13.0321C12.7302 13.4303 12.4852 13.6724 12.4852 13.9707C12.4852 14.2691 12.7302 14.5112 13.0321 14.5112H15.2198C15.5216 14.5112 15.7667 14.2691 15.7667 13.9707C15.7667 13.6724 15.5216 13.4303 15.2198 13.4303Z" fill="#827AFF"/>
<path fill-rule="evenodd" clip-rule="evenodd" d="M10.8444 13.4303H8.65679C8.35489 13.4303 8.10988 13.6724 8.10988 13.9707C8.10988 14.2691 8.35489 14.5112 8.65679 14.5112H10.8444C11.1463 14.5112 11.3914 14.2691 11.3914 13.9707C11.3914 13.6724 11.1463 13.4303 10.8444 13.4303Z" fill="#827AFF"/>
<path fill-rule="evenodd" clip-rule="evenodd" d="M6.46914 13.4303H4.28148C3.97958 13.4303 3.73457 13.6724 3.73457 13.9707C3.73457 14.2691 3.97958 14.5112 4.28148 14.5112H6.46914C6.77103 14.5112 7.01605 14.2691 7.01605 13.9707C7.01605 13.6724 6.77103 13.4303 6.46914 13.4303Z" fill="#827AFF"/>
<path fill-rule="evenodd" clip-rule="evenodd" d="M31.0802 17.7539V12.3494C31.0802 12.1597 31.0441 11.9781 30.9769 11.8089H32.0745C32.0898 11.8106 32.1057 11.8117 32.1172 11.8122C32.4514 11.8219 32.721 12.0943 32.721 12.4321V17.7539H31.0802ZM32.721 31.7229C32.721 32.0666 32.4426 32.346 32.1008 32.346H30.9769C31.0441 32.1769 31.0802 31.9953 31.0802 31.8056V26.4011H32.721V31.7229ZM28.3457 22.0775C28.3457 23.2697 27.3705 24.2393 26.1722 24.2393C24.9734 24.2393 23.9988 23.2697 23.9988 22.0775C23.9988 20.8853 24.9734 19.9157 26.1722 19.9157C27.3705 19.9157 28.3457 20.8853 28.3457 22.0775ZM2.09383 31.7229V12.4321C2.09383 12.0884 2.37221 11.8089 2.71403 11.8089H29.2716C29.434 11.8089 29.6008 11.8587 29.7332 11.9435C29.7463 11.9532 29.7611 11.9597 29.7731 11.9705C29.7873 11.9808 29.7999 11.9922 29.8125 12.0035C29.9191 12.1154 29.9864 12.2656 29.9864 12.4321V17.7539H26.158C23.7456 17.7539 21.7827 19.6936 21.7827 22.0775C21.7827 24.4614 23.7456 26.4011 26.158 26.4011H29.9864V31.7467C29.9864 31.8894 29.9301 32.0153 29.8491 32.1207C29.7102 32.2617 29.4865 32.346 29.2716 32.346V32.3693L2.71403 32.346C2.37221 32.346 2.09383 32.0666 2.09383 31.7229ZM16.2698 7.98148C17.5649 7.50859 18.9207 7.43617 20.1939 7.70153L23.8446 6.36878C23.9884 6.31636 24.1481 6.32608 24.2848 6.3958C24.4216 6.46552 24.5222 6.58874 24.5621 6.7352C24.5813 6.80654 24.6031 6.87734 24.6289 6.9476C25.0992 8.20469 26.5173 8.84944 27.79 8.3852L27.8934 8.34953C27.93 8.3371 27.9672 8.32629 28.0017 8.31008C28.1406 8.24468 28.3003 8.23982 28.4425 8.29765C28.5852 8.35493 28.6962 8.46843 28.7493 8.61111L29.5412 10.728H28.3747L27.9092 9.48285C26.2291 9.95575 24.4358 9.14075 23.7073 7.57128L21.8336 8.25495C22.9624 8.79648 23.9501 9.63634 24.6721 10.728H23.2999C22.4828 9.7801 21.3796 9.09373 20.1507 8.7981C19.0213 8.5268 17.8061 8.57327 16.6494 8.99537C15.66 9.35693 14.8085 9.94818 14.144 10.728H12.7926C13.6239 9.47366 14.8446 8.50194 16.2698 7.98148ZM32.6001 10.8102L29.5609 1.42637C29.5155 1.28585 29.4138 1.16965 29.2798 1.10534C29.1458 1.04103 28.991 1.03346 28.8505 1.08426L2.22727 10.8043C2.22399 10.8053 2.22181 10.808 2.21907 10.8091C1.51629 11.0221 1 11.6646 1 12.4321V31.7229C1 32.6622 1.76896 33.4269 2.71348 33.4269L29.3662 33.4502C29.4461 33.4502 29.5226 33.4377 29.5998 33.4269H32.1008C33.0459 33.4269 33.8148 32.6622 33.8148 31.7229V12.4321C33.8148 11.6663 33.3007 11.0248 32.6001 10.8102Z" fill="#827AFF"/>
<path fill-rule="evenodd" clip-rule="evenodd" d="M25.0925 22.0775C25.0925 22.6736 25.5771 23.1584 26.1721 23.1584C26.7677 23.1584 27.2517 22.6736 27.2517 22.0775C27.2517 21.4814 26.7677 20.9966 26.1721 20.9966C25.5771 20.9966 25.0925 21.4814 25.0925 22.0775Z" fill="#827AFF"/>
<path fill-rule="evenodd" clip-rule="evenodd" d="M27.7988 29.6554H26.158C25.8561 29.6554 25.6111 29.8975 25.6111 30.1959C25.6111 30.4942 25.8561 30.7363 26.158 30.7363H27.7988C28.1007 30.7363 28.3457 30.4942 28.3457 30.1959C28.3457 29.8975 28.1007 29.6554 27.7988 29.6554Z" stroke="#827AFF" stroke-width="0.2"/>
<path fill-rule="evenodd" clip-rule="evenodd" d="M23.9704 29.6554H21.7827C21.4808 29.6554 21.2358 29.8975 21.2358 30.1959C21.2358 30.4942 21.4808 30.7363 21.7827 30.7363H23.9704C24.2723 30.7363 24.5173 30.4942 24.5173 30.1959C24.5173 29.8975 24.2723 29.6554 23.9704 29.6554Z" stroke="#827AFF" stroke-width="0.2"/>
<path fill-rule="evenodd" clip-rule="evenodd" d="M19.5951 29.6554H17.4074C17.1055 29.6554 16.8605 29.8975 16.8605 30.1959C16.8605 30.4942 17.1055 30.7363 17.4074 30.7363H19.5951C19.897 30.7363 20.142 30.4942 20.142 30.1959C20.142 29.8975 19.897 29.6554 19.5951 29.6554Z" stroke="#827AFF" stroke-width="0.2"/>
<path fill-rule="evenodd" clip-rule="evenodd" d="M15.2198 29.6554H13.0321C12.7302 29.6554 12.4852 29.8975 12.4852 30.1959C12.4852 30.4942 12.7302 30.7363 13.0321 30.7363H15.2198C15.5216 30.7363 15.7667 30.4942 15.7667 30.1959C15.7667 29.8975 15.5216 29.6554 15.2198 29.6554Z" stroke="#827AFF" stroke-width="0.2"/>
<path fill-rule="evenodd" clip-rule="evenodd" d="M10.8444 29.6554H8.65679C8.35489 29.6554 8.10988 29.8975 8.10988 30.1959C8.10988 30.4942 8.35489 30.7363 8.65679 30.7363H10.8444C11.1463 30.7363 11.3914 30.4942 11.3914 30.1959C11.3914 29.8975 11.1463 29.6554 10.8444 29.6554Z" stroke="#827AFF" stroke-width="0.2"/>
<path fill-rule="evenodd" clip-rule="evenodd" d="M6.46914 29.6554H4.28148C3.97958 29.6554 3.73457 29.8975 3.73457 30.1959C3.73457 30.4942 3.97958 30.7363 4.28148 30.7363H6.46914C6.77103 30.7363 7.01605 30.4942 7.01605 30.1959C7.01605 29.8975 6.77103 29.6554 6.46914 29.6554Z" stroke="#827AFF" stroke-width="0.2"/>
<path fill-rule="evenodd" clip-rule="evenodd" d="M26.158 14.5112H27.7988C28.1007 14.5112 28.3457 14.2691 28.3457 13.9707C28.3457 13.6724 28.1007 13.4303 27.7988 13.4303H26.158C25.8561 13.4303 25.6111 13.6724 25.6111 13.9707C25.6111 14.2691 25.8561 14.5112 26.158 14.5112Z" stroke="#827AFF" stroke-width="0.2"/>
<path fill-rule="evenodd" clip-rule="evenodd" d="M21.7827 14.5112H23.9704C24.2723 14.5112 24.5173 14.2691 24.5173 13.9707C24.5173 13.6724 24.2723 13.4303 23.9704 13.4303H21.7827C21.4808 13.4303 21.2358 13.6724 21.2358 13.9707C21.2358 14.2691 21.4808 14.5112 21.7827 14.5112Z" stroke="#827AFF" stroke-width="0.2"/>
<path fill-rule="evenodd" clip-rule="evenodd" d="M19.5951 13.4303H17.4074C17.1055 13.4303 16.8605 13.6724 16.8605 13.9707C16.8605 14.2691 17.1055 14.5112 17.4074 14.5112H19.5951C19.897 14.5112 20.142 14.2691 20.142 13.9707C20.142 13.6724 19.897 13.4303 19.5951 13.4303Z" stroke="#827AFF" stroke-width="0.2"/>
<path fill-rule="evenodd" clip-rule="evenodd" d="M15.2198 13.4303H13.0321C12.7302 13.4303 12.4852 13.6724 12.4852 13.9707C12.4852 14.2691 12.7302 14.5112 13.0321 14.5112H15.2198C15.5216 14.5112 15.7667 14.2691 15.7667 13.9707C15.7667 13.6724 15.5216 13.4303 15.2198 13.4303Z" stroke="#827AFF" stroke-width="0.2"/>
<path fill-rule="evenodd" clip-rule="evenodd" d="M10.8444 13.4303H8.65679C8.35489 13.4303 8.10988 13.6724 8.10988 13.9707C8.10988 14.2691 8.35489 14.5112 8.65679 14.5112H10.8444C11.1463 14.5112 11.3914 14.2691 11.3914 13.9707C11.3914 13.6724 11.1463 13.4303 10.8444 13.4303Z" stroke="#827AFF" stroke-width="0.2"/>
<path fill-rule="evenodd" clip-rule="evenodd" d="M6.46914 13.4303H4.28148C3.97958 13.4303 3.73457 13.6724 3.73457 13.9707C3.73457 14.2691 3.97958 14.5112 4.28148 14.5112H6.46914C6.77103 14.5112 7.01605 14.2691 7.01605 13.9707C7.01605 13.6724 6.77103 13.4303 6.46914 13.4303Z" stroke="#827AFF" stroke-width="0.2"/>
<path fill-rule="evenodd" clip-rule="evenodd" d="M31.0802 17.7539V12.3494C31.0802 12.1597 31.0441 11.9781 30.9769 11.8089H32.0745C32.0898 11.8106 32.1057 11.8117 32.1172 11.8122C32.4514 11.8219 32.721 12.0943 32.721 12.4321V17.7539H31.0802ZM32.721 31.7229C32.721 32.0666 32.4426 32.346 32.1008 32.346H30.9769C31.0441 32.1769 31.0802 31.9953 31.0802 31.8056V26.4011H32.721V31.7229ZM28.3457 22.0775C28.3457 23.2697 27.3705 24.2393 26.1722 24.2393C24.9734 24.2393 23.9988 23.2697 23.9988 22.0775C23.9988 20.8853 24.9734 19.9157 26.1722 19.9157C27.3705 19.9157 28.3457 20.8853 28.3457 22.0775ZM2.09383 31.7229V12.4321C2.09383 12.0884 2.37221 11.8089 2.71403 11.8089H29.2716C29.434 11.8089 29.6008 11.8587 29.7332 11.9435C29.7463 11.9532 29.7611 11.9597 29.7731 11.9705C29.7873 11.9808 29.7999 11.9922 29.8125 12.0035C29.9191 12.1154 29.9864 12.2656 29.9864 12.4321V17.7539H26.158C23.7456 17.7539 21.7827 19.6936 21.7827 22.0775C21.7827 24.4614 23.7456 26.4011 26.158 26.4011H29.9864V31.7467C29.9864 31.8894 29.9301 32.0153 29.8491 32.1207C29.7102 32.2617 29.4865 32.346 29.2716 32.346V32.3693L2.71403 32.346C2.37221 32.346 2.09383 32.0666 2.09383 31.7229ZM16.2698 7.98148C17.5649 7.50859 18.9207 7.43617 20.1939 7.70153L23.8446 6.36878C23.9884 6.31636 24.1481 6.32608 24.2848 6.3958C24.4216 6.46552 24.5222 6.58874 24.5621 6.7352C24.5813 6.80654 24.6031 6.87734 24.6289 6.9476C25.0992 8.20469 26.5173 8.84944 27.79 8.3852L27.8934 8.34953C27.93 8.3371 27.9672 8.32629 28.0017 8.31008C28.1406 8.24468 28.3003 8.23982 28.4425 8.29765C28.5852 8.35493 28.6962 8.46843 28.7493 8.61111L29.5412 10.728H28.3747L27.9092 9.48285C26.2291 9.95575 24.4358 9.14075 23.7073 7.57128L21.8336 8.25495C22.9624 8.79648 23.9501 9.63634 24.6721 10.728H23.2999C22.4828 9.7801 21.3796 9.09373 20.1507 8.7981C19.0213 8.5268 17.8061 8.57327 16.6494 8.99537C15.66 9.35693 14.8085 9.94818 14.144 10.728H12.7926C13.6239 9.47366 14.8446 8.50194 16.2698 7.98148ZM32.6001 10.8102L29.5609 1.42637C29.5155 1.28585 29.4138 1.16965 29.2798 1.10534C29.1458 1.04103 28.991 1.03346 28.8505 1.08426L2.22727 10.8043C2.22399 10.8053 2.22181 10.808 2.21907 10.8091C1.51629 11.0221 1 11.6646 1 12.4321V31.7229C1 32.6622 1.76896 33.4269 2.71348 33.4269L29.3662 33.4502C29.4461 33.4502 29.5226 33.4377 29.5998 33.4269H32.1008C33.0459 33.4269 33.8148 32.6622 33.8148 31.7229V12.4321C33.8148 11.6663 33.3007 11.0248 32.6001 10.8102Z" stroke="#827AFF" stroke-width="0.2"/>
<path fill-rule="evenodd" clip-rule="evenodd" d="M25.0925 22.0775C25.0925 22.6736 25.5771 23.1584 26.1721 23.1584C26.7677 23.1584 27.2517 22.6736 27.2517 22.0775C27.2517 21.4814 26.7677 20.9966 26.1721 20.9966C25.5771 20.9966 25.0925 21.4814 25.0925 22.0775Z" stroke="#827AFF" stroke-width="0.2"/>
</svg>
