<svg width="16" height="17" viewBox="0 0 16 17" fill="none" xmlns="http://www.w3.org/2000/svg">
    <path fill-rule="evenodd" clip-rule="evenodd" d="M13.1724 14.7004C13.3691 15.2906 13.2989 15.7473 12.9335 16.0213C12.5611 16.3023 12.1115 16.211 11.5986 15.8386L8.00136 13.1969L4.40413 15.8386C3.89124 16.211 3.44158 16.3023 3.06921 16.0213C2.70387 15.7473 2.63361 15.2906 2.83033 14.7004L4.25658 10.4779L0.624216 7.87129C0.118354 7.51297 -0.106473 7.09844 0.0480956 6.65581C0.195639 6.22724 0.603138 6.01646 1.22844 6.02349L5.67581 6.05862L7.0318 1.80797C7.22852 1.20375 7.54468 0.873535 8.00136 0.873535C8.45804 0.873535 8.78123 1.20375 8.97093 1.80797L10.3269 6.05862L14.7743 6.02349C15.3996 6.01646 15.8071 6.22724 15.9546 6.66284C16.1022 7.09844 15.8844 7.51297 15.3785 7.87129L11.7461 10.4779L13.1724 14.7004ZM8.46351 11.7213L11.4354 14.0328C11.4405 14.0353 11.4451 14.0379 11.4494 14.0402C11.4686 14.0508 11.4801 14.0571 11.4917 14.0398C11.4987 14.0258 11.4987 14.0187 11.4917 13.9836L10.22 10.4426C10.0724 10.0421 10.1076 9.83133 10.487 9.5784L13.6064 7.45659C13.6345 7.43551 13.6416 7.42848 13.6416 7.40741C13.6345 7.39335 13.6135 7.39335 13.5783 7.39335L9.8195 7.49874C9.39093 7.51279 9.1942 7.40038 9.08179 6.97883L8.03494 3.36754C8.02791 3.33241 8.01386 3.31836 7.99981 3.31836C7.98575 3.31836 7.9717 3.33241 7.96468 3.36754L6.92485 6.97883C6.80541 7.40038 6.60869 7.51279 6.18011 7.49874L2.42128 7.39335C2.38615 7.39335 2.3721 7.39335 2.36507 7.40741C2.35805 7.42848 2.3721 7.44254 2.4002 7.45659L5.51265 9.57137C5.89908 9.8243 5.92718 10.0421 5.77964 10.4426L4.50796 13.9836C4.50093 14.0187 4.50093 14.0258 4.50796 14.0398C4.51948 14.0571 4.531 14.0508 4.55026 14.0402C4.55449 14.0379 4.5591 14.0353 4.56416 14.0328L7.5361 11.7213C7.88037 11.4473 8.11925 11.4473 8.46351 11.7213Z" fill="#FC1885" />
</svg>
    