<svg width="21" height="23" viewBox="0 0 21 23" fill="none" xmlns="http://www.w3.org/2000/svg">
    <path d="M19.0909 0.0327148H1.90909C0.854318 0.0327148 0 0.957059 0 2.09829V20.6885C0 21.8297 0.854318 22.754 1.90909 22.754H19.0909C20.1457 22.754 21 21.8297 21 20.6885V2.09829C21 0.957059 20.1447 0.0327148 19.0909 0.0327148ZM17.8395 9.81734C17.7154 9.82973 17.5904 9.83799 17.4644 9.83799C16.0373 9.83799 14.783 9.04481 14.0528 7.84368C14.0528 10.9927 14.0528 14.5764 14.0528 14.6363C14.0528 17.4094 11.9748 19.6567 9.41277 19.6567C6.85077 19.6557 4.77273 17.4073 4.77273 14.6353C4.77273 11.8623 6.85077 9.61491 9.41277 9.61491C9.51014 9.61491 9.60464 9.62421 9.69914 9.6304V12.105C9.60368 12.0926 9.51109 12.074 9.41277 12.074C8.10505 12.074 7.04455 13.2214 7.04455 14.6363C7.04455 16.0512 8.10409 17.1987 9.41277 17.1987C10.7215 17.1987 11.8765 16.0833 11.8765 14.6683C11.8765 14.6115 11.8994 3.13211 11.8994 3.13211H14.0843C14.2895 5.24622 15.8674 6.91521 17.8395 7.06806V9.81734Z" fill="white" />
</svg>
    