<svg width="25" height="21" viewBox="0 0 25 21" fill="none" xmlns="http://www.w3.org/2000/svg">
    <path d="M25 2.54313C24.0798 2.95861 23.0914 3.2382 22.054 3.36431C23.1135 2.7191 23.926 1.6975 24.3087 0.47941C23.3183 1.07672 22.2203 1.51078 21.0511 1.7454C20.1156 0.731631 18.7829 0.0981445 17.308 0.0981445C14.4754 0.0981445 12.1793 2.43364 12.1793 5.31268C12.1793 5.72131 12.2255 6.12017 12.312 6.50046C8.04969 6.28343 4.27099 4.20701 1.74032 1.05131C1.29995 1.82166 1.04708 2.71714 1.04708 3.67421C1.04708 5.48278 1.95185 7.0792 3.32776 8.01379C2.4874 7.98642 1.69609 7.75179 1.00477 7.36173C1.00477 7.38422 1.00477 7.40474 1.00477 7.42723C1.00477 9.95433 2.77201 12.062 5.11903 12.5401C4.68924 12.6594 4.23541 12.7229 3.76716 12.7229C3.43737 12.7229 3.11526 12.6897 2.80278 12.63C3.45564 14.7016 5.34979 16.21 7.59394 16.252C5.8392 17.651 3.62775 18.4849 1.22399 18.4849C0.810546 18.4849 0.401908 18.4605 0 18.4116C2.27011 19.8907 4.96519 20.7539 7.8622 20.7539C17.2964 20.7539 22.4539 12.808 22.4539 5.91683C22.4539 5.69101 22.4491 5.46616 22.4395 5.24229C23.4424 4.50615 24.3125 3.58818 25 2.54313Z" fill="white" />
</svg>
    