<svg width="32" height="32" viewBox="0 0 32 32" fill="none" xmlns="http://www.w3.org/2000/svg">
<path d="M19.9998 8.20012H7.99984C5.05317 8.20012 2.6665 10.5868 2.6665 13.5334V8.72005C2.6665 6.00005 4.8665 3.80005 7.5865 3.80005H15.0798C17.7998 3.80005 19.9998 5.48012 19.9998 8.20012Z" fill="#B7BDD4"/>
<path opacity="0.4" d="M23.3065 16.2666C22.6398 16.9199 22.3198 17.9066 22.5865 18.9066C22.9198 20.1466 24.1465 20.9333 25.4265 20.9333H26.6665V22.8666C26.6665 25.8133 24.2798 28.1999 21.3332 28.1999H7.99984C5.05317 28.1999 2.6665 25.8133 2.6665 22.8666V13.5333C2.6665 10.5866 5.05317 8.19995 7.99984 8.19995H21.3332C24.2665 8.19995 26.6665 10.6 26.6665 13.5333V15.4666H25.2265C24.4798 15.4666 23.7998 15.7599 23.3065 16.2666Z" fill="#B7BDD4"/>
<path d="M29.3335 16.8268V19.5735C29.3335 20.3201 28.7201 20.9335 27.9601 20.9335H25.3868C23.9468 20.9335 22.6268 19.8801 22.5068 18.4401C22.4268 17.6001 22.7468 16.8135 23.3068 16.2668C23.8001 15.7601 24.4801 15.4668 25.2268 15.4668H27.9601C28.7201 15.4668 29.3335 16.0801 29.3335 16.8268Z" fill="#B7BDD4"/>
<path d="M17.3335 15.8665H9.3335C8.78683 15.8665 8.3335 15.4131 8.3335 14.8665C8.3335 14.3198 8.78683 13.8665 9.3335 13.8665H17.3335C17.8802 13.8665 18.3335 14.3198 18.3335 14.8665C18.3335 15.4131 17.8802 15.8665 17.3335 15.8665Z" fill="#B7BDD4"/>
</svg>
